<svg xmlns="http://www.w3.org/2000/svg" viewBox="0 0 36.16 36.16"><defs><style>.cls-1{fill:#d3d3d3;}</style></defs><title>Asset 37</title><g id="Layer_2" data-name="Layer 2"><g id="design"><path class="cls-1" d="M18.08,0H0V36.16H36.16V0ZM13.57,26.52A3.64,3.64,0,0,1,13,27.71a3.19,3.19,0,0,1-3.46,1,3.23,3.23,0,0,1-2.23-3.2,3.43,3.43,0,0,1,.44-1.49l.15-.22a3.41,3.41,0,0,1,1-.9A3.06,3.06,0,0,1,10,22.52a2.08,2.08,0,0,1,.86,0,3.08,3.08,0,0,1,1.84.91A3.2,3.2,0,0,1,13.57,26.52Zm8.16,2.29-.11.1H19.49a10.16,10.16,0,0,1-2.23-.06c-.14-.08-.16-.19-.19-.74a9.4,9.4,0,0,0-1.62-4.86,9.54,9.54,0,0,0-6.3-4.05l-.47-.07L8,19.08l-.55,0-.1-.1-.1-.11v-4.3l.11-.1.11-.11.68,0a13.9,13.9,0,0,1,4.65,1,15.33,15.33,0,0,1,2.89,1.55l.46.34A14.13,14.13,0,0,1,20,21.52a14.28,14.28,0,0,1,1.88,6.86C21.84,28.71,21.84,28.71,21.73,28.81Zm7.15-.09c-.09.19-.06.19-2.42.19s-2.3,0-2.38-.2a7.77,7.77,0,0,1-.07-.89c0-.44-.06-1-.09-1.23a16.47,16.47,0,0,0-9.19-12.83,11.73,11.73,0,0,0-1.12-.5,16,16,0,0,0-5.5-1.13l-.65,0L7.36,12l-.1-.11V9.7c0-2.35,0-2.3.18-2.41s.21,0,.74,0a21.27,21.27,0,0,1,10.4,3.05A22,22,0,0,1,21.1,12.1c.7.6,1.09,1,1.63,1.5a17,17,0,0,1,1.54,1.73,21.2,21.2,0,0,1,4.42,10.29A19.5,19.5,0,0,1,28.88,28.72Z"/></g></g></svg>