<svg xmlns="http://www.w3.org/2000/svg" viewBox="0 0 92.06 82.46"><defs><style>.cls-1{fill:#fff;}</style></defs><title>Asset 24</title><g id="Layer_2" data-name="Layer 2"><g id="design"><path class="cls-1" d="M24,82.46c-2.34,0-5.09,0-7.74-.11C3.51,82,1.27,81.56.24,79.11c-.44-1.06-.23-17.36.24-28C.6,48.42.6,40.9.48,34.32.27,22.47.27,22.23,1,21.65A1.52,1.52,0,0,0,1.47,21c0-.45,1-1,1.15-1.09.91-.49,2.07-.58,8.27-.63l9.7-.1,2.32,0V16.08c0-8.8,1.15-10.51,8.83-13.07A88.17,88.17,0,0,1,48.14.11C49,0,50.39,0,52.09,0c4.34,0,10.12.25,11.06.56,1.71.58,4.32,3.21,5.35,5.41a55.8,55.8,0,0,1,3.21,11l.16,1.51,3.74.35c2.19.21,6.39.46,9.37.56,4.57.16,5.8.38,6.26.66l.82.51-.18,9.07c-.09,4.9-.37,13.51-.62,19.19-.57,13-.56,18.54,0,21.84.67,3.84.61,6.15-.18,6.87a12.69,12.69,0,0,1-3.77,1.2c-1.68.35-3.55.76-4.16.92a115.92,115.92,0,0,1-11.9,1.89c-1.94.19-11.4.4-21.09.46s-19,.23-20.79.38c-.95.09-2.88.13-5.43.13ZM3.73,34.78c-.1,1.35-.24,5.32-.33,10.77-.1,6.36-.27,16.3-.37,22-.12,7-.14,10.23.13,10.55.91.72,4,1,12.8,1.33,3.3.1,5.78.15,7.81.15,2.48,0,4.49-.07,6.51-.23C32.86,79.16,39,79,45.51,79H49.7c12.24,0,21.39-.36,25.76-1,1.7-.26,5.42-1,8.29-1.61l5-1.11v-.9a31.63,31.63,0,0,0-.46-3.7c-.58-3.32-.58-8.86,0-21.18.24-5.21.44-10.71.45-12.26V35.11l-2.28,2.48A103.74,103.74,0,0,1,74.59,48.77a101.45,101.45,0,0,1-11.75,7.77,46.42,46.42,0,0,1-9.91,3.21l-1.87.34-.17,1.25c-.34,2.58-.51,3.19-1,3.58-.1.08-.29.24-2.19.24-2.07,0-7.19-.26-7.69-.76s-1-2.71-1-4.37c0-1.24-.13-1.24-.29-1.24-1.17,0-10-3.15-13.12-4.67A56.28,56.28,0,0,1,20,51C17.21,49.06,9.58,41.73,6,37.43ZM42.37,61.91c.12,0,1.25.11,2.92.22l2.47.15.12-1.07c.09-.71.23-3.34.31-5.86L48.34,51l-2.6,0c-2.45,0-3.56.09-3.91.46-.18.19-.2.53-.18,1.14.12,2.85.37,8.79.72,9.25ZM45.52,48c3.5,0,5.1.45,5.52,1.56a18.57,18.57,0,0,1,.1,4.3L51,57.06,52,56.89A47.8,47.8,0,0,0,61.25,54c1-.49,3.15-1.78,4.82-2.87,7.74-5,12.3-9,19.53-17l3.47-3.84V22.5l-4.65-.17c-2.7-.11-6.24-.42-7.88-.69a41.37,41.37,0,0,0-5.08-.7,1.16,1.16,0,0,0-.34,0c-.23.22-8.75.27-15.86.27-8.54,0-18.41.14-22,.31s-11.56.43-17.71.57c-6.63.16-11.48.38-11.86.49l-.55.17.41,7.15,3.06,3.63c4.83,5.74,12.06,12.85,15.16,14.91a52.17,52.17,0,0,0,12.74,5.91c2,.67,3.58,1.19,4.16,1.37,0-.41.08-1.33.08-2.6,0-2.56.06-3.07.79-3.74C40.6,48.45,42.38,48,45.52,48ZM26.85,18.84a3.42,3.42,0,0,0,1-.11c0-.43.21-1.85.32-2.8.7-5.64,1.75-7.5,5.14-9,3.13-1.41,10.17-2.6,15.36-2.6.71,0,1.37,0,2,.07,8.8.7,12.21,2,13.5,5.24a28.78,28.78,0,0,1,1.17,7.49v1.11h3.57l-.19-1.34a45.51,45.51,0,0,0-1.53-5.69c-1.46-4.5-2.8-6.7-4.63-7.61-1-.47-2-.55-7.26-.59H53.06c-2.57,0-4.59,0-5,.08-11,1.25-16.54,2.55-19.83,4.62-1.74,1.1-2.09,2.23-2.24,7.13l-.12,4Zm4.08-.44h1.21c2.61,0,8.32,0,14.54-.11l15.67-.17V16.64c0-2.1-.73-5.59-1.35-6.54s-3.15-1.95-6.75-2.42a43.56,43.56,0,0,0-5.7-.37A39.62,39.62,0,0,0,35.3,9.39c-3,1.11-3.53,2-4.14,6.82C31,17.27,31,18.05,30.93,18.4Z"/></g></g></svg>