<svg xmlns="http://www.w3.org/2000/svg" viewBox="0 0 150.24 130.81"><defs><style>.cls-1{fill:#ef6b11}</style></defs><g id="Layer_2" data-name="Layer 2"><g id="design"><path class="cls-1" d="M39.77.42a187.9 187.9 0 0 1-22.71 2.27c-2.21.06-2.38.12-2.72.84-.27.54-.45 4.39-.65 13.26-.16 6.87-.37 12.91-.47 13.41a1.65 1.65 0 0 0 .36 1.57c.55.66.64.67 2.85.36a56.26 56.26 0 0 1 6.22-.33c3.3 0 4 .08 4.11.47a28.81 28.81 0 0 1 .18 4.1c0 4.93-.26 4.74 6.1 4.3 2.72-.19 8.45-.46 12.7-.6 6.34-.2 7.87-.33 8.48-.72a1.59 1.59 0 0 0 .76-1V24.14c0-11.32-.1-13.77-.44-14.11s-1-.34-4.5.08l-5.41.63-1.32.15-.08-2.3a40.65 40.65 0 0 1 .25-4.94c.32-2.57.31-2.66-.32-3.17a2.14 2.14 0 0 0-.84-.48c-.11 0-1.25.22-2.55.42zM41 6.58a17.42 17.42 0 0 1-.34 4.23 26.53 26.53 0 0 1-4.72.62c-5.21.41-7.76 1-8.48 1.83-.45.55-.51 1.43-.51 8.27 0 5.86-.08 7.67-.37 7.75s-2.74.18-5.63.27l-5.26.16.17-7.28c.1-4 .26-9.56.36-12.34L16.39 5l4.76-.19c2.62-.11 6.28-.4 8.15-.64 4.13-.55 11.3-1.51 11.56-1.56A21.25 21.25 0 0 1 41 6.58zm11.76 18.29v12.54l-.9.13c-.49.07-3.82.21-7.38.31s-8.41.29-10.75.44a41.12 41.12 0 0 1-4.38.15c-.18-.18-.22-15.75-.06-20 .12-3 .24-3.81.59-3.92a96.33 96.33 0 0 1 10.92-1.15c3.48-.27 7.07-.6 8-.73s2.16-.25 2.8-.27h1.18V24.9zm48.78-8.22c-.72.06-2.86.31-4.72.54s-5.57.52-8.25.64a30.47 30.47 0 0 0-5.24.48A3.06 3.06 0 0 0 83 20c0 1.44 0 1.44-1 1.44a17.08 17.08 0 0 1-2.52-.29c-2.36-.44-5.82-.45-6.34 0a3 3 0 0 0-.64 1.45c-.1.59-1 4.2-1.91 8s-2.89 11.85-4.28 17.86-4 16.6-5.75 23.59c-3.64 14.36-5.33 22.11-7.22 33.09l-1.67 9.7c-.61 3.56-.31 3.76 6.2 4.23 2.66.18 4.94.4 5.06.47a17.19 17.19 0 0 1 .26 3.73c.05 4.48.09 4.54 3.2 4.8 1.25.1 4.07.37 6.26.6s6.9.55 10.46.72 7.15.37 8 .45a207.22 207.22 0 0 0 25.16.91c5.25-.11 9.72-.27 10-.36.62-.24.67-.66 1-9.54.24-6.78.37-8.16.76-8.45.69-.49 5.46-1.31 9.32-1.59 1.86-.14 4.72-.47 6.33-.73a31.4 31.4 0 0 1 4.43-.46 2.86 2.86 0 0 0 1.8-.33c.47-.58.54-8.31.29-32.52-.13-12.33-.28-30.6-.35-40.62-.07-11.06-.23-18.41-.41-18.72-.27-.48-1.42-.52-16.75-.55-9 0-19.44-.1-23.09-.19s-7.23-.11-8 0zm31.63 2.58h14.11c.02 0 .08 10.59.14 23.47s.23 30.75.36 39.66.18 18.15.12 20.53l-.12 4.3-1.67.18c-.92.09-3.05.37-4.76.62a45.49 45.49 0 0 1-4.56.45 45.77 45.77 0 0 0-5.08.65 29.39 29.39 0 0 1-3.72.52c0-.07 0-2 .13-4.25s.37-7.28.55-11.11.52-8.76.76-10.91c.61-5.61.91-15.73.47-16.25-.27-.32 0-1.59 1.15-5.69a204.68 204.68 0 0 0 4.84-20.17c.62-4.31 1.57-10 1.79-10.76.31-1.1-.49-1.67-3-2.1-2.94-.51-14.68-2.21-22.2-3.22-3.15-.42-7-1-8.64-1.33-3.82-.75-11.35-1.72-15.45-2-3-.19-3.24-.26-3.24-.8s.29-.61 5-.93c2.77-.19 6.07-.48 7.37-.66s2.82-.38 3.39-.44 4.87 0 9.59 0 14.87.18 22.63.17zm-53.89 4.3c1.3.17 4.6.44 7.37.61a129.54 129.54 0 0 1 17.16 2.07c2.66.48 7.42 1.2 10.63 1.6s8.54 1.13 11.87 1.63l7.3 1.1a3.71 3.71 0 0 1 1.37.35 5.5 5.5 0 0 1-.16 1.65c-.16.82-.53 3.45-.85 5.9-.59 4.64-2.58 13.15-5.41 23.14-3.62 12.77-8.85 34.77-11.81 49.69-.91 4.54-1.93 9.16-2.28 10.28l-.63 2-2.54-.2c-12.09-.94-24.79-2.46-34.67-4.14a161.8 161.8 0 0 0-18.7-2.46 30 30 0 0 1-4-.41 9 9 0 0 1 .31-2.48c.26-1.28.88-4.76 1.38-7.77 1.56-9.42 3.74-19.46 7.19-33.17 1.84-7.32 4.36-17.64 5.6-23 2.09-9 6.19-25.77 6.49-26.6.07-.21.51-.31 1.1-.24l3.33.43zm47.79 59.87c-.45 4.52-.88 12.09-1.21 20.94-.09 2.51-.29 5.5-.45 6.63s-.4 5.43-.54 9.53-.34 7.53-.43 7.62-4.38.24-9.54.33a139.77 139.77 0 0 1-15.27-.33c-3.26-.27-8.67-.62-12.09-.79-5.87-.33-20.81-1.41-21.54-1.63-.26-.07-.38-.82-.38-2.44a14.86 14.86 0 0 0-.18-2.82c-.27-.69.62-.61 9.35.85 10.66 1.79 14.8 2.33 28.13 3.68 11.14 1.12 11.52 1.14 12.24.63 1.06-.76 2.08-4.31 3.85-13.3 1.92-9.79 4-18.9 6.4-28.75 1.82-7.31 2-7.83 2.07-6.34a59.84 59.84 0 0 1-.36 6.19zM3.41 48.76a17.46 17.46 0 0 0-1.5 3.15C1.38 53.27.75 54.75.48 55.24.07 56 0 57.07 0 61.88c0 8.47.76 16.75 3.17 35.38.55 4.31 1.17 9.54 1.37 11.65.42 4.36.74 5.16 2.11 5.16 2.1 0 4.62-.65 5.28-1.36 1.2-1.29 1.34-5.39.59-17.66-.36-5.84-.78-12.14-.94-14-.9-10.53-1.48-18.47-1.71-23.59l-.18-4L7.82 51c-2.47-3.22-3.31-3.65-4.41-2.27zm2.82 4.14l1.16 1.49.17 3.51c.25 5.37 1 16.26 1.52 21.38s1.36 19.18 1.36 21.85c0 1.93-.25 2.21-2.37 2.78-1.12.3-1.53.31-1.62 0s-.65-4.54-1.31-9.65C2.16 70.93 1.42 57 3.06 54.89a8.89 8.89 0 0 0 1-2.18c.28-.83.59-1.44.73-1.39a11 11 0 0 1 1.4 1.58zm4.42 55.33a6.3 6.3 0 0 1-.56 2.76 3.87 3.87 0 0 1-1.61.56c-1.18.19-1.21.17-1.4-.75a16.71 16.71 0 0 1-.19-2.51v-1.56l1.42-.43c2.53-.78 2.53-.78 2.34 1.93zm25.2-50.16a1.45 1.45 0 0 0-.76.65c-1 3.51-5.66 16.31-13.21 36.15-1.47 3.87-1.5 4-1.15 5.33a25.7 25.7 0 0 1 .54 4 10.69 10.69 0 0 0 .46 3c.58.75 1.62.38 2.62-.91a20.58 20.58 0 0 1 2.27-2.43c1.48-1.33 1.56-1.5 4.9-10.17 1.34-3.47 2.84-7.2 3.32-8.25 2.9-6.31 4.85-10.89 6-14 .7-1.94 2-5.23 2.85-7.3s1.57-3.87 1.57-4c0-.65-1.29-1.2-4.18-1.77-3.45-.68-4.18-.73-5.19-.3zm5 2.68a3.11 3.11 0 0 1 1.41.5c0 .1-.55 1.48-1.23 3.08-1.1 2.56-1.31 2.86-1.85 2.69a16.06 16.06 0 0 0-2.3-.33c-1.15-.1-1.69-.28-1.69-.56a29 29 0 0 1 2.08-5.61c.34-.4.87-.37 3.58.23zm-2.71 8.51a1.06 1.06 0 0 1 .59.73c0 .66-1.87 5.28-4.42 10.91-1.31 2.91-3.51 8.17-4.86 11.65-3.34 8.58-3.5 8.93-4.61 9.8s-1.45.81-1.45-.52a5.7 5.7 0 0 0-.31-1.8c-.27-.69.4-2.66 5.31-15.76C31.49 76.05 34 69.15 34 69c0-.44 3.18-.21 4.13.3z"/><path class="cls-1" d="M46 16.78c-.65.14-3.69.51-6.78.84s-5.83.67-6.11.78c-.67.26-.72 1.77 0 2 .5.2 12.76-1.13 14.71-1.59 1.41-.33 2-1 1.61-1.84-.43-.57-1.43-.63-3.43-.19zm-7 4.87c-4.3.82-5 1.09-5 1.9 0 1.19 1.06 1.27 5.48.44 5.07-.94 5.07-.94 5.46-1.65s-.15-1.45-1.33-1.41c-.5 0-2.56.34-4.6.72zm-1.59 6.07a12.37 12.37 0 0 0-2.92 1.42 1 1 0 0 0 .29 1.68c.55.21 5.08-1.27 5.81-1.91a1.16 1.16 0 0 0 .15-1.77c-.46-.46-.53-.45-3.33.58zM43 30.39c-1.56.56-1.92 1.08-1.35 2 .35.55 2.27.48 3.18-.12a1.15 1.15 0 0 0 .63-1.27c-.09-.91-1-1.12-2.45-.59zm45 2.5a6.3 6.3 0 0 0-2.06 4.16 4.61 4.61 0 0 1-.83 2.21c-.45.68-1.55 2.57-2.43 4.16-1.9 3.48-3 4.75-3.82 4.52-1.27-.34-3.51 2.56-3.53 4.56a2.84 2.84 0 0 0 .67 1.59c1 1.11 3.73 1.36 5.41.49l1.11-.58 2.07 1.22c1.56.93 2 1.36 2 1.8s-.1 1.34-.11 2.25a4.05 4.05 0 0 0 .76 2.89A6.69 6.69 0 0 0 89 64a3.49 3.49 0 0 1 1 .75 33.34 33.34 0 0 1-1.77 4.69 2.37 2.37 0 0 1-1.15.52c-2.1.42-4.24 3.4-4.27 6 0 1.91.56 2.63 2.65 3.24 1.36.4 1.65.4 2.54 0a6.18 6.18 0 0 0 3.07-7.81c-.39-1.09-.36-1.34.41-3.55.45-1.3.9-2.49 1-2.64a6.69 6.69 0 0 1 2.32-.43 19.72 19.72 0 0 0 4.1-.81l1.94-.65 2.78 1.55c1.53.86 3.19 1.87 3.71 2.27.92.71.94.77.8 2.54a3.65 3.65 0 0 0 .46 2.79c1.14 1.82 4.76 2.72 6.76 1.69 1.17-.61 2.12-2.7 2.18-4.82s-.41-3.1-2.12-3.93a4.48 4.48 0 0 0-4.51 0l-1 .62-1.9-1.31c-1-.69-2.74-1.71-3.74-2.24a6.68 6.68 0 0 1-1.84-1.2 7.56 7.56 0 0 1 .44-1.28 4.32 4.32 0 0 0-1.33-5.42 5.29 5.29 0 0 1-1.16-1 40.7 40.7 0 0 1 2.37-3.39l2.4-3.18h1.44a3.81 3.81 0 0 0 3.72-2.48c1.07-2.06.93-3.27-.56-4.86-1.14-1.22-1.36-1.33-2.65-1.33a4.68 4.68 0 0 0-3.85 1.67 4.13 4.13 0 0 0-.62 5.16c.38.77.3.93-2.12 4.17L98 52.68l-2.27-.16a10.59 10.59 0 0 1-2.49-.36 6.74 6.74 0 0 1-.53-1.94c-.17-1-.56-2.94-.87-4.41s-.64-3.38-.75-4.28l-.19-1.62 1.06-.51a4.48 4.48 0 0 0 2.24-5.24c-.61-1.47-1.62-2.06-3.54-2.06a3.25 3.25 0 0 0-2.65.79zm4 2.16a1.91 1.91 0 0 1-3 2c-.48-.48-.45-1.15.11-1.94s2.65-.93 2.92-.06zm-3.26 6.42a33.66 33.66 0 0 0 .63 3.75c.36 1.44.92 4.39 1.38 7.31 0 .37-.33.77-1.25 1.28l-1.32.76-1.92-1.12c-2.54-1.47-2.95-1.85-2.95-2.69a4.13 4.13 0 0 0-.43-1.53c-.35-.68-.36-.93 0-1.39s1.14-1.94 2.09-3.65c3.05-5.55 3.49-5.86 3.81-2.72zm19.16-.11c.9.73.93 1.5.09 2.65-.6.84-2.5.77-3.22-.12s-.64-1.38.36-2.39 1.65-1.06 2.77-.14zm-27 9.23c.35.44.24 1.12-.29 1.79-.34.45-2.45.52-2.71.09s.26-1.35 1-2.15a1.35 1.35 0 0 1 2 .27zm16.25 4.64a13.89 13.89 0 0 0 2.12.82c2.13.62 2.37 2.45.59 4.47-1.07 1.22-3.42 1.95-6.28 1.95-2.59 0-3.78-.51-4.45-1.92a2.5 2.5 0 0 1-.22-2.18A5.84 5.84 0 0 1 92 55.11a9.83 9.83 0 0 1 5.07.12zM115 67.81c.35.29.42.7.28 1.71-.25 1.91-.84 2.68-2.06 2.68-2.89 0-3.71-2.07-1.68-4.25a1.69 1.69 0 0 1 1.89-.67 3.68 3.68 0 0 1 1.57.53zm-25.84 5.86a3 3 0 0 1-2.39 3.18c-1.56.13-2-.49-1.33-2.11 1.11-2.92 3.72-3.67 3.72-1.07zm25.42-36.38c-.55.25-.45 1.53.14 1.84a35.2 35.2 0 0 0 5.63.38c4.31.09 5.15 0 5.39-.34.36-.56.35-.67-.1-1.29s-1-.55-5.54-.65a44.76 44.76 0 0 0-5.52.06zM66.34 87.05c-.36.26-.62 1.23-.92 3.45-.22 1.68-.61 4-.86 5-.54 2.33-1.65 9.49-1.65 10.65a1.23 1.23 0 0 0 .59 1.14c1 .55 7.35 1.46 11.53 1.67 3.87.19 4.06.17 4.35-.39a.89.89 0 0 0-.06-1.11c-.3-.42-1.07-.56-4.32-.77-4-.25-9.34-1.05-9.56-1.43A80.92 80.92 0 0 1 67 95.2a47.09 47.09 0 0 0 .79-5.35c.18-2.36.15-2.58-.39-2.86a.86.86 0 0 0-1.09.06zm5.3.34a1.55 1.55 0 0 0-.47.73c0 .45.92 1.18 1.48 1.18.29 0 2.22.42 4.32.93s5.17 1.15 6.88 1.43l3.1.5-.09 1.52a48.81 48.81 0 0 1-.82 5C84 108.62 84 108.43 84.53 109c.7.7 1.43.21 1.87-1.27 1.36-4.57 3.34-15.47 3-16.42s-1.54-1.36-4.49-1.83c-1.61-.26-4.89-.93-7.25-1.49-4.9-1.16-5.36-1.2-6-.57zm25.41 3.53a1.67 1.67 0 0 0 .1 1.78 47.63 47.63 0 0 0 5.53.45c2.86.14 6.07.34 7.13.44 1.6.16 2 .11 2.44-.31 1-1 .38-1.66-1.63-2-2.41-.35-13.32-.67-13.57-.41zm-1.35 4.63c-.54.55-.44 1.07.3 1.53.48.3 2.21.47 6 .6 2.92.09 6.76.37 8.53.6 3.39.45 4.3.3 4.3-.72a1.25 1.25 0 0 0-.38-.85c-1.18-1-17.88-2-18.73-1.16zm-.14 5a1 1 0 0 0-.09 1.71 14.86 14.86 0 0 0 3.62.8l6 .81a14 14 0 0 0 3.39.18c.74-.26 1-1.61.33-1.86-.26-.1-2.82-.52-5.71-.93l-6.1-.89a2.5 2.5 0 0 0-1.41.18zm-1.07 5.3a1 1 0 0 0-.23 1.68c.6.5 11.71 1.83 12.35 1.49a1.24 1.24 0 0 0 .53-1c0-.58-.2-.77-1.09-1-1.94-.5-10.91-1.42-11.56-1.18z"/></g></g></svg>