<svg xmlns="http://www.w3.org/2000/svg" viewBox="0 0 164.4 100.06"><path d="M157.58.15c-7 .54-9.54 1.19-9.17 2.33.25.78.93.87 3.61.5a83.56 83.56 0 0 1 9.93-.8c1.6.06 2.8-.69 2.36-1.49s-2.7-.86-6.73-.54zm-54.42.47L97.5.94c-2.19.11-2.91.57-2.38 1.5.25.43.67.5 3.1.53 1.54 0 3.6 0 4.55-.11a11.31 11.31 0 0 1 1.83-.07c.14.21-7.34 4.65-10.6 6.37-1.83 1-6.17 3.38-9.66 5.39s-7.79 4.33-9.57 5.17c-4.23 2-11.17 5.48-15.65 7.87-2 1.06-4.9 2.56-6.5 3.36C48 33.26 35.91 39.83 28 44.38c-4.05 2.32-8.41 4.8-9.71 5.52s-3.1 1.73-4 2.26-2.85 1.59-4.29 2.38-4.25 2.54-6.26 3.92C.46 60.67 0 61.05 0 61.76c-.07 1.52.84 1.24 4.85-1.5 2-1.39 4.67-3 5.83-3.65s3-1.62 4-2.23 2.84-1.62 4-2.24c2-1.06 8.71-4.9 15.39-8.77 3.18-1.84 16.79-9.12 22.29-11.92 1.75-.89 4.87-2.51 6.92-3.59s6.65-3.4 10.22-5.14 9.11-4.72 12.32-6.53S93.15 12 95 11.07s5.23-2.9 7.56-4.33 4.24-2.45 4.24-2.27-.57 2.23-1.23 4.53c-1.1 3.84-1.17 4.25-.8 4.67.71.77 1.5.28 2-1.26a63.78 63.78 0 0 0 2.37-9.18c.39-3 .52-3-6-2.63zM161 7.47c-3 .52-3.92.89-4 1.66-.18 1.15.46 1.48 2 1 .74-.2 2.1-.48 3-.62 2.17-.34 2.86-1 2-1.94-.48-.52-.75-.53-3-.15zm.93 9.58a12.87 12.87 0 0 1-2.55.14c-2.14-.06-2.59.09-2.62.87-.06 1.15.54 1.37 3.49 1.31s4.09-.52 4.15-1.67c0-.56-.11-.68-.8-.75a6.73 6.73 0 0 0-1.67.1zm1.07 6.52a15 15 0 0 1-2.63.32c-2.61.2-3.18.42-3.21 1.22 0 1 .58 1.19 3.47 1s3.72-.57 3.76-1.51c0-.61-1-1.36-1.39-1zm-31.25 7.12c-1.42 0-4.62.13-7.16.18s-6.65.17-9.2.27-9.26.08-15 0-11.67-.07-13.23.07-4 .33-5.53.43c-3.25.22-3.92.42-4.12 1.2-.08.34-.35 3.45-.59 6.93s-.47 6.33-.5 6.35c-.21.15-10.94.17-14.12 0-6.18-.28-12.76.12-13.84.83-.44.28-.5 1-.78 8l-.3 7.71-.9.09c-.49 0-5.26-.05-10.6-.22-11.25-.37-14.62-.2-15.7.79-.7.64-.71.69-1.2 7.44-.47 6.6-.5 6.8-1.06 6.89-.31.06-1.89.11-3.54.12s-4.37.14-6.08.28-3.83.23-4.72.22c-2.08 0-2.38.17-2.27 1.58.05.61 0 5.27-.21 10.34s-.22 9.4-.1 9.57c.19.33 4.36.4 10 .16 1.65-.08 4.54-.19 6.49-.26s4.91-.22 6.64-.35 7-.13 11.74 0a243.54 243.54 0 0 0 28.58-.57c2.74-.24 7-.46 9.56-.5 23.92-.37 33.34-.41 43.89-.16 10 .23 17.21.15 18.92-.22a9.39 9.39 0 0 1 1.76-.18c1.59.06 1.62 0 1.87-5 .26-5.43 1.5-21.22 2.26-28.88.3-3 1-9.73 1.51-14.92 1.07-10.38 1.42-16.15 1-16.42a1.26 1.26 0 0 1-.23-.84v-.66l-5.32-.21c-2.94-.11-6.48-.17-7.9-.12zm11.43 5.44c-.11 1.67-.64 7.39-1.18 12.71-1.84 18.33-3.37 35.89-3.73 43-.16 3.1-.22 3.42-.66 3.4a2.35 2.35 0 0 0-1.1.34c-.87.52-10.67.73-18 .4-3.19-.15-8.71-.23-12.28-.18l-9.76.12H93.2l.11-6.29a114.73 114.73 0 0 1 1.93-19.87c.48-2.57 1-6.32 1.22-8.31s.6-5.54.93-7.87c.73-5.21.73-5.33.28-6-.33-.51-.68-.54-9.72-.87l-9.37-.34.42-6.15c.27-3.39.52-6.19.57-6.24a16.71 16.71 0 0 1 2.21-.25l5.25-.4c1.71-.14 7.43-.17 12.7-.08s12.14.1 15.26 0l12.17-.34c3.56-.1 8.67-.09 11.34 0l4.85.18-.21 3zm-47.4 13.36c0 .27-.19 1.44-.38 2.61s-.61 4.56-.92 7.51-1 7.55-1.43 10.2a113.6 113.6 0 0 0-1.91 19.68L91 95.72l-.79.12c-1.08.15-12.52.25-12.65.1s0-6.13.21-13.47.35-16.82.41-21 .15-8.88.22-10.32l.12-2.63 7.61.28c4.18.16 8.08.28 8.63.26.82 0 1 .08 1 .47zm-19.56 4.62c0 3.16-.18 10.46-.31 16.26s-.32 13.92-.41 18.1l-.16 7.59-2.94.06c-1.63 0-4.66.21-6.75.38s-3.83.27-3.87.23-.59-5.49-.81-9.9c-.12-2.31-.1-8.44.05-13.62l.25-9.43-.63-.69c-.57-.64-.76-.68-2.3-.59-3.44.21-8.59.37-8.69.28s0-3.26.17-7.12l.27-7L52 48.4c1-.14 5.87-.19 10.76-.11s8.94.08 9 0a12 12 0 0 1 2.35 0l2.21.1-.08 5.74zm-17.36 19.2a176.66 176.66 0 0 0 .43 20.57 20.91 20.91 0 0 1 .16 3.06 76.12 76.12 0 0 1-9.2.36h-4l.63-10.75c.47-8.06.83-12.09 1.43-16.09.44-2.92.84-5.36.89-5.4s2-.12 4.27-.19 4.25-.18 4.31-.24a1.62 1.62 0 0 1 .7-.07c.6 0 .6 0 .38 8.74zm-12-7.2a150 150 0 0 0-2.07 21l-.48 10.26h-3c-1.64 0-5 0-7.48-.17l-4.5-.2.58-9c.54-8.43.55-9 .12-9.58s-.71-.56-4.92-.59h-4.45l.44-6.39c.24-3.53.49-6.44.56-6.5.41-.36 6.36-.46 14.54-.23 5.26.14 9.86.25 10.21.24.61 0 .63 0 .42 1.23zM27.75 88.3c-.3 4.6-.6 8.43-.68 8.5a61.77 61.77 0 0 1-6.64.58h-.6l.41-8.75.4-8.74h7.64l-.53 8.38zm-9.67.29l-.41 8.86-1.57.1c-1.59.11-6.5.3-10.64.41L3.14 98v-4.11c0-2.27.12-6.25.23-8.81.2-4.29.26-4.68.69-4.66.26 0 2.06-.08 4-.22s4.86-.28 6.5-.33l3.44-.11c.44 0 .45.56.07 8.83zm142.65-55.46c-.31 0-2.42.08-4.69.09-3.49 0-4.18.07-4.47.48-.56.81.06 1.43 1.6 1.62a71 71 0 0 0 10.72-.32 1 1 0 0 0 .24-1.55c-.3-.32-2.17-.49-3.4-.29zm.71 7.26c-2.81.76-2.95.84-3 1.76 0 1.08.64 1.18 3.33.52 2.16-.54 2.83-1.08 2.57-2.07-.21-.8-.61-.83-2.91-.21zm-.82 8.36c-2.6.43-2.92.61-2.83 1.55s.83 1 3.39.68 3.29-.74 3.22-1.74-.65-1-3.78-.49zm-.3 7.02c-2.79.37-2.87.4-2.81 1.29 0 .67.19.8 1 .93a18.09 18.09 0 0 0 5.38-.6 1 1 0 0 0 .21-1.55c-.38-.42-1.12-.43-3.79-.07zm-1.1 8.23l-4.31.38c-3.81.31-4.49.56-4.23 1.52s1 1 4.27.65c1.61-.18 4.1-.33 5.56-.36 3.41-.06 4-.23 3.89-1.23-.06-.75-.08-.76-2.27-.9a23.88 23.88 0 0 0-2.91-.06zm1.46 7.4c-2.36.15-3.07.39-3.1 1s.84 1.14 2.83 1.15c2.27 0 3.66-.29 3.92-.87s-.24-1.51-.82-1.49l-2.83.16zm-2.16 8.6c-.76.07-1.56.67-1.58 1.17a1.31 1.31 0 0 0 .39.61c.31.34 1 .42 3.23.4a16.8 16.8 0 0 0 3.33-.24 1 1 0 0 0 .24-1.55c-.31-.33-3.66-.57-5.61-.39zm.18 6.92c-2.26.3-3 .72-2.76 1.61s.62.92 3.63.59l3.64-.37c1-.09 1.5-.89 1-1.58-.39-.53-2.65-.63-5.49-.25zm3.39 7.08c-6 .41-10.65.82-11 1a1.06 1.06 0 0 0-.18 1.68c.35.33.88.35 3.11.17l6.16-.48c3.56-.26 4.18-.45 4.22-1.33a1.34 1.34 0 0 0-1.25-1.09l-1.06.08z" fill="#69ad3d" data-name="Layer 2"/></svg>