<svg xmlns="http://www.w3.org/2000/svg" viewBox="0 0 113.59 151.45"><g data-name="Layer 2"><g data-name="Layer 1"><path fill="#ffc325" d="M0 0h113.59v151.45H0z"/><path d="M18.29 136.32a2.43 2.43 0 0 1-.44.76 2.25 2.25 0 0 1-1.77.79 2.7 2.7 0 0 1 0-5.37 2.06 2.06 0 0 1 2.09 1.57l-1 .26a1.24 1.24 0 0 0-.19-.51 1.08 1.08 0 0 0-.92-.45c-.83 0-1.41.69-1.41 1.79s.61 1.81 1.42 1.81a1.16 1.16 0 0 0 1-.51 1.62 1.62 0 0 0 .26-.52zm8.5 1.55a2.16 2.16 0 0 1-1.76-.78 2.8 2.8 0 0 1-.68-1.9 2.51 2.51 0 0 1 2.45-2.69 2.7 2.7 0 0 1 0 5.37m0-4.5c-.88 0-1.47.71-1.47 1.78S26 137 26.82 137a1.53 1.53 0 0 0 1.48-1.7c0-1-.5-1.92-1.5-1.92m13.69-.75v5.12h-.93l.08-4.2-1.1 4.2h-.86l-1.11-4.2.09 4.2h-.93v-5.12h1.39l1 3.8 1-3.8zm11.47 0v5.12H51l.09-4.2-1.09 4.19h-.86l-1.14-4.2.1 4.2h-.9v-5.12h1.39l1 3.8 1-3.8zm7.69 5.12h-.94v-5.12h.94zm10.1-4.24h-1.41v4.24h-1v-4.25H66v-.88h3.75zm9.67 0H78v4.24h-1v-4.25h-1.34v-.88h3.76zm7.25 0v1.21h2.46v.82h-2.46v1.37h2.87v.86h-3.82v-5.12h3.64v.86zm10.12 0v1.21h2.46v.82h-2.46v1.37h2.87v.86h-3.82v-5.12h3.64v.86zM13.92 13.92h85.74v33.06h-28.9l28.9 28.9v23.78H75.88l-28.9-28.9v28.9H13.92V13.92zm.95 97.82h-.95v-5.12h.95zm7-5.12h.94v5.12H22l-2.25-3.59.06 3.59h-.91v-5.12h.86l2.24 3.62zm8 .87h-1.39v4.25h-.95v-4.25h-1.39v-.87h3.76zm4.19 0v1.2h2.47v.83h-2.44v1.37H37v.86h-3.85v-5.12h3.64v.86zm6.46-.86h1.63a2.32 2.32 0 0 1 1.59.37 1.57 1.57 0 0 1 .56 1.26 1.39 1.39 0 0 1-1 1.41l1.14 2.08h-1.07l-1-1.9h-.87v1.9h-1zm1 .83v1.6h1a.8.8 0 0 0 .9-.79.73.73 0 0 0-.41-.69 2.35 2.35 0 0 0-1-.11zm9.59-.83H52v5.12h-.8l-2.2-3.6.06 3.59h-.94v-5.12h.86l2.27 3.62zm7.36 4.12h-1.94l-.3 1h-1l1.72-5.12H58l1.75 5.12h-1zm-.25-.83l-.71-2.36-.71 2.36zm7.51-2.42h-1.44v4.25h-1v-4.25H62v-.87h3.76zm4.21 4.25H69v-5.12h.94zm5.92.14a2.2 2.2 0 0 1-1.76-.79 2.85 2.85 0 0 1-.68-1.9 2.51 2.51 0 0 1 2.46-2.7 2.71 2.71 0 0 1 0 5.39m0-4.51c-.88 0-1.46.71-1.46 1.78S75 111 75.87 111a1.53 1.53 0 0 0 1.48-1.7c0-1-.49-1.92-1.5-1.92m8.93-.75h1v5.12h-.84l-2.24-3.59.06 3.59h-.94v-5.12h.87l2.26 3.62zm7.36 4.12h-1.92l-.29 1h-1l1.73-5.12h1.09l1.75 5.12h-1zm-.25-.83l-.7-2.36-.71 2.36zm5.74 1h2v.87h-3v-5.12h1zm-83.71 4.3h6.94a9.53 9.53 0 0 1 3.43.44 4.22 4.22 0 0 1 2.41 4 3.86 3.86 0 0 1-1.07 2.78 4.39 4.39 0 0 1-1.79 1.07l3.39 5.62h-4.89l-2.7-4.91h-1.3v4.91h-4.42zm4.42 2.92v3.24h1.83c.73 0 2.13 0 2.13-1.6s-1.38-1.64-2.15-1.64zm10.73-2.92h11v3.06h-6.6v2.06h6.18v3h-6.18v2.76h7.21v3H29.07zm16.41 9.11a3.08 3.08 0 0 0 1.93 1.52 6.44 6.44 0 0 0 2 .32c.35 0 2.09 0 2.09-1 0-.1 0-.61-.77-.87-.5-.18-3.06-.63-3.63-.77-1.29-.34-3.79-1.12-3.79-4a4.29 4.29 0 0 1 .39-1.8c.91-2 3.26-2.86 5.77-2.86a9.38 9.38 0 0 1 4.19.89 6.58 6.58 0 0 1 2.05 1.58l-2.77 2.31a2.82 2.82 0 0 0-1-.91 6.24 6.24 0 0 0-2.58-.51c-.75 0-1.58.19-1.58.91s.71.83 1.91 1c3.09.54 6.17 1.09 6.17 4.54a4.42 4.42 0 0 1-1.25 3.14c-1.75 1.8-4.54 1.8-5.31 1.8a11.8 11.8 0 0 1-3.24-.41 7.2 7.2 0 0 1-3.87-2.65zm25.75 1.22a7.55 7.55 0 0 1-1.36 2 7.68 7.68 0 0 1-5.41 2.05c-5 0-7.23-3.75-7.23-7.32 0-3.74 2.51-7.55 7.23-7.55A7.69 7.69 0 0 1 70 117a6.72 6.72 0 0 1 1.17 1.64l-3.7 1.82a3.12 3.12 0 0 0-2.88-2.29 2.58 2.58 0 0 0-1.87.75 4.27 4.27 0 0 0-1 3.12c0 2.07.77 4 2.94 4a3 3 0 0 0 2.83-2.3zM73 115.22h4.41v8.69a2.12 2.12 0 0 0 .51 1.68 1.9 1.9 0 0 0 1.41.52 2 2 0 0 0 1.4-.5 2.13 2.13 0 0 0 .53-1.7v-8.69h4.44v7.41c0 1.6 0 3.67-1.64 5.23a6.83 6.83 0 0 1-4.77 1.66 7.1 7.1 0 0 1-4.86-1.66C73 126.52 73 125 73 123.5zm15.09 0h11v3.06h-6.6v2.06h6.17v3h-6.19v2.76h7.19v3H88.05z"/></g></g></svg>