<svg xmlns="http://www.w3.org/2000/svg" viewBox="0 0 36.16 36.16"><defs><style>.cls-1{fill:#d3d3d3;}</style></defs><title>Asset 36</title><g id="Layer_2" data-name="Layer 2"><g id="design"><path class="cls-1" d="M0,18.08V36.16H36.16V0H0V18.08Zm13.07-9.8c0,.11.06.2.12.2s.2.25.3.56.22.56.27.56a1.34,1.34,0,0,1,.26.62c.09.35.22.63.29.63s.21.3.31.69.22.7.28.7.18.25.27.56.22.55.29.55.19.28.27.63.2.62.26.62.18.25.28.56.23.56.29.56.14.21.19.48a1.58,1.58,0,0,0,.27.66,2.71,2.71,0,0,1,.36.71c.09.27.22.51.27.51a1.43,1.43,0,0,1,.27.64c.34,1.29.81,1.27,1.14-.06.11-.4.23-.72.29-.72a1.45,1.45,0,0,0,.25-.62c.08-.35.2-.63.27-.63a1.74,1.74,0,0,0,.3-.77,2,2,0,0,1,.28-.76c.06,0,.17-.28.26-.63s.2-.62.27-.62.2-.35.3-.77a2,2,0,0,1,.28-.76c.06,0,.18-.28.26-.63s.21-.62.27-.62.2-.35.3-.77a1.71,1.71,0,0,1,.29-.76c.07,0,.16-.22.21-.48a2,2,0,0,1,.33-.77c.23-.27.4-.28,3.53-.28,2.91,0,3.29,0,3.29.22A3.56,3.56,0,0,1,28.86,9.6a2.33,2.33,0,0,0-.54.43l-.43.44V25L29,26.07A7.23,7.23,0,0,1,30,27.27a39.77,39.77,0,0,1-4.87.13,39.26,39.26,0,0,1-4.86-.13A7.65,7.65,0,0,1,21.42,26L22.53,25V19.26c0-4.07-.06-5.56-.16-5.21a1.36,1.36,0,0,1-.24.55,2.68,2.68,0,0,0-.28.8c-.09.41-.21.73-.27.73a1.77,1.77,0,0,0-.29.7,1.69,1.69,0,0,1-.29.69c-.06,0-.17.31-.27.7a1.64,1.64,0,0,1-.26.7c-.06,0-.18.3-.29.69s-.24.7-.3.7a1.68,1.68,0,0,0-.27.76,1.91,1.91,0,0,1-.27.77c-.06,0-.18.27-.26.62s-.21.63-.27.63-.2.35-.3.76a1.79,1.79,0,0,1-.29.77c-.06,0-.17.28-.25.62s-.21.63-.28.63a1.72,1.72,0,0,0-.29.77c-.17.75-.18.77-.6.73a.54.54,0,0,1-.56-.46,1.88,1.88,0,0,0-.31-.59,1.35,1.35,0,0,1-.27-.59c-.06-.24-.14-.42-.2-.42a1.44,1.44,0,0,1-.28-.62c-.1-.35-.22-.63-.28-.63s-.19-.25-.29-.56-.22-.55-.27-.55a1.45,1.45,0,0,1-.25-.63c-.1-.34-.23-.62-.3-.62s-.2-.31-.3-.7a1.6,1.6,0,0,0-.28-.69s-.18-.24-.27-.52a2.47,2.47,0,0,0-.36-.7,1.57,1.57,0,0,1-.27-.67c-.05-.26-.14-.48-.19-.48s-.19-.25-.29-.55-.23-.56-.28-.56-.18-.28-.26-.63-.21-.62-.28-.62-.17-.18-.22-.42a1.48,1.48,0,0,0-.27-.59,1.88,1.88,0,0,1-.32-.59c-.11-.32-.15.72-.16,4.24,0,4.48.08,5.7.42,5.7.07,0,.17.11.22.25a2.87,2.87,0,0,0,.55.68,2.19,2.19,0,0,1,.46.56,1.71,1.71,0,0,0,.42.51,1.27,1.27,0,0,1,.42.58.31.31,0,0,0,.21.25.4.4,0,0,1,.2.36c0,.28-.06.29-3.61.29s-3.62,0-3.62-.29a.41.41,0,0,1,.21-.36.33.33,0,0,0,.21-.25,1.27,1.27,0,0,1,.42-.58A1.78,1.78,0,0,0,7,25.41a2.33,2.33,0,0,1,.49-.57,1.94,1.94,0,0,0,.49-.59c0-.08.12-.23.27-.36a1.52,1.52,0,0,0,.35-.83c0-.33.07-3.07,0-6.07,0-5-.07-5.49-.29-5.65A.53.53,0,0,1,8.07,11a.59.59,0,0,0-.26-.34,1.48,1.48,0,0,1-.42-.5,3.53,3.53,0,0,0-.56-.69,2,2,0,0,1-.71-1.2c0-.2.42-.22,3.48-.22s3.47,0,3.47.21Z"/></g></g></svg>