<svg xmlns="http://www.w3.org/2000/svg" viewBox="0 0 118 74.62"><path d="M56.51 1.12c-1.63.61-5.17 2.05-7.85 3.2C44.72 6 24.92 13.88 3.57 22.24.59 23.4 0 23.87 0 25s.42 1.47 5.65 2.38a83.3 83.3 0 0 1 9.22 2.15c2 .63 4.48 1.36 5.59 1.6l2 .45-.42 7.82c-.23 4.28-.47 8.72-.54 9.81-.11 2-.06 2 5.54 4.54 16.65 7.48 27.76 9 43.18 6 4.11-.81 7.73-1.48 8-1.48s.59 3.66.69 8.18c.17 7.73.24 8.18 1.36 8.18s1.2-.48 1.37-8.81l.18-8.8 1.61-.59a95.17 95.17 0 0 0 10.59-5.35c1.17-1 2.17-8.81 1.85-14.53a29.25 29.25 0 0 1 .13-6.46c.28-.74 3.84-2.54 10.79-5.47 5.72-2.41 10.64-4.78 11-5.27.91-1.44-.62-2.46-5.32-3.55-2.3-.53-7-1.77-10.41-2.75-8.75-2.5-22.93-6-24.45-6-.69 0-4.61 1.42-8.78 3.18s-11.39 4.6-16.15 6.33c-10.17 3.72-11.89 4.54-11.89 5.66s1.84 2.08 3.74 2.08a47.23 47.23 0 0 1 7.32 1.79 40.9 40.9 0 0 0 8 1.75C62.4 27.86 72 23.21 72 22c0-1.59-2.5-1.29-7.2.87a27.56 27.56 0 0 1-5.53 2.08 46.77 46.77 0 0 1-6-1.67l-5-1.64 7.08-2.55c3.9-1.41 10.47-4 14.63-5.77l7.56-3.22 12.67 3.26c15.46 4 20.32 5.26 20.64 5.49.59.41.53.44-33.25 14.57C62 39.94 59.2 41 57.82 41a15 15 0 0 1-4.16-1.57c-5.38-2.72-21.24-8.51-28.38-10.37s-16.76-4.61-17.07-4.9c-.1-.09 7.55-3.2 17-6.89C46.28 9 60.55 3 61.08 2.16c.39-.6-.52-2.2-1.24-2.16-.2 0-1.66.51-3.33 1.12zM92.8 35.83a32.2 32.2 0 0 1-.39 9l-.8 4.08-4.46 2.26c-2.44 1.23-4.6 2.07-4.76 1.84a72.59 72.59 0 0 1 0-9.28l.29-8.86 4.47-2c2.43-1.08 4.63-2 4.84-2s.58 2.17.81 4.91zm-63.89-2.5c7.38 2.41 19.34 7 23.38 8.94a28 28 0 0 0 5.8 2.31 92.32 92.32 0 0 0 10.44-3.93l10.11-4.22c.55-.23.63 1.81.36 8.83-.2 5-.43 9.22-.51 9.34s-3.18.88-6.87 1.7C62.34 58.36 51 58.47 44 56.56a96.76 96.76 0 0 1-15.41-5.65l-4-1.81.33-2.1a73.05 73.05 0 0 0 .36-8.23c0-6.61 0-6.61 3.63-5.42z" fill="#fff" data-name="Layer 2"/></svg>