<svg xmlns="http://www.w3.org/2000/svg" viewBox="0 0 437.07 57.22"><defs><style>.cls-1{fill:#fec938;}.cls-2{fill:#fff;}</style></defs><title>Asset 34</title><g id="Layer_2" data-name="Layer 2"><g id="design"><path class="cls-1" d="M90.27,45.49c0,2.28-1.4,3.52-3.94,3.52H82v4.06H80V42h6.31C88.87,42,90.27,43.22,90.27,45.49Zm-2,0c0-1.22-.72-1.81-2.2-1.81H82v3.63h4.06C87.53,47.31,88.25,46.73,88.25,45.49Z"/><path class="cls-1" d="M92.83,42.31A1.16,1.16,0,1,1,94,43.42,1.08,1.08,0,0,1,92.83,42.31ZM93,44.87h1.89v8.2H93Z"/><path class="cls-1" d="M97.67,49c0-2.58,1.86-4.31,4.64-4.31S107,46.4,107,49s-1.86,4.28-4.65,4.28S97.67,51.55,97.67,49ZM105,49a2.72,2.72,0,1,0-2.72,2.65A2.54,2.54,0,0,0,105,49Z"/><path class="cls-1" d="M118,47.79v5.28h-1.89V48.16a1.64,1.64,0,0,0-1.84-1.86,3.28,3.28,0,0,0-2.69,1.41v5.36h-1.89v-8.2h1.89v1.55a4,4,0,0,1,3.36-1.75A2.83,2.83,0,0,1,118,47.79Z"/><path class="cls-1" d="M122.55,49.55c.24,1.35,1.37,2.1,3.19,2.1a5,5,0,0,0,2.94-.91l.63,1.48a6.39,6.39,0,0,1-3.7,1c-3.13,0-5-1.63-5-4.28s1.86-4.31,4.63-4.31a4.14,4.14,0,0,1,4.5,4.31,5.62,5.62,0,0,1,0,.57Zm0-1.4h5.26a2.48,2.48,0,0,0-2.62-1.89A2.52,2.52,0,0,0,122.6,48.15Z"/><path class="cls-1" d="M133.89,49.55c.24,1.35,1.37,2.1,3.19,2.1a5,5,0,0,0,2.94-.91l.63,1.48a6.37,6.37,0,0,1-3.7,1c-3.13,0-5-1.63-5-4.28s1.86-4.31,4.63-4.31a4.14,4.14,0,0,1,4.5,4.31,5.62,5.62,0,0,1,0,.57Zm.05-1.4h5.26a2.48,2.48,0,0,0-2.62-1.89A2.52,2.52,0,0,0,133.94,48.15Z"/><path class="cls-1" d="M149.78,44.74l-.12,1.81a5.31,5.31,0,0,0-.91-.08A3.63,3.63,0,0,0,145.64,48v5.09h-1.89v-8.2h1.89v1.74a3.86,3.86,0,0,1,3.47-1.94A2.87,2.87,0,0,1,149.78,44.74Z"/><path class="cls-1" d="M152,42.31a1.16,1.16,0,1,1,1.16,1.11A1.09,1.09,0,0,1,152,42.31Zm.22,2.56h1.89v8.2h-1.89Z"/><path class="cls-1" d="M165.65,47.79v5.28h-1.89V48.16a1.65,1.65,0,0,0-1.85-1.86,3.27,3.27,0,0,0-2.68,1.41v5.36h-1.89v-8.2h1.89v1.55a4,4,0,0,1,3.35-1.75A2.84,2.84,0,0,1,165.65,47.79Z"/><path class="cls-1" d="M177.17,44.87v7.41c0,2.66-1.67,4.08-4.75,4.08a7,7,0,0,1-3.56-.87l.58-1.49a5.44,5.44,0,0,0,2.81.75c2,0,3-.88,3-2.61v-.77a3.72,3.72,0,0,1-3.18,1.75c-2.27,0-3.85-1.72-3.85-4.22s1.58-4.23,3.85-4.23a3.72,3.72,0,0,1,3.18,1.75V44.87Zm-1.89,2.84a3.4,3.4,0,0,0-2.69-1.41,2.33,2.33,0,0,0-2.4,2.6,2.33,2.33,0,0,0,2.4,2.59,3.4,3.4,0,0,0,2.69-1.41Z"/><path class="cls-1" d="M185.59,47.56c0-3.52,2.41-5.77,6.19-5.77A7.12,7.12,0,0,1,195.86,43l-.64,1.61a6.11,6.11,0,0,0-3.36-1c-2.62,0-4.25,1.58-4.25,4s1.68,4,4.38,4a6.12,6.12,0,0,0,3.54-1.09l.72,1.63a7.51,7.51,0,0,1-4.37,1.22C188,53.26,185.59,51.06,185.59,47.56Z"/><path class="cls-1" d="M207.21,47.79v5.28h-1.89V48.16a1.64,1.64,0,0,0-1.84-1.86,3.28,3.28,0,0,0-2.69,1.41v5.36H198.9V41.5h1.89v4.92a4,4,0,0,1,3.36-1.75A2.83,2.83,0,0,1,207.21,47.79Z"/><path class="cls-1" d="M218.24,48.47v4.6h-1.89V51.52a4.37,4.37,0,0,1-3.6,1.74c-1.87,0-3-1-3-2.59s1.21-2.59,3.28-2.59a7.09,7.09,0,0,1,3.35.82v-.3c0-1.58-.83-2.31-2.62-2.31a5.23,5.23,0,0,0-2.89.81l-.68-1.43a6.93,6.93,0,0,1,3.83-1C216.94,44.67,218.24,45.85,218.24,48.47Zm-1.89,1.68a6.37,6.37,0,0,0-2.85-.67c-1.22,0-1.84.39-1.84,1.14s.57,1.13,1.61,1.13a3.9,3.9,0,0,0,3.08-1.42Z"/><path class="cls-1" d="M229.62,47.79v5.28h-1.89V48.16a1.65,1.65,0,0,0-1.85-1.86,3.27,3.27,0,0,0-2.68,1.41v5.36h-1.89v-8.2h1.89v1.55a4,4,0,0,1,3.35-1.75A2.84,2.84,0,0,1,229.62,47.79Z"/><path class="cls-1" d="M241.14,44.87v7.41c0,2.66-1.67,4.08-4.75,4.08a7,7,0,0,1-3.56-.87l.58-1.49a5.44,5.44,0,0,0,2.81.75c2,0,3-.88,3-2.61v-.77a3.72,3.72,0,0,1-3.18,1.75c-2.27,0-3.85-1.72-3.85-4.22s1.58-4.23,3.85-4.23a3.72,3.72,0,0,1,3.18,1.75V44.87Zm-1.89,2.84a3.4,3.4,0,0,0-2.69-1.41,2.33,2.33,0,0,0-2.4,2.6,2.33,2.33,0,0,0,2.4,2.59,3.4,3.4,0,0,0,2.69-1.41Z"/><path class="cls-1" d="M245.81,49.55c.25,1.35,1.37,2.1,3.2,2.1a5,5,0,0,0,2.93-.91l.64,1.48a6.39,6.39,0,0,1-3.7,1c-3.13,0-5-1.63-5-4.28s1.85-4.31,4.62-4.31A4.14,4.14,0,0,1,253,49c0,.18,0,.37,0,.57Zm.05-1.4h5.26a2.48,2.48,0,0,0-2.62-1.89A2.52,2.52,0,0,0,245.86,48.15Z"/><path class="cls-1" d="M264.44,44.87h3.09v1.48h-3.09v6.72h-1.89V46.35h-2.16V44.87h2.16V44.1c0-1.87,1-2.8,2.95-2.8a4.71,4.71,0,0,1,2.24.51l-.42,1.43a3.52,3.52,0,0,0-1.5-.34c-1,0-1.38.41-1.38,1.32Z"/><path class="cls-1" d="M269.34,49c0-2.58,1.86-4.31,4.64-4.31s4.65,1.73,4.65,4.31-1.86,4.28-4.65,4.28S269.34,51.55,269.34,49Zm7.37,0A2.73,2.73,0,1,0,274,51.63,2.54,2.54,0,0,0,276.71,49Z"/><path class="cls-1" d="M287.39,44.74l-.11,1.81a5.31,5.31,0,0,0-.91-.08A3.63,3.63,0,0,0,283.26,48v5.09h-1.89v-8.2h1.89v1.74a3.86,3.86,0,0,1,3.47-1.94A2.78,2.78,0,0,1,287.39,44.74Z"/><path class="cls-1" d="M305.82,45.49c0,2.28-1.4,3.52-3.94,3.52h-4.33v4.06h-2V42h6.31C304.42,42,305.82,43.22,305.82,45.49Zm-2,0c0-1.22-.71-1.81-2.2-1.81h-4.05v3.63h4.05C303.09,47.31,303.8,46.73,303.8,45.49Z"/><path class="cls-1" d="M309.91,49.55c.25,1.35,1.37,2.1,3.2,2.1a5,5,0,0,0,2.93-.91l.64,1.48a6.39,6.39,0,0,1-3.7,1c-3.13,0-5-1.63-5-4.28s1.86-4.31,4.63-4.31A4.13,4.13,0,0,1,317.08,49c0,.18,0,.37,0,.57Zm0-1.4h5.27a2.78,2.78,0,0,0-5.27,0Z"/><path class="cls-1" d="M319.3,49c0-2.58,1.86-4.31,4.64-4.31s4.65,1.73,4.65,4.31-1.86,4.28-4.65,4.28S319.3,51.55,319.3,49Zm7.36,0a2.72,2.72,0,1,0-2.72,2.65A2.54,2.54,0,0,0,326.66,49Z"/><path class="cls-1" d="M340.22,49c0,2.54-1.56,4.28-3.85,4.28a3.67,3.67,0,0,1-3.16-1.74v4.64h-1.89V44.87h1.89v1.55a3.68,3.68,0,0,1,3.16-1.75C338.66,44.67,340.22,46.42,340.22,49Zm-1.92,0a2.4,2.4,0,0,0-2.41-2.68,3.33,3.33,0,0,0-2.68,1.41v2.52a3.27,3.27,0,0,0,2.68,1.4A2.38,2.38,0,0,0,338.3,49Z"/><path class="cls-1" d="M343,41.5h1.89V53.07H343Z"/><path class="cls-1" d="M349.57,49.55c.25,1.35,1.37,2.1,3.2,2.1a5,5,0,0,0,2.93-.91l.64,1.48a6.39,6.39,0,0,1-3.7,1c-3.13,0-5-1.63-5-4.28s1.85-4.31,4.62-4.31a4.14,4.14,0,0,1,4.5,4.31c0,.18,0,.37,0,.57Zm.05-1.4h5.26a2.48,2.48,0,0,0-2.62-1.89A2.52,2.52,0,0,0,349.62,48.15Z"/><path class="cls-1" d="M364.79,42.31A1.16,1.16,0,1,1,366,43.42,1.08,1.08,0,0,1,364.79,42.31Zm.21,2.56h1.89v8.2H365Z"/><path class="cls-1" d="M378.46,47.79v5.28h-1.89V48.16a1.64,1.64,0,0,0-1.84-1.86A3.28,3.28,0,0,0,372,47.71v5.36h-1.89v-8.2H372v1.55a4,4,0,0,1,3.36-1.75A2.83,2.83,0,0,1,378.46,47.79Z"/><path class="cls-1" d="M386.75,47.56c0-3.52,2.42-5.77,6.2-5.77A7.07,7.07,0,0,1,397,43l-.63,1.61a6.11,6.11,0,0,0-3.36-1c-2.63,0-4.25,1.58-4.25,4s1.67,4,4.38,4a6.14,6.14,0,0,0,3.54-1.09l.71,1.63A7.51,7.51,0,0,1,393,53.26C389.15,53.26,386.75,51.06,386.75,47.56Z"/><path class="cls-1" d="M406.1,44.74,406,46.55a5.31,5.31,0,0,0-.91-.08A3.63,3.63,0,0,0,402,48v5.09h-1.89v-8.2H402v1.74a3.86,3.86,0,0,1,3.47-1.94A2.87,2.87,0,0,1,406.1,44.74Z"/><path class="cls-1" d="M408.3,42.31a1.16,1.16,0,1,1,1.15,1.11A1.08,1.08,0,0,1,408.3,42.31Zm.21,2.56h1.89v8.2h-1.89Z"/><path class="cls-1" d="M413,52.07l.7-1.38a6.62,6.62,0,0,0,3.71,1.06c1.42,0,2.17-.36,2.17-1s-.46-.8-2.36-1c-2.89-.26-3.85-.88-3.85-2.54s1.49-2.58,3.9-2.58a6.67,6.67,0,0,1,3.74,1L420.34,47a5.58,5.58,0,0,0-3.07-.81c-1.3,0-2,.34-2,1s.47.8,2.38,1c2.85.24,3.83.88,3.83,2.54s-1.45,2.59-4.09,2.59A7.79,7.79,0,0,1,413,52.07Z"/><path class="cls-1" d="M423.89,42.31a1.16,1.16,0,1,1,1.16,1.11A1.08,1.08,0,0,1,423.89,42.31Zm.21,2.56H426v8.2H424.1Z"/><path class="cls-1" d="M428.58,52.07l.7-1.38A6.63,6.63,0,0,0,433,51.75c1.41,0,2.16-.36,2.16-1s-.45-.8-2.36-1c-2.88-.26-3.84-.88-3.84-2.54s1.48-2.58,3.89-2.58a6.71,6.71,0,0,1,3.75,1L435.93,47a5.57,5.57,0,0,0-3.06-.81c-1.31,0-2,.34-2,1s.47.8,2.38,1c2.85.24,3.83.88,3.83,2.54s-1.45,2.59-4.09,2.59A7.81,7.81,0,0,1,428.58,52.07Z"/><path class="cls-2" d="M109.3,34.26a1.08,1.08,0,0,1-.48.13h-5c-.69,0-1.29.09-2.15.13a1.8,1.8,0,0,1-1-1.16c-.34-1-.69-1.93-1.08-3a5.5,5.5,0,0,1-.34-.69,79.72,79.72,0,0,0-10,0c-.61,1.21-1.12,2.54-1.81,4.13a4.74,4.74,0,0,0-.69.47,1.16,1.16,0,0,1-.34.09c-.56,0-1.25,0-1.85,0s-1.12.09-1.77.13a4.47,4.47,0,0,1-1.55,0c-.38,0-.86,0-1.25,0a.93.93,0,0,1-1-.26A7.46,7.46,0,0,1,79.4,32c.73-2,1.24-4.13,2-6.1.69-2.24,1.42-4.48,2.28-6.72.61-1.76,1.21-3.48,1.94-5.2a13.93,13.93,0,0,0,.56-1.81,65.4,65.4,0,0,1,2.62-6.67A1.58,1.58,0,0,1,90.5,4.41c1.93,0,4,0,5.85-.09.6,0,1.24.09,1.76.09a1.51,1.51,0,0,1,1.46.94,8.7,8.7,0,0,1,.52,1.34,72.39,72.39,0,0,1,3,7.66c.6,1.72,1.12,3.44,1.68,5.16,1,3,1.94,5.94,3.18,8.77.35,1,.61,2.07,1,3.1a10.27,10.27,0,0,1,.73,2.2A3.9,3.9,0,0,1,109.3,34.26ZM92.56,21.31a10.42,10.42,0,0,0,3.74-.08c-.64-1.85-1.33-3.62-2.06-5.47C93.55,16.63,93,18.48,92.56,21.31Z"/><path class="cls-2" d="M115.26,34.39c-.43,0-.43,0-1.2-.51,0-.78,0-1.55,0-2.24V27.17a4.06,4.06,0,0,0,0-.78,13.57,13.57,0,0,1,0-2.92c0-1.38.09-2.76,0-4.18a11.48,11.48,0,0,1,0-2.41c0-.51,0-1.12,0-1.72,0-.86-.09-1.8,0-2.71a15.3,15.3,0,0,0,0-4,10.47,10.47,0,0,1,.09-2.84,1.32,1.32,0,0,1,1.46-1.2h1.59c1.21.08,2.41.21,3.53.38h.43a1.54,1.54,0,0,1,1.46,1,8,8,0,0,1,.26,1.16V10a11.09,11.09,0,0,0,.13,2.71,2,2,0,0,1,.09.91c0,2.84,0,5.63,0,8.47s0,5.94,0,8.82c0,1-.18,2-.22,3.1A50.15,50.15,0,0,1,115.26,34.39Z"/><path class="cls-2" d="M138.34,23a1.13,1.13,0,0,0-.22,1.16A3.13,3.13,0,0,1,138,25.7a9.65,9.65,0,0,0,0,1.08V31c0,.91.09,1.68.09,2.71a3.16,3.16,0,0,0-.47.69,25.77,25.77,0,0,1-5.81.17h-1c-.69,0-.69,0-1.59-.6,0-1.29,0-2.54,0-3.91,0-2.72,0-5.38,0-8.14V6.47a2.16,2.16,0,0,1,.35-1.42,1.29,1.29,0,0,1,.47-.17c.86,0,1.68-.09,2.63-.09h7.61c.52,0,1,0,1.59.09a8.16,8.16,0,0,0,1,0,22.81,22.81,0,0,1,5.42.13,5.07,5.07,0,0,1,1.68.47c.35.13.86.35,1.21.52a6.07,6.07,0,0,1,3.22,3.7,11.12,11.12,0,0,1,.48,5.42,14,14,0,0,1-1.12,3.79,4.51,4.51,0,0,1-2.32,2.53,1.83,1.83,0,0,1-.43.35,12.22,12.22,0,0,0,1.16,2,30.33,30.33,0,0,1,2,3.66c.82,1.55,1.59,3.05,2.45,4.73a4.09,4.09,0,0,1,.17,1.85,2.23,2.23,0,0,1-1.46.09,4,4,0,0,0-1.85-.26c-1.59,0-3.23-.05-4.73-.05a1.26,1.26,0,0,1-1.12-.38,44.3,44.3,0,0,0-2.75-5.17,8.29,8.29,0,0,1-.56-1.16,3.72,3.72,0,0,0-.43-.77,5.32,5.32,0,0,1-.82-1.46,9.06,9.06,0,0,0-1.29-2.33A11.21,11.21,0,0,0,138.34,23Zm.73-6.54c1.12,0,2.15,0,3.18,0a12.25,12.25,0,0,1,1.29-.13,2,2,0,0,0,1.72-1.42,2.52,2.52,0,0,0-.94-2.88,14,14,0,0,0-6,.12v4.22A2.68,2.68,0,0,0,139.07,16.41Z"/><path class="cls-2" d="M162.76,4.79c1.16,0,2.41,0,3.57,0,.95,0,1.76,0,2.71,0h.9c1.38.09,2.63,0,4,0s3-.18,4.61,0a25.47,25.47,0,0,1,4.26.39,5.19,5.19,0,0,1,4.13,4.65c.08.81,0,1.72.08,2.54a7.41,7.41,0,0,1-.6,2.19c0,.26-.3.47-.52.69a19.61,19.61,0,0,1-2.79,3.1.36.36,0,0,0-.13.21c0,.35.39.26.52.35a7.62,7.62,0,0,1,2.66,1.72,6.14,6.14,0,0,1,2.11,4.56,8.4,8.4,0,0,1-1,4.51.4.4,0,0,0-.13.31,5.24,5.24,0,0,1-2.75,2.75,4.8,4.8,0,0,1-.61.17c-.47,0-.77.39-1.12.52a3.18,3.18,0,0,0-2.28.13,4.3,4.3,0,0,1-1.93.25,3.52,3.52,0,0,0-1.89.22,1.36,1.36,0,0,1-.74.09h-12.6a2.91,2.91,0,0,1-1.68-.48,1.79,1.79,0,0,1,0-1.33,4.57,4.57,0,0,0,.17-1.59V27c-.08-.9-.21-1.72-.21-2.62-.09-2-.09-4-.13-6,0-1.33-.09-2.62-.13-3.87-.17-1.94-.09-3.79-.09-5.64a16.56,16.56,0,0,1-.08-2,3.42,3.42,0,0,1,.34-1.68A2.16,2.16,0,0,1,162.76,4.79Zm7.87,10.46a2.69,2.69,0,0,0,.13.77c1.12-.08,2.11-.13,3.1-.21a23.73,23.73,0,0,0,3-.17c1.16-1.17,1.29-1.55.6-3.23a3.6,3.6,0,0,0-1.77-1.25,39,39,0,0,0-5,.26Zm7.44,8.22a2.4,2.4,0,0,0-1.24-1.29,21.65,21.65,0,0,0-2.89.08c-1.07.09-2.15-.17-3.14.3a3.24,3.24,0,0,0-.13,1.55c0,.65.09,1.21.13,1.77s0,1.07.3,1.5c.22,0,.43.09.61,0a18.58,18.58,0,0,1,2.71-.13h1.72a2.41,2.41,0,0,0,1.59-.6A4.09,4.09,0,0,0,178.07,23.47Z"/><path class="cls-2" d="M216.71,33.36a2.34,2.34,0,0,1-2.15,1,12.53,12.53,0,0,1-2.2.22,6.61,6.61,0,0,1-1.33-.09,17.52,17.52,0,0,0-1.94-.13c-2.06.22-4.08,0-6.15.09a2,2,0,0,1-.73-.09,18.5,18.5,0,0,0-5.08-.21c-.86,0-1.59,0-2.36,0a1.16,1.16,0,0,1-1-.69c0-.69-.08-1.51-.08-2.28,0-2.37-.05-4.78-.05-7.1V12c0-.95-.08-1.81-.08-2.62a.68.68,0,0,1,0-.3c0-1.29.12-2.63.12-3.83a1.68,1.68,0,0,1,1.08-.78,3.48,3.48,0,0,1,.86-.08C198.21,4.28,201,4,203.8,4a43.12,43.12,0,0,0,6.11-.13,13.47,13.47,0,0,1,3.53.09,4.78,4.78,0,0,0,1.33,0c.48.08.82.08,1.21.17a5,5,0,0,1,.3,1,28.54,28.54,0,0,1,.13,5.38,5.14,5.14,0,0,1-.17.64,22.75,22.75,0,0,1-2.89.35c-2.23,0-4.51,0-6.75.13a23.72,23.72,0,0,0-3.1.21,5,5,0,0,0-.13,3.36,1,1,0,0,0,.65.3c1.8.09,3.7.21,5.55.13,1.24,0,2.41,0,3.61,0A1.91,1.91,0,0,1,214,18a4.31,4.31,0,0,0-.13,1.12v2a6.24,6.24,0,0,1-.17.69c-.26.08-.52.21-.82.3-.56,0-1.16,0-1.72.09-.13,0-.26.08-.39,0a6.54,6.54,0,0,0-2.75-.05c-.26,0-.52,0-.73,0-1.21,0-2.46,0-3.75,0a2.23,2.23,0,0,0-.3.22,1.72,1.72,0,0,0,0,.64,32.77,32.77,0,0,0,.13,3.57c0,.05.13.09.13.09a2.38,2.38,0,0,1,1,.13c.26,0,.56.13.86.13a13.22,13.22,0,0,0,1.89-.09,18.71,18.71,0,0,1,4.61,0,15.31,15.31,0,0,0,4,0c.21-.13.47.13.77.13A39.14,39.14,0,0,1,216.71,33.36Z"/><path class="cls-2" d="M231.38,4.54a46.13,46.13,0,0,1,.52,8.39v5.24c.08,2.07.21,4,.34,6a15.68,15.68,0,0,0,.13,1.6,2.58,2.58,0,0,0,1.68.17c1.37,0,2.66-.17,4.13-.22,1.89-.13,3.83-.17,5.76-.25h.39a1.25,1.25,0,0,1,1.12.81,6,6,0,0,1,.17,1.12c0,1.81,0,3.49,0,5.21,0,.21-.09.43-.09.73a2.52,2.52,0,0,1-1.54.51c-2.2.18-4.39.35-6.63.35-1.64,0-3.31.08-5,.08-.65,0-1.3,0-2-.08-.47,0-1,0-1.59,0a32.92,32.92,0,0,1-4.56.08,11.6,11.6,0,0,1-1.29-.12,2.12,2.12,0,0,1-.77-1.85c0-1.73,0-3.45-.09-5.12,0-4.22,0-8.48.09-12.7a2.75,2.75,0,0,1,0-.86c.25-2.36.08-4.64.25-6.92a6.18,6.18,0,0,0,0-1.29,1.19,1.19,0,0,1,.95-1c.52,0,1.08-.09,1.59-.09a8.41,8.41,0,0,0,2.76-.22H228a8.24,8.24,0,0,0,1.42.18,7.88,7.88,0,0,0,1.34-.18C231,4.32,231.25,4.41,231.38,4.54Z"/><path class="cls-2" d="M284.08,11.81a5.68,5.68,0,0,1-.52.64,19.61,19.61,0,0,1-4.47,2c-.86.09-1.59.22-2.32.26a2.18,2.18,0,0,1-1.12-.73,4.61,4.61,0,0,0-3.14-1.81,6.25,6.25,0,0,0-4,1,5,5,0,0,0-1.5,1.68,10.94,10.94,0,0,0-1.25,2.58,8.46,8.46,0,0,0-.47,4.26,13.65,13.65,0,0,1,.38,2.06A4.55,4.55,0,0,0,270,27.17c.34.08.6,0,.82.08a5.83,5.83,0,0,0,4.47-1.72,21.34,21.34,0,0,0,2.76-3.18,4,4,0,0,1,.6-.65,12.41,12.41,0,0,1,1.33.48c1.64.64,3.14,1.2,4.78,1.67a1.11,1.11,0,0,1,.82,1.55.57.57,0,0,1-.13.39,12.12,12.12,0,0,1-2.2,3.61c-.34.3-.47.78-.82,1.08a11.75,11.75,0,0,1-6.88,4c-.39.13-.77.26-1.33.47h-3.06a21.5,21.5,0,0,1-4.39-.47A10.23,10.23,0,0,1,262,31.77a19.22,19.22,0,0,1-2.49-3.49c-.34-.64-.73-1.24-1.08-1.93a9.09,9.09,0,0,1-1.07-4.56V19.51c0-.35-.13-.69.08-1a6.79,6.79,0,0,0,.22-2.19c.21-.73.39-1.34.52-1.85A26.58,26.58,0,0,1,259.86,10a12.12,12.12,0,0,1,4.08-4.35,14.4,14.4,0,0,1,2.2-1c.43-.21.86-.3,1.29-.52A6.86,6.86,0,0,1,271,3.59c.52,0,1.12,0,1.72,0a22.94,22.94,0,0,1,7,2.41c.13,0,.21.17.38.21A17.4,17.4,0,0,1,284,10.9a5.44,5.44,0,0,1,.22.52A2.52,2.52,0,0,1,284.08,11.81Z"/><path class="cls-2" d="M312.1,33.36a2.34,2.34,0,0,1-2.15,1,12.53,12.53,0,0,1-2.2.22,6.61,6.61,0,0,1-1.33-.09,17.52,17.52,0,0,0-1.94-.13c-2.06.22-4.08,0-6.15.09a2,2,0,0,1-.73-.09,18.5,18.5,0,0,0-5.08-.21c-.86,0-1.59,0-2.36,0a1.16,1.16,0,0,1-1-.69c0-.69-.08-1.51-.08-2.28,0-2.37-.05-4.78-.05-7.1V12c0-.95-.08-1.81-.08-2.62a.68.68,0,0,1,0-.3c0-1.29.12-2.63.12-3.83a1.68,1.68,0,0,1,1.08-.78,3.48,3.48,0,0,1,.86-.08c2.67-.13,5.42-.39,8.26-.39a43.12,43.12,0,0,0,6.11-.13,13.47,13.47,0,0,1,3.53.09,4.78,4.78,0,0,0,1.33,0c.48.08.82.08,1.21.17a5,5,0,0,1,.3,1,28.54,28.54,0,0,1,.13,5.38,5.14,5.14,0,0,1-.17.64,22.75,22.75,0,0,1-2.89.35c-2.23,0-4.51,0-6.75.13a23.72,23.72,0,0,0-3.1.21,5,5,0,0,0-.13,3.36,1,1,0,0,0,.65.3c1.8.09,3.7.21,5.55.13,1.24,0,2.41,0,3.61,0a1.91,1.91,0,0,1,.82,2.32,4.31,4.31,0,0,0-.13,1.12v2a6.24,6.24,0,0,1-.17.69c-.26.08-.52.21-.82.3-.56,0-1.16,0-1.72.09-.13,0-.26.08-.39,0a6.54,6.54,0,0,0-2.75-.05c-.26,0-.52,0-.73,0-1.21,0-2.46,0-3.75,0a2.23,2.23,0,0,0-.3.22,1.72,1.72,0,0,0,0,.64,32.77,32.77,0,0,0,.13,3.57c0,.05.13.09.13.09a2.38,2.38,0,0,1,1,.13c.26,0,.56.13.86.13a13.22,13.22,0,0,0,1.89-.09,18.71,18.71,0,0,1,4.61,0,15.31,15.31,0,0,0,4,0c.21-.13.47.13.77.13A39.14,39.14,0,0,1,312.1,33.36Z"/><path class="cls-2" d="M316.34,29V18.78c0-4,.05-7.83.05-11.71a1.88,1.88,0,0,1,.9-1.8,24.85,24.85,0,0,1,7.36,0c.68.78,1.37,1.47,2,2.24.82,1,1.68,2.2,2.54,3.23q3,3.54,5.81,7c.25.13.34.39.6.6a6.52,6.52,0,0,0,0-1.8,17.11,17.11,0,0,1-.17-2.54V10.3c-.09-1-.22-2.28-.3-3.31V6a5.28,5.28,0,0,0,.56-.69c2.62-.09,5.2-.09,7.87,0a1.74,1.74,0,0,1,.17.65,13.86,13.86,0,0,1,0,1.46,5.07,5.07,0,0,0,.51,2.37,10.18,10.18,0,0,0,0,3.61,1.93,1.93,0,0,1,0,.86,4.41,4.41,0,0,0,0,2c-.21.82.09,1.81-.13,2.67a7.36,7.36,0,0,0,.13,1.59c.09.52-.3,1-.13,1.51a.72.72,0,0,1,.09.51c-.39,1.55.21,3.23-.09,4.86a9.09,9.09,0,0,0,.09,2.84,10.31,10.31,0,0,1-.26,4.13,5.18,5.18,0,0,1-1.89.35c-1.51.09-3.06.09-4.56.09a2.41,2.41,0,0,1-1.9-.87c-.6-.86-1.2-1.54-1.76-2.32-1.12-1.46-2.07-3.05-3.14-4.39a30.94,30.94,0,0,1-2.8-3.78,1.2,1.2,0,0,0-.43-.56,16,16,0,0,1-2.36-3.27c0-.13-.22-.17-.35-.26a.92.92,0,0,0-.08.26,59.47,59.47,0,0,0,.17,6.24,13.6,13.6,0,0,1,.13,2.32v5.64a7.48,7.48,0,0,0-.56.55,1,1,0,0,1-.48.13c-1.29.13-2.58.22-3.87.31-.51,0-1.07.12-1.59.17-.69.08-.82.08-1.89-.52C316.51,32.54,316.34,30.69,316.34,29Z"/><path class="cls-2" d="M357.66,34.14a7.7,7.7,0,0,0-.52-.69c0-1.34,0-2.76,0-4.09a7.23,7.23,0,0,0-.26-2.41,10.68,10.68,0,0,1,0-2.32V19.12c0-.3.13-.64.13-.95a8.14,8.14,0,0,0,0-2,10.15,10.15,0,0,1-.13-3c0-.3,0-.52,0-.77a2.13,2.13,0,0,0-.69-.22c-.6,0-1.21-.13-1.81-.13-.82,0-1.59,0-2.32,0a14.62,14.62,0,0,1-4.13-.25,11.43,11.43,0,0,1-.22-2.93,10.16,10.16,0,0,0,0-2.58A1.5,1.5,0,0,1,348,5.05a4.83,4.83,0,0,1,1.68-.39c1.72,0,3.4-.17,5.07-.25s3.49-.09,5.17,0c3.22.38,6.45.21,9.68.38l4.43.13a5.82,5.82,0,0,1,.82.13c.08.3.34.56.34.82.09,1.81.43,3.66.34,5.55a.52.52,0,0,1-.12.26,5.09,5.09,0,0,1-3.1.38,32.23,32.23,0,0,0-4.91,0,3.13,3.13,0,0,0-1,.22,7.92,7.92,0,0,0,0,1.76c0,.9-.09,2-.09,3a16.17,16.17,0,0,1,0,2.88,9.59,9.59,0,0,0-.13,2.28c.13,3.32-.09,6.67-.09,10v.65a1.59,1.59,0,0,1-.81,1.38Z"/><path class="cls-2" d="M403,33.36a2.35,2.35,0,0,1-2.15,1,12.62,12.62,0,0,1-2.2.22,6.61,6.61,0,0,1-1.33-.09,17.52,17.52,0,0,0-1.94-.13c-2.06.22-4.08,0-6.15.09a2,2,0,0,1-.73-.09,18.5,18.5,0,0,0-5.08-.21c-.86,0-1.59,0-2.36,0a1.15,1.15,0,0,1-1-.69c0-.69-.08-1.51-.08-2.28,0-2.37-.05-4.78-.05-7.1V12c0-.95-.08-1.81-.08-2.62a.56.56,0,0,1-.05-.3c.05-1.29.13-2.63.13-3.83A1.68,1.68,0,0,1,381,4.49a3.44,3.44,0,0,1,.86-.08c2.67-.13,5.42-.39,8.26-.39a43.15,43.15,0,0,0,6.11-.13,13.47,13.47,0,0,1,3.53.09,4.78,4.78,0,0,0,1.33,0c.47.08.82.08,1.21.17a5.74,5.74,0,0,1,.3,1,28.54,28.54,0,0,1,.13,5.38,3.94,3.94,0,0,1-.18.64,22.39,22.39,0,0,1-2.88.35c-2.24,0-4.52,0-6.75.13a23.72,23.72,0,0,0-3.1.21,5,5,0,0,0-.13,3.36,1,1,0,0,0,.65.3c1.8.09,3.7.21,5.55.13,1.24,0,2.41,0,3.61,0a1.91,1.91,0,0,1,.82,2.32,4.31,4.31,0,0,0-.13,1.12v2a6.24,6.24,0,0,1-.17.69c-.26.08-.52.21-.82.3-.56,0-1.16,0-1.72.09-.13,0-.26.08-.39,0a6.54,6.54,0,0,0-2.75-.05c-.26,0-.52,0-.73,0-1.21,0-2.46,0-3.75,0a2.23,2.23,0,0,0-.3.22,1.72,1.72,0,0,0,0,.64,32.77,32.77,0,0,0,.13,3.57c0,.05.13.09.13.09a2.38,2.38,0,0,1,1,.13c.26,0,.56.13.86.13a13.29,13.29,0,0,0,1.89-.09,18.71,18.71,0,0,1,4.61,0,15.31,15.31,0,0,0,4,0c.21-.13.47.13.77.13A40.33,40.33,0,0,1,403,33.36Z"/><path class="cls-2" d="M416.35,23a1.15,1.15,0,0,0-.21,1.16,3.36,3.36,0,0,1-.09,1.59,9.65,9.65,0,0,0,0,1.08V31c0,.91.09,1.68.09,2.71a3.16,3.16,0,0,0-.48.69,25.67,25.67,0,0,1-5.8.17h-.95c-.69,0-.69,0-1.59-.6-.05-1.29-.05-2.54-.05-3.91,0-2.72,0-5.38,0-8.14V6.47a2.16,2.16,0,0,1,.35-1.42,1.22,1.22,0,0,1,.47-.17c.86,0,1.68-.09,2.62-.09h7.62c.51,0,1,0,1.59.09a8.17,8.17,0,0,0,1,0,22.81,22.81,0,0,1,5.42.13,5.14,5.14,0,0,1,1.68.47c.34.13.86.35,1.2.52a6.09,6.09,0,0,1,3.23,3.7,11,11,0,0,1,.47,5.42,13.63,13.63,0,0,1-1.12,3.79,4.48,4.48,0,0,1-2.32,2.53,1.83,1.83,0,0,1-.43.35,13,13,0,0,0,1.16,2,30.4,30.4,0,0,1,2,3.66c.81,1.55,1.59,3.05,2.45,4.73a4.23,4.23,0,0,1,.17,1.85,2.23,2.23,0,0,1-1.46.09,4,4,0,0,0-1.85-.26c-1.59,0-3.23-.05-4.74-.05a1.24,1.24,0,0,1-1.11-.38,44.38,44.38,0,0,0-2.76-5.17,9.58,9.58,0,0,1-.56-1.16,3.31,3.31,0,0,0-.43-.77,5.9,5.9,0,0,1-.82-1.46,8.5,8.5,0,0,0-1.29-2.33A11.29,11.29,0,0,0,416.35,23Zm.73-6.54c1.12,0,2.15,0,3.19,0a12.25,12.25,0,0,1,1.29-.13,2,2,0,0,0,1.72-1.42,2.53,2.53,0,0,0-.95-2.88,14,14,0,0,0-6,.12v4.22A2.8,2.8,0,0,0,417.08,16.41Z"/><path class="cls-1" d="M14.76,57.22c-9.31,0-11.34-.18-12.36-.57-2.49-1-3-10.48-1.64-28.29.67-8.49.89-17.43.5-20.33C.83,4.81.91,3.27,1.52,2.71l.06,0C3.22,1.75,19.48.37,37.13.08,40.15,0,42.72,0,45,0c9.32,0,13.86.44,15.18,1.47h0c.7,1.66,1.39,12.33.83,27.3-.53,13.88-1.52,25.3-2.35,27.15v0h0c-1.21.43-6.67.93-13.36,1C30.24,57.15,21.11,57.22,14.76,57.22ZM3.89,53.6l5,.24c3.26.15,8.84.22,17.07.22h3.63l0-.52c0-.87-.06-2-.1-3.41v-.47l-.47,0-1.16-.06c-2.67-.16-3.91-.35-4.21-1s.51-1.95,2.62-4.59C28,41.81,29,40.69,30,40.6h.16a3,3,0,0,1,1.74.87c.81.68,1.17,1.49.93,2.08a1.34,1.34,0,0,1-1.35.69H31a3.27,3.27,0,0,0-2.48,1.35c-.28.31-.51.57-.68.78l-.66.81h1.33c2.81,0,10.58-.33,12.88-.58l.85-.09-.5-.7a11.76,11.76,0,0,0-1.47-1.64c-1.2-1.15-3.86-3.83-5.93-6l-3.67-3.81-2.35,2.57c-3,3.29-12.85,13.21-14.33,13.22-.29-.08-.68-.23-.77-.61-.22-.84,1.06-2.41,5.25-6.46,3-2.91,6.78-6.76,8.42-8.6,1.94-2.16,3.42-3.3,3.88-3.3s2,1.36,3.59,3.06,4.79,5,7.35,7.57a45.74,45.74,0,0,1,4.89,5.35,1.07,1.07,0,0,1-.15,1c-.51.71-2,1.14-4.08,1.2-1.52,0-4.54.18-6.6.3-.87,0-2,.08-3.35.08H31.6v.51c0,.71,0,1.57,0,2.82l0,.94.51.09c8.35,0,18-.16,20.23-.38l4.81-.49,0-11.44c0-2.8.12-7.09.3-11.75l0-.52h-.77c-.64,0-1.4,0-2.29-.05l-1.38,0v.5c0,.52,0,1-.07,1.47-.16,2.67-.35,3.91-1,4.21a.88.88,0,0,1-.33.07c-.83,0-2.29-1.12-4.26-2.69-2.16-1.73-3.27-2.78-3.37-3.75a2.78,2.78,0,0,1,.87-1.9,2.4,2.4,0,0,1,1.69-1,1,1,0,0,1,.39.08c.49.2.74.79.68,1.59a3.15,3.15,0,0,0,1.34,2.73c.3.28.57.51.78.68l.8.66V31c0-2.76-.32-10.89-.57-13.17l-.1-.85-.69.49a12.08,12.08,0,0,0-1.64,1.48c-1.18,1.22-3.86,3.88-6,5.92l-3.82,3.67,2.58,2.35c3.28,3,13.21,12.86,13.22,14.33a1,1,0,0,1-.61.78.62.62,0,0,1-.19,0c-1,0-3-1.85-6.28-5.28-2.9-3-6.75-6.77-8.59-8.41-2.11-1.89-3.33-3.46-3.3-3.89s1.35-2,3.06-3.58,5-4.79,7.57-7.35a46.35,46.35,0,0,1,5.35-4.89,1.34,1.34,0,0,1,.35,0,.94.94,0,0,1,.59.2c.72.51,1.15,2,1.21,4.07,0,1.54.18,4.57.3,6.61.05.89.08,2.13.08,3.49v.53l.52,0c.87-.05,2-.08,3.5-.12h.47l0-.46c.14-3.37.31-6.49.48-9l.43-14.38-5.31-.2c-1,0-2.3-.05-3.91-.05-4.2,0-10.29.11-17.15.31l-.49,0V4c0,.72,0,1.58-.05,2.62,0,.43-.05,1.65-.05,1.65l.5,0,1.09.05c2.67.16,3.91.35,4.21,1s-.51,2-2.62,4.59C33,16.1,31.92,17.22,31,17.31h-.14a3,3,0,0,1-1.76-.87c-.81-.68-1.17-1.49-.93-2.08a1.34,1.34,0,0,1,1.36-.69H30a3.28,3.28,0,0,0,2.46-1.35c.28-.31.51-.57.68-.78l.66-.8-1.39,0c-3.08,0-10.63.34-12.82.58l-.85.09.5.7a11.76,11.76,0,0,0,1.47,1.64c1.22,1.17,3.87,3.85,5.93,6l3.67,3.81L32.64,21C35.73,17.58,45.48,7.76,47,7.76c.29.08.68.23.77.61.22.84-1.06,2.41-5.25,6.47-3,2.9-6.78,6.75-8.42,8.59-1.94,2.16-3.42,3.3-3.88,3.3s-2-1.36-3.59-3.06-4.77-5-7.35-7.57a43.51,43.51,0,0,1-4.89-5.35,1.07,1.07,0,0,1,.15-.95c.51-.71,2-1.14,4.08-1.2,1.53,0,4.55-.18,6.6-.3.89-.05,2.11-.08,3.44-.08h1l0-.53c0-.9-.09-2.17-.12-3.62v-.5h-.51c-9.4.31-20.89.82-22.29,1.25-.87.27-1.69.53-3.1,22l0,.56.55,0c.92,0,2.1-.07,3.64-.11h.46l.05-.82c.16-2.67.35-3.91,1-4.21a.88.88,0,0,1,.33-.06c.83,0,2.29,1.11,4.26,2.69,2.16,1.72,3.27,2.77,3.36,3.74a2.73,2.73,0,0,1-.86,1.9,2.4,2.4,0,0,1-1.69,1,1,1,0,0,1-.39-.07c-.49-.2-.75-.8-.68-1.6a3.16,3.16,0,0,0-1.34-2.73l-.78-.68-.81-.65v1c0,2.75.33,10.87.58,13.16l.09.86.7-.5a11.76,11.76,0,0,0,1.64-1.47c1.18-1.23,3.86-3.89,6-5.93l3.81-3.67L20.86,27C17.57,24,7.65,14.09,7.64,12.62a1,1,0,0,1,.61-.78l.19,0c1,0,3,1.85,6.28,5.28,2.89,3,6.75,6.77,8.59,8.42,2.11,1.88,3.33,3.45,3.3,3.88S25.23,31.46,23.55,33s-5,4.79-7.57,7.35a48.17,48.17,0,0,1-5.35,4.89,1.12,1.12,0,0,1-.35.06,1.05,1.05,0,0,1-.6-.2c-.71-.51-1.14-2-1.2-4.08-.05-1.57-.18-4.6-.3-6.61-.07-1.12-.09-2.73-.07-4.42v-.52H7.59l-.71,0c-.65,0-1.4,0-2.29-.05l-1.2,0Z"/></g></g></svg>