<svg xmlns="http://www.w3.org/2000/svg" viewBox="0 0 312.22 40.91"><g data-name="Layer 2"><path style="mix-blend-mode:multiply" fill="#fec938" d="M4.39 4.59h38v36.32h-38z"/><path d="M76 30.76a.72.72 0 0 1-.34.1H72c-.5 0-.94.06-1.57.09a1.29 1.29 0 0 1-.71-.84c-.25-.75-.5-1.41-.78-2.19a2.6 2.6 0 0 1-.25-.5 58.91 58.91 0 0 0-7.28 0c-.44.88-.81 1.84-1.31 3a4.26 4.26 0 0 0-.5.34.77.77 0 0 1-.25.07h-1.34c-.44 0-.81.06-1.28.09a3.5 3.5 0 0 1-1.12 0h-.91a.69.69 0 0 1-.75-.19 5.78 5.78 0 0 1 .34-1.65c.53-1.44.91-3 1.44-4.43.5-1.63 1-3.25 1.65-4.87.44-1.29.88-2.53 1.41-3.78a11.58 11.58 0 0 0 .41-1.31 42.6 42.6 0 0 1 1.9-4.84 1.13 1.13 0 0 1 1.25-.78c1.4 0 2.87 0 4.24-.07.44 0 .91.07 1.28.07a1.12 1.12 0 0 1 1.07.68 7.27 7.27 0 0 1 .37 1 53.89 53.89 0 0 1 2.19 5.56c.43 1.25.81 2.5 1.21 3.74.72 2.22 1.41 4.31 2.31 6.37.25.75.44 1.5.75 2.25a7 7 0 0 1 .53 1.59 2.62 2.62 0 0 1-.3.5zm-12.18-9.39a7.55 7.55 0 0 0 2.71-.07c-.46-1.34-1-2.62-1.5-4a9.19 9.19 0 0 0-1.21 4.07zm16.47 9.49c-.31 0-.31 0-.87-.38v-4.87a2.61 2.61 0 0 0 0-.56 10 10 0 0 1 0-2.12c0-1 .07-2 0-3a8.57 8.57 0 0 1 0-1.75v-1.25c0-.62-.06-1.31 0-2a10.83 10.83 0 0 0 0-2.9 7.54 7.54 0 0 1 0-2.03 1 1 0 0 1 1.06-.87h1.15c.88.06 1.75.15 2.56.28h.31a1.12 1.12 0 0 1 1.07.68 5.73 5.73 0 0 1 .18.85v2.28a8 8 0 0 0 .1 2 1.5 1.5 0 0 1 .06.66v12.55c0 .75-.13 1.44-.16 2.25a36.71 36.71 0 0 1-5.46.18zM97 22.55a.85.85 0 0 0-.15.85 2.45 2.45 0 0 1-.06 1.15 5 5 0 0 0 0 .78v3c0 .65.06 1.22.06 2a2.15 2.15 0 0 0-.35.5 19.19 19.19 0 0 1-4.21.12h-.69c-.5 0-.5 0-1.15-.44V10.59a1.6 1.6 0 0 1 .25-1 .84.84 0 0 1 .3-.15c.62 0 1.22-.06 1.9-.06h5.53c.37 0 .75 0 1.15.06a5.76 5.76 0 0 0 .72 0 16.73 16.73 0 0 1 3.94.09 3.55 3.55 0 0 1 1.21.35c.25.09.63.25.88.37a4.45 4.45 0 0 1 2.34 2.69 8 8 0 0 1 .34 3.93 9.72 9.72 0 0 1-.81 2.75 3.24 3.24 0 0 1-1.68 1.84 1.31 1.31 0 0 1-.32.25 9.51 9.51 0 0 0 .85 1.47 22.79 22.79 0 0 1 1.46 2.65c.6 1.12 1.16 2.22 1.78 3.43a3.13 3.13 0 0 1 .13 1.35 1.62 1.62 0 0 1-1.06.06 3 3 0 0 0-1.35-.19h-3.43a.91.91 0 0 1-.81-.28 30.77 30.77 0 0 0-2-3.75 7.27 7.27 0 0 1-.41-.84 2.08 2.08 0 0 0-.31-.56 3.85 3.85 0 0 1-.59-1.06 6.27 6.27 0 0 0-.94-1.69 8.42 8.42 0 0 0-2.52.25zm.54-4.74h2.31a8 8 0 0 1 .93-.1 1.47 1.47 0 0 0 1.25-1 1.84 1.84 0 0 0-.69-2.09 10.25 10.25 0 0 0-4.34.09v3.06a1.89 1.89 0 0 0 .57.04zm17.22-8.43H120c1 .06 1.9 0 2.9 0s2.16-.13 3.34 0a17.49 17.49 0 0 1 3.09.28 3.76 3.76 0 0 1 3 3.37c.06.59 0 1.25.06 1.84a5.67 5.67 0 0 1-.43 1.59c0 .19-.22.35-.38.5a13.2 13.2 0 0 1-2 2.25.29.29 0 0 0-.09.16c0 .25.28.19.37.25a5.73 5.73 0 0 1 1.94 1.25 4.46 4.46 0 0 1 1.53 3.31 6.15 6.15 0 0 1-.75 3.27.31.31 0 0 0-.09.22 3.83 3.83 0 0 1-2 2 3.45 3.45 0 0 1-.44.13c-.34 0-.56.28-.81.37a2.33 2.33 0 0 0-1.65.09 3.13 3.13 0 0 1-1.41.19 2.52 2.52 0 0 0-1.37.16 1 1 0 0 1-.53.06h-9.15a2.13 2.13 0 0 1-1.22-.34 1.35 1.35 0 0 1 0-1 3.2 3.2 0 0 0 .09-1.13v-2.74a17.57 17.57 0 0 1-.16-1.91c-.06-1.43-.06-2.87-.09-4.37 0-1-.07-1.9-.1-2.81-.12-1.4-.06-2.75-.06-4.09a11.8 11.8 0 0 1-.06-1.44 2.45 2.45 0 0 1 .25-1.21 1.57 1.57 0 0 1 .98-.25zm5.71 7.62a2.22 2.22 0 0 0 .09.57c.81-.07 1.53-.1 2.25-.16a15.11 15.11 0 0 0 2.16-.13c.84-.84.93-1.12.43-2.34a2.6 2.6 0 0 0-1.28-.9 28.17 28.17 0 0 0-3.65.19zm5.4 6a1.79 1.79 0 0 0-.87-1 16.53 16.53 0 0 0-2.1.06 6.42 6.42 0 0 0-2.28.22 2.48 2.48 0 0 0-.09 1.13c0 .46.06.87.09 1.28s0 .78.22 1.09c.16 0 .31.06.44 0a12.74 12.74 0 0 1 2-.1h1.25a1.74 1.74 0 0 0 1.15-.43 3 3 0 0 0 .19-2.32zm28.04 7.11a1.73 1.73 0 0 1-1.57.75 9.51 9.51 0 0 1-1.59.15 5.32 5.32 0 0 1-1-.06 12.11 12.11 0 0 0-1.4-.09c-1.5.15-3 0-4.46.06a1.66 1.66 0 0 1-.54-.06 13 13 0 0 0-3.68-.16h-1.72a.84.84 0 0 1-.75-.5c0-.5-.06-1.09-.06-1.65V14.62c0-.68-.06-1.31-.06-1.9a.51.51 0 0 1 0-.22c0-.94.09-1.91.09-2.78a1.2 1.2 0 0 1 .78-.56 2.47 2.47 0 0 1 .63-.06c1.93-.1 3.93-.28 6-.28a29.89 29.89 0 0 0 4.43-.1 10.44 10.44 0 0 1 2.56.06 3 3 0 0 0 1 0c.34.06.59.06.88.12a3.81 3.81 0 0 1 .21.72 20.41 20.41 0 0 1 .1 3.9c0 .16-.1.28-.13.47a15.25 15.25 0 0 1-2.09.25c-1.62 0-3.28 0-4.9.09a16.32 16.32 0 0 0-2.25.16 3.61 3.61 0 0 0-.09 2.43.69.69 0 0 0 .47.22c1.31.06 2.68.16 4 .1h2.63a1.38 1.38 0 0 1 .59 1.68 3.35 3.35 0 0 0-.09.81v1.44c0 .16-.07.31-.13.5s-.37.16-.59.22c-.41 0-.85 0-1.25.06-.1 0-.19.06-.28 0a4.82 4.82 0 0 0-2 0h-3.25a1.48 1.48 0 0 0-.22.16 1.19 1.19 0 0 0 0 .46 24.81 24.81 0 0 0 .1 2.59l.09.07a1.83 1.83 0 0 1 .72.09c.19 0 .41.09.62.09a10.62 10.62 0 0 0 1.38-.06 13.82 13.82 0 0 1 3.34 0 11.26 11.26 0 0 0 2.9 0c.16-.09.34.09.56.09a28.94 28.94 0 0 1 .02 4.67zm10.64-20.92a33.28 33.28 0 0 1 .38 6.09v3.81c.06 1.5.15 2.9.25 4.34a11.24 11.24 0 0 0 .09 1.15 1.85 1.85 0 0 0 1.22.13c1 0 1.93-.13 3-.16 1.38-.09 2.78-.12 4.19-.19h.32a.93.93 0 0 1 .81.6 4.12 4.12 0 0 1 .13.81v3.78c0 .15-.07.31-.07.53a1.86 1.86 0 0 1-1.12.37c-1.59.13-3.19.25-4.81.25-1.19 0-2.4.06-3.65.06-.47 0-.94 0-1.47-.06h-1.15a22.81 22.81 0 0 1-3.31.06 8.12 8.12 0 0 1-.94-.09 1.54 1.54 0 0 1-.56-1.34c0-1.25 0-2.5-.06-3.72 0-3.06 0-6.15.06-9.21a2.14 2.14 0 0 1 0-.62c.19-1.72.06-3.37.19-5a4.92 4.92 0 0 0 0-.94.85.85 0 0 1 .68-.71c.38 0 .78-.07 1.16-.07a6.23 6.23 0 0 0 2-.15h.28a6.27 6.27 0 0 0 1 .12 6 6 0 0 0 1-.12c.13.09.29.19.38.28zm38.24 5.28a4.63 4.63 0 0 1-.37.46 14.11 14.11 0 0 1-3.25 1.44c-.62.06-1.15.16-1.68.19a1.61 1.61 0 0 1-.82-.53 3.29 3.29 0 0 0-2.27-1.31 4.49 4.49 0 0 0-2.91.71 3.7 3.7 0 0 0-1.09 1.22 8.06 8.06 0 0 0-.91 1.87 6.26 6.26 0 0 0-.34 3.1 10.28 10.28 0 0 1 .28 1.49 3.29 3.29 0 0 0 3.15 2.5c.25.06.44 0 .6.06a4.21 4.21 0 0 0 3.24-1.24 15.07 15.07 0 0 0 2-2.31 2.73 2.73 0 0 1 .44-.47c.37.12.69.22 1 .34 1.18.47 2.28.87 3.46 1.22a.8.8 0 0 1 .6 1.12.34.34 0 0 1-.1.28 8.77 8.77 0 0 1-1.59 2.63c-.25.21-.34.56-.59.78a8.59 8.59 0 0 1-5 2.9l-1 .34h-2.21a16 16 0 0 1-3.19-.34 7.36 7.36 0 0 1-3.49-2 13.2 13.2 0 0 1-1.81-2.53c-.25-.46-.54-.9-.79-1.4a6.58 6.58 0 0 1-.78-3.31v-1.63c0-.24-.09-.49.07-.68a4.88 4.88 0 0 0 .15-1.59c.16-.54.28-1 .38-1.35a19.42 19.42 0 0 1 1.25-3.31 8.71 8.71 0 0 1 3-3.15 10.78 10.78 0 0 1 1.59-.72c.32-.15.63-.22.94-.37a4.93 4.93 0 0 1 2.62-.38h1.25a17 17 0 0 1 5.09 1.75c.1 0 .16.13.28.16a12.91 12.91 0 0 1 2.78 3.4c.06.13.09.22.16.38a2.71 2.71 0 0 1-.14.28zm20.34 15.64a1.73 1.73 0 0 1-1.57.75A9.51 9.51 0 0 1 220 31a5.32 5.32 0 0 1-1-.06 12.11 12.11 0 0 0-1.4-.09c-1.5.15-3 0-4.46.06a1.66 1.66 0 0 1-.54-.06 13 13 0 0 0-3.68-.16h-1.72a.84.84 0 0 1-.75-.5c0-.5-.06-1.09-.06-1.65V14.62c0-.68-.06-1.31-.06-1.9a.51.51 0 0 1 0-.22c0-.94.09-1.91.09-2.78a1.2 1.2 0 0 1 .78-.56 2.47 2.47 0 0 1 .63-.06c1.93-.1 3.93-.28 6-.28a29.89 29.89 0 0 0 4.43-.1 10.44 10.44 0 0 1 2.56.06 3 3 0 0 0 1 0c.34.06.59.06.88.12a3.81 3.81 0 0 1 .21.72 20.41 20.41 0 0 1 .1 3.9c0 .16-.1.28-.13.47a15.25 15.25 0 0 1-2.09.25c-1.62 0-3.28 0-4.9.09a16.32 16.32 0 0 0-2.25.16 3.61 3.61 0 0 0-.09 2.43.69.69 0 0 0 .47.22c1.31.06 2.68.16 4 .1h2.63a1.38 1.38 0 0 1 .59 1.68 3.35 3.35 0 0 0-.09.81v1.44c0 .16-.07.31-.13.5s-.37.16-.59.22c-.41 0-.85 0-1.25.06-.1 0-.19.06-.28 0a4.82 4.82 0 0 0-2 0h-3.25a1.48 1.48 0 0 0-.22.16 1.19 1.19 0 0 0 0 .46 24.81 24.81 0 0 0 .1 2.59l.09.07a1.83 1.83 0 0 1 .72.09c.19 0 .41.09.62.09a10.62 10.62 0 0 0 1.38-.06 13.82 13.82 0 0 1 3.34 0 11.26 11.26 0 0 0 2.9 0c.16-.09.34.09.56.09a28.94 28.94 0 0 1-.01 4.67zM226.2 27V11.03a1.38 1.38 0 0 1 .65-1.31 18 18 0 0 1 5.34 0c.5.56 1 1.06 1.47 1.62.59.75 1.22 1.6 1.84 2.34 1.44 1.72 2.84 3.41 4.22 5.09.18.1.24.28.43.44a4.52 4.52 0 0 0 0-1.31 13 13 0 0 1-.05-1.9v-2.63c-.06-.75-.16-1.65-.22-2.4v-.75a4 4 0 0 0 .41-.5c1.9-.06 3.77-.06 5.71 0a1.36 1.36 0 0 1 .12.47 9 9 0 0 1 0 1.06 3.74 3.74 0 0 0 .37 1.72 7.44 7.44 0 0 0 0 2.62 1.45 1.45 0 0 1 0 .62 3.33 3.33 0 0 0 0 1.44c-.16.59.06 1.31-.09 1.94a4.57 4.57 0 0 0 .09 1.15c.06.38-.22.72-.09 1.09a.57.57 0 0 1 .06.38c-.28 1.12.15 2.34-.06 3.53a6.53 6.53 0 0 0 .06 2.06 7.58 7.58 0 0 1-.19 3 3.73 3.73 0 0 1-1.37.25c-1.09.07-2.22.07-3.31.07a1.75 1.75 0 0 1-1.38-.63c-.43-.62-.87-1.12-1.28-1.69-.81-1.06-1.49-2.21-2.27-3.18a21.12 21.12 0 0 1-2-2.75 1 1 0 0 0-.32-.4 11.61 11.61 0 0 1-1.71-2.38c0-.09-.16-.12-.25-.18a.71.71 0 0 0-.07.18 43.06 43.06 0 0 0 .13 4.53 10.45 10.45 0 0 1 .09 1.69v4.09a4.93 4.93 0 0 0-.4.4.67.67 0 0 1-.35.1c-.93.09-1.87.15-2.81.22-.37 0-.78.09-1.15.12s-.59.06-1.38-.37c-.11-1.36-.24-2.7-.24-3.87zm29.98 3.67a4.69 4.69 0 0 0-.37-.5v-3a5.17 5.17 0 0 0-.19-1.74 8 8 0 0 1 0-1.69v-4c0-.21.09-.46.09-.68a5.66 5.66 0 0 0 0-1.47 7.33 7.33 0 0 1-.1-2.19v-.56a1.59 1.59 0 0 0-.5-.15c-.44 0-.87-.1-1.31-.1h-1.69a10.68 10.68 0 0 1-3-.18 8.25 8.25 0 0 1-.16-2.13 7.83 7.83 0 0 0 0-1.87 1.11 1.11 0 0 1 .31-.91 3.65 3.65 0 0 1 1.22-.28c1.25 0 2.47-.12 3.68-.18s2.53-.07 3.75 0c2.34.28 4.68.15 7 .28l3.22.09a4 4 0 0 1 .59.09c.07.22.25.41.25.6a37.74 37.74 0 0 1 .25 4 .33.33 0 0 1-.09.18 3.63 3.63 0 0 1-2.25.28 23.53 23.53 0 0 0-3.56 0 2.15 2.15 0 0 0-.75.16 6 6 0 0 0 0 1.28c0 .65-.06 1.47-.06 2.15a12.05 12.05 0 0 1 0 2.09 7.64 7.64 0 0 0-.1 1.66c.1 2.4-.06 4.84-.06 7.24v.47a1.14 1.14 0 0 1-.59 1zm32.9-.56a1.71 1.71 0 0 1-1.56.75 9.51 9.51 0 0 1-1.59.15 5.21 5.21 0 0 1-1-.06 12.27 12.27 0 0 0-1.41-.09c-1.49.15-3 0-4.46.06a1.6 1.6 0 0 1-.53-.06 13.12 13.12 0 0 0-3.69-.16h-1.71a.83.83 0 0 1-.75-.5c0-.5-.06-1.09-.06-1.65V14.62c0-.68-.06-1.31-.06-1.9a.51.51 0 0 1 0-.22c0-.94.09-1.91.09-2.78a1.2 1.2 0 0 1 .78-.56 2.47 2.47 0 0 1 .63-.06c1.93-.1 3.93-.28 6-.28a30 30 0 0 0 4.44-.1 10.46 10.46 0 0 1 2.56.06 3 3 0 0 0 1 0c.35.06.6.06.88.12a3.89 3.89 0 0 1 .22.72 20.4 20.4 0 0 1 .09 3.9 3.62 3.62 0 0 1-.12.47 15.58 15.58 0 0 1-2.1.25c-1.62 0-3.27 0-4.9.09a16.06 16.06 0 0 0-2.24.16 3.54 3.54 0 0 0-.1 2.43.71.71 0 0 0 .47.22c1.31.06 2.68.16 4 .1h2.62a1.38 1.38 0 0 1 .59 1.68 3.35 3.35 0 0 0-.09.81v1.44a2.85 2.85 0 0 1-.13.5c-.18.06-.37.16-.59.22-.4 0-.84 0-1.25.06-.09 0-.19.06-.28 0a4.82 4.82 0 0 0-2 0h-3.24a1.09 1.09 0 0 0-.22.16 1.19 1.19 0 0 0 0 .46 22.34 22.34 0 0 0 .09 2.59l.1.07a1.78 1.78 0 0 1 .71.09c.19 0 .41.09.63.09a10.47 10.47 0 0 0 1.37-.06 13.82 13.82 0 0 1 3.34 0 11.34 11.34 0 0 0 2.91 0c.15-.09.34.09.56.09a30.58 30.58 0 0 1 0 4.67zm9.7-7.56a.86.86 0 0 0-.16.85 2.45 2.45 0 0 1-.06 1.15 6.72 6.72 0 0 0 0 .78v3c0 .65.06 1.22.06 2a2.16 2.16 0 0 0-.34.5 19.28 19.28 0 0 1-4.22.12h-.68c-.5 0-.5 0-1.16-.44V10.59a1.6 1.6 0 0 1 .25-1 .9.9 0 0 1 .34-.12c.63 0 1.22-.06 1.91-.06h5.52c.38 0 .75 0 1.16.06a5.76 5.76 0 0 0 .72 0 16.64 16.64 0 0 1 3.93.09 3.61 3.61 0 0 1 1.22.35c.25.09.62.25.87.37a4.39 4.39 0 0 1 2.34 2.69 8.1 8.1 0 0 1 .35 3.93 10.07 10.07 0 0 1-.82 2.75 3.24 3.24 0 0 1-1.68 1.84 1.26 1.26 0 0 1-.31.25 9.5 9.5 0 0 0 .84 1.47 22.86 22.86 0 0 1 1.47 2.65c.59 1.12 1.15 2.22 1.78 3.43a3 3 0 0 1 .12 1.35 1.61 1.61 0 0 1-1.06.06 3 3 0 0 0-1.34-.19h-3.44a.91.91 0 0 1-.81-.28 30.77 30.77 0 0 0-2-3.75 7.22 7.22 0 0 1-.4-.84 2.82 2.82 0 0 0-.31-.56 3.89 3.89 0 0 1-.6-1.06 6.51 6.51 0 0 0-.93-1.69 8.38 8.38 0 0 0-2.56.22zm.53-4.74h2.31a7.91 7.91 0 0 1 .94-.1 1.46 1.46 0 0 0 1.24-1 1.83 1.83 0 0 0-.68-2.09 10.24 10.24 0 0 0-4.34.09v3.06a1.83 1.83 0 0 0 .53.04zM40.74 1.2v-.09l-.08-.06c-1-.75-4-1-10.32-1-1.52 0-3.24 0-5.25.05C14.1.23 2.5 1.1 1.19 1.84h-.07C.61 2.36.54 3.4.85 5.72A97.43 97.43 0 0 1 .51 19.2C-.78 35.44.64 37.92 1.82 38.37c.73.28 2.05.4 8.34.4 4.25 0 10.33-.05 20.34-.16a46.41 46.41 0 0 0 9-.69l.16-.05.06-.15c.58-1.28 1.24-8.77 1.6-18.2.38-10.15-.09-17.16-.58-18.32zM38 35.45l-2.9.3c-1.35.13-7.34.22-13.44.24v-2.23h2.43c1.35-.08 3.36-.17 4.39-.2s2.46-.22 3-.95a1 1 0 0 0 .14-.92 33 33 0 0 0-3.34-3.7c-1.7-1.68-3.89-3.94-4.88-5-.2-.21-1.92-2.09-2.61-2.14s-2.47 1.83-2.79 2.23c-1.1 1.22-3.6 3.78-5.59 5.7-3 2.91-3.78 3.9-3.59 4.63a1 1 0 0 0 .77.65h.07c1.3 0 8.8-7.83 9.79-8.92l1.32-1.45L22.94 26c1.37 1.42 3.15 3.21 4 4a8.73 8.73 0 0 1 .94 1c-1.52.17-6.95.4-8.73.39.11-.14.25-.31.44-.51.65-.71 1.07-.82 1.54-.78a1.31 1.31 0 0 0 1.4-.66 1.63 1.63 0 0 0-.72-1.77 2.08 2.08 0 0 0-1.55-.67c-.77.08-1.49.82-2.72 2.36-1.48 1.85-2.09 2.73-1.79 3.4s1.2.76 3.08.88h.79c0 1 0 1.7.06 2.28h-2.06c-5.48 0-9.19 0-11.36-.14l-3-.15-.32-15.38H5.4v3c.08 1.33.17 3.34.2 4.39s.22 2.46.94 3a1 1 0 0 0 .59.2 1.26 1.26 0 0 0 .33-.05 33 33 0 0 0 3.7-3.34c1.69-1.71 3.95-3.9 5-4.89.22-.19 2.09-1.92 2.15-2.6S16.4 17.45 16 17.1c-1.22-1.1-3.78-3.61-5.7-5.59-2.91-3-3.91-3.78-4.63-3.59a1 1 0 0 0-.65.77c-.3 1.09 7.8 8.85 8.9 9.86l1.45 1.32-2.28 2.2c-1.42 1.36-3.21 3.14-4 4a9.48 9.48 0 0 1-1 .94C8 25.43 7.73 20 7.75 18.22c.14.11.31.25.51.44.7.64.82 1.07.78 1.54a1.29 1.29 0 0 0 .66 1.4 1.64 1.64 0 0 0 1.77-.72 2.12 2.12 0 0 0 .65-1.51c-.08-.77-.83-1.49-2.37-2.72-1.84-1.48-2.75-2.09-3.4-1.79s-.76 1.2-.87 3.08v.24L3 18.26C3.88 5.28 4.4 4 4.87 3.87c.81-.25 7.61-.59 14.75-.82 0 1.06.05 1.84.08 2.43h-2.61c-1.34.08-3.35.17-4.39.2s-2.46.22-3 .94a1 1 0 0 0-.15.92 33 33 0 0 0 3.34 3.7c1.71 1.69 3.9 4 4.89 5 .19.22 1.92 2.09 2.6 2.14.73 0 2.48-1.92 2.83-2.31 1.1-1.23 3.6-3.78 5.59-5.71 3-2.91 3.78-3.9 3.59-4.63a1 1 0 0 0-.77-.65c-1.12-.29-8.85 7.81-9.86 8.91l-1.26 1.54-2.2-2.28c-1.37-1.42-3.14-3.21-4-4a9.48 9.48 0 0 1-.94-1c1.52-.17 7-.4 8.73-.38-.11.14-.25.3-.44.5-.64.71-1.07.83-1.54.79a1.29 1.29 0 0 0-1.4.66 1.62 1.62 0 0 0 .72 1.76 2 2 0 0 0 1.51.65c.77-.07 1.49-.82 2.72-2.36 1.48-1.84 2.09-2.72 1.79-3.4s-1.2-.76-3.08-.88h-.74V3.06c4.28-.13 8.48-.21 11.41-.21h2.6l3.2.12-.28 9.24a419.6 419.6 0 0 0-.32 6c-1 0-1.75 0-2.33.08 0-.88 0-1.72-.06-2.35-.07-1.34-.17-3.35-.2-4.39s-.22-2.46-.94-3a1 1 0 0 0-.92-.14 32 32 0 0 0-3.7 3.33c-1.69 1.71-3.94 3.9-5 4.89-.21.19-2.09 1.92-2.14 2.6s1.91 2.51 2.3 2.86c1.22 1.1 3.78 3.6 5.71 5.59 2.64 2.73 3.7 3.62 4.42 3.62a.76.76 0 0 0 .21 0 1 1 0 0 0 .65-.77c.29-1.09-7.81-8.85-8.91-9.86l-1.45-1.32 2.28-2.2c1.43-1.37 3.22-3.14 4-3.95a8.83 8.83 0 0 1 1-.95c.17 1.52.4 7 .38 8.74l-.5-.44c-.71-.65-.83-1.08-.79-1.55a1.29 1.29 0 0 0-.66-1.4 1.62 1.62 0 0 0-1.76.72 2.08 2.08 0 0 0-.65 1.51c.07.77.82 1.49 2.36 2.72 1.84 1.48 2.72 2.09 3.4 1.8s.76-1.21.88-3.09v-1h2.29c-.12 3-.19 5.88-.2 7.84z" fill="#212018"/></g></svg>