<svg xmlns="http://www.w3.org/2000/svg" viewBox="0 0 35.33 35.33"><path d="M0 0v35.33h35.33V0zm24.31 14.68v.46a10.07 10.07 0 0 1-15.5 8.48 5.92 5.92 0 0 0 .84.05 7.1 7.1 0 0 0 4.4-1.51 3.54 3.54 0 0 1-3.31-2.46 3.71 3.71 0 0 0 .67.06 3.54 3.54 0 0 0 .93-.12 3.55 3.55 0 0 1-2.84-3.47v-.05a3.53 3.53 0 0 0 1.61.45A3.54 3.54 0 0 1 10 11.84a10.08 10.08 0 0 0 7.3 3.7 3.59 3.59 0 0 1-.09-.81 3.54 3.54 0 0 1 6.12-2.42 7 7 0 0 0 2.25-.86 3.58 3.58 0 0 1-1.56 2 7.34 7.34 0 0 0 2-.56 7.17 7.17 0 0 1-1.71 1.79z" fill="#d3d3d3" data-name="Layer 2"/></svg>