<?xml version="1.0" encoding="utf-8"?>
<!-- Generator: Adobe Illustrator 23.0.6, SVG Export Plug-In . SVG Version: 6.00 Build 0)  -->
<svg version="1.1" id="Layer_1" xmlns="http://www.w3.org/2000/svg" xmlns:xlink="http://www.w3.org/1999/xlink" x="0px" y="0px"
	 viewBox="0 0 360 70" style="enable-background:new 0 0 360 70;" xml:space="preserve">
<style type="text/css">
	.st0{stroke:#000000;stroke-miterlimit:10;}
	.st1{fill:#FEC938;}
</style>
<g>
	<g>
		<g class="logo-wordmark">
			<path class="st0" d="M98.13,13.39h6.38l9.01,24.47H107l-1.21-3.92h-9.01l-1.21,3.92h-6.52L98.13,13.39z M104.4,29.54l-3.19-10.33
				l-0.49,1.89c-0.16,0.64-0.33,1.26-0.52,1.89l-0.47,1.54l-0.54,1.73L98.67,28l-0.47,1.54H104.4z"/>
			<path class="st0" d="M114.66,17.48v-4.12h5.27v4.12H114.66z M114.66,37.85V19.73h5.27v18.12H114.66z"/>
			<path class="st0" d="M129.15,19.73v1.91c0.3-0.25,0.61-0.49,0.94-0.71c0.32-0.22,0.69-0.42,1.09-0.61
				c0.4-0.18,0.87-0.34,1.39-0.47c0.52-0.13,1.13-0.23,1.82-0.29v4.71l-1.77,0.28c-0.65,0.12-1.18,0.24-1.61,0.36
				c-0.43,0.13-0.77,0.3-1.02,0.52s-0.43,0.5-0.54,0.85c-0.1,0.35-0.16,0.81-0.16,1.39v10.19h-5.34V19.73H129.15z"/>
			<path class="st0" d="M136.35,13.35h5.2v8.04c0.18-0.21,0.42-0.43,0.69-0.68c0.28-0.24,0.62-0.48,1.04-0.71
				c0.42-0.23,0.91-0.42,1.47-0.57c0.57-0.15,1.23-0.23,1.99-0.23c0.72,0,1.52,0.14,2.43,0.43c0.9,0.29,1.74,0.78,2.51,1.47
				c0.77,0.69,1.43,1.63,1.96,2.82c0.53,1.19,0.8,2.69,0.8,4.49c0,0.92-0.09,1.88-0.26,2.88c-0.17,0.99-0.46,1.89-0.85,2.7
				c-0.23,0.51-0.54,1.02-0.94,1.54c-0.39,0.52-0.87,0.99-1.44,1.4c-0.57,0.42-1.21,0.75-1.94,1.01c-0.73,0.25-1.54,0.38-2.44,0.38
				c-0.81,0-1.51-0.09-2.1-0.28c-0.59-0.18-1.09-0.4-1.51-0.66c-0.42-0.25-0.76-0.51-1.04-0.78c-0.28-0.27-0.5-0.49-0.66-0.68
				l0.21,1.91h-5.13V13.35z M145.33,23.13c-0.97,0.05-1.72,0.31-2.25,0.8c-0.53,0.49-0.92,1.03-1.16,1.63
				c-0.24,0.6-0.39,1.2-0.43,1.78c-0.05,0.59-0.07,1.02-0.07,1.3c0,0.67,0.06,1.38,0.17,2.13c0.12,0.75,0.33,1.39,0.66,1.92
				c0.35,0.55,0.81,0.98,1.39,1.26c0.58,0.29,1.17,0.43,1.77,0.43c0.72,0,1.3-0.16,1.75-0.47c0.45-0.31,0.79-0.61,1.02-0.88
				c0.23-0.32,0.42-0.7,0.57-1.13c0.15-0.43,0.26-0.85,0.33-1.28c0.07-0.43,0.12-0.82,0.14-1.18s0.03-0.64,0.03-0.85
				c0-0.72-0.06-1.42-0.19-2.1c-0.13-0.68-0.34-1.28-0.64-1.78c-0.3-0.51-0.7-0.91-1.2-1.21C146.72,23.21,146.09,23.08,145.33,23.13
				z"/>
			<path class="st0" d="M170.18,31.2l4.02,2.04l-0.99,1.37c-0.33,0.45-0.73,0.9-1.2,1.33c-0.79,0.74-1.76,1.35-2.91,1.84
				c-1.16,0.49-2.46,0.73-3.92,0.73c-1.34,0-2.57-0.21-3.69-0.62c-1.12-0.42-2.09-1.02-2.89-1.82c-0.81-0.8-1.44-1.78-1.89-2.95
				c-0.45-1.17-0.68-2.49-0.68-3.97c0-1.09,0.15-2.22,0.45-3.4c0.3-1.18,0.81-2.25,1.52-3.22c0.72-0.97,1.67-1.77,2.86-2.41
				c1.19-0.64,2.67-0.95,4.45-0.95c0.28,0,0.66,0.02,1.14,0.05c0.49,0.03,1.03,0.14,1.65,0.31c0.61,0.17,1.24,0.43,1.89,0.78
				c0.65,0.35,1.26,0.83,1.84,1.46c0.58,0.62,1.03,1.31,1.37,2.04c0.34,0.74,0.59,1.47,0.76,2.2c0.17,0.73,0.28,1.43,0.33,2.1
				c0.05,0.67,0.08,1.26,0.1,1.77h-12.93c0,0.55,0.08,1.1,0.23,1.65c0.15,0.54,0.4,1.03,0.74,1.46c0.35,0.43,0.78,0.77,1.3,1.02
				c0.52,0.25,1.14,0.38,1.85,0.38c0.72,0,1.33-0.1,1.84-0.31c0.51-0.21,0.94-0.47,1.28-0.8c0.35-0.32,0.64-0.67,0.87-1.04
				C169.82,31.87,170.02,31.52,170.18,31.2z M161.51,26.56h7.38c-0.05-0.39-0.13-0.82-0.24-1.28c-0.12-0.46-0.37-0.89-0.76-1.28
				c-0.32-0.32-0.72-0.57-1.2-0.75c-0.47-0.17-0.94-0.26-1.4-0.26c-0.65,0-1.2,0.13-1.65,0.38c-0.45,0.25-0.8,0.52-1.06,0.8
				c-0.37,0.39-0.62,0.79-0.74,1.2C161.72,25.77,161.61,26.16,161.51,26.56z"/>
			<path class="st0" d="M176.8,13.39h5.34v24.47h-5.34V13.39z"/>
			<path d="M195.34,13.39h4.51v24.47h-4.51V13.39z"/>
			<path d="M203.51,37.85V20.53h4.12v1.94c0.35-0.44,0.75-0.81,1.21-1.13c0.46-0.31,0.94-0.57,1.44-0.76
				c0.5-0.2,0.99-0.34,1.47-0.43c0.49-0.09,0.94-0.14,1.35-0.14c0.42,0,0.84,0.04,1.28,0.12s0.87,0.23,1.3,0.43
				c0.43,0.21,0.84,0.49,1.23,0.83c0.39,0.35,0.73,0.77,1,1.28c0.16-0.23,0.4-0.5,0.73-0.81c0.32-0.31,0.71-0.61,1.16-0.88
				c0.45-0.28,0.98-0.51,1.59-0.69c0.61-0.18,1.3-0.28,2.06-0.28c0.88,0,1.71,0.13,2.5,0.4c0.79,0.27,1.48,0.72,2.08,1.37
				c0.69,0.76,1.09,1.59,1.2,2.48c0.1,0.89,0.16,1.78,0.16,2.69v10.92h-4.12v-9.56c0-0.42-0.01-0.87-0.02-1.37
				c-0.01-0.5-0.1-0.97-0.26-1.42c-0.16-0.45-0.44-0.83-0.85-1.13c-0.4-0.3-1-0.45-1.78-0.45c-0.67,0-1.26,0.16-1.77,0.47
				c-0.51,0.31-0.9,0.7-1.18,1.16c-0.39,0.65-0.64,1.32-0.75,2.01c-0.1,0.69-0.16,1.41-0.16,2.15v8.14h-4.12v-9.67
				c0-0.62-0.01-1.09-0.02-1.39c-0.01-0.3-0.05-0.58-0.12-0.83c-0.16-0.58-0.46-1.06-0.9-1.46c-0.44-0.39-1.03-0.59-1.77-0.59
				c-0.62,0-1.22,0.17-1.78,0.52c-0.57,0.35-1.03,0.84-1.4,1.49c-0.37,0.67-0.59,1.4-0.66,2.2s-0.1,1.62-0.1,2.48v7.24H203.51z"/>
			<path d="M232.48,43.5V20.53h4.12v1.59c0.16-0.16,0.38-0.36,0.64-0.61c0.27-0.24,0.59-0.48,0.97-0.71
				c0.38-0.23,0.83-0.42,1.35-0.57c0.52-0.15,1.11-0.23,1.78-0.23c1.27,0,2.4,0.27,3.38,0.8c0.98,0.53,1.8,1.23,2.46,2.1
				c0.66,0.87,1.16,1.86,1.51,2.98c0.35,1.12,0.52,2.28,0.52,3.48c0,1.29-0.19,2.49-0.57,3.59c-0.38,1.1-0.92,2.05-1.61,2.86
				c-0.69,0.81-1.52,1.44-2.5,1.89c-0.97,0.45-2.03,0.68-3.19,0.68c-0.6,0-1.14-0.06-1.63-0.19c-0.49-0.13-0.92-0.29-1.32-0.49
				c-0.39-0.2-0.74-0.4-1.04-0.62c-0.3-0.22-0.55-0.43-0.76-0.64v7.07H232.48z M236.57,29.09c-0.02,0.9,0.08,1.69,0.29,2.36
				c0.22,0.67,0.53,1.23,0.92,1.68c0.39,0.45,0.85,0.79,1.37,1.01c0.52,0.22,1.07,0.33,1.65,0.33c0.51,0,1.01-0.09,1.51-0.28
				c0.5-0.18,0.94-0.49,1.33-0.9c0.39-0.42,0.72-0.96,0.97-1.65c0.25-0.68,0.38-1.51,0.38-2.48c0-1.09-0.16-1.96-0.49-2.63
				c-0.32-0.67-0.72-1.2-1.18-1.58c-0.46-0.38-0.94-0.64-1.42-0.76c-0.49-0.13-0.88-0.19-1.18-0.19c-0.49,0-0.97,0.09-1.46,0.28
				c-0.49,0.18-0.92,0.48-1.32,0.88c-0.39,0.4-0.72,0.93-0.97,1.58C236.74,27.38,236.6,28.16,236.57,29.09z"/>
			<path d="M255.7,25.86l-4.26-0.24c0.05-0.44,0.1-0.85,0.17-1.25c0.07-0.39,0.24-0.84,0.52-1.35c0.42-0.76,0.96-1.35,1.63-1.75
				c0.67-0.4,1.35-0.7,2.03-0.88c0.68-0.18,1.32-0.29,1.92-0.33c0.6-0.03,1.04-0.05,1.32-0.05c0.83,0,1.72,0.07,2.65,0.21
				c0.94,0.14,1.78,0.44,2.55,0.9c0.51,0.32,0.9,0.66,1.18,1.02c0.28,0.36,0.49,0.73,0.62,1.13c0.14,0.39,0.22,0.81,0.24,1.25
				c0.02,0.44,0.03,0.89,0.03,1.35v9.18c0,0.32,0.01,0.61,0.02,0.85c0.01,0.24,0.04,0.46,0.09,0.66c0.05,0.2,0.12,0.4,0.23,0.61
				c0.1,0.21,0.25,0.44,0.43,0.69h-4.92c-0.02-0.21-0.05-0.46-0.07-0.75c-0.02-0.29-0.03-0.49-0.03-0.61
				c-0.46,0.39-1.13,0.79-2.01,1.18c-0.88,0.39-1.92,0.59-3.12,0.59c-0.97,0-1.85-0.14-2.63-0.43c-0.79-0.29-1.44-0.68-1.98-1.16
				c-0.53-0.49-0.94-1.06-1.23-1.72c-0.29-0.66-0.43-1.36-0.43-2.1c0-0.83,0.18-1.62,0.55-2.36c0.3-0.62,0.69-1.14,1.16-1.54
				c0.47-0.4,0.96-0.73,1.47-0.97c0.51-0.24,1.02-0.43,1.54-0.55c0.52-0.13,0.99-0.23,1.4-0.29l2.13-0.43
				c0.52-0.1,0.96-0.2,1.32-0.29c0.36-0.09,0.67-0.18,0.94-0.26l0.99-0.29c0-0.21-0.02-0.46-0.05-0.76
				c-0.03-0.3-0.15-0.59-0.35-0.87c-0.2-0.28-0.49-0.51-0.88-0.71c-0.39-0.2-0.95-0.29-1.66-0.29c-0.88,0-1.56,0.12-2.04,0.35
				c-0.49,0.23-0.83,0.49-1.04,0.76c-0.23,0.28-0.36,0.54-0.38,0.78C255.71,25.36,255.7,25.61,255.7,25.86z M262.15,31.13v-1.91
				c-0.42,0.21-0.89,0.39-1.42,0.55c-0.53,0.16-1.27,0.32-2.22,0.49c-0.37,0.05-0.76,0.11-1.16,0.19c-0.4,0.08-0.78,0.21-1.13,0.38
				c-0.35,0.17-0.63,0.4-0.85,0.69c-0.22,0.29-0.33,0.66-0.33,1.13c0,0.67,0.26,1.18,0.78,1.52c0.52,0.35,1.2,0.52,2.03,0.52
				c1.06,0,1.95-0.2,2.65-0.61c0.7-0.4,1.17-0.87,1.4-1.4c0.12-0.25,0.18-0.51,0.21-0.78C262.14,31.65,262.15,31.39,262.15,31.13z"
				/>
			<path d="M284.19,24.93l-3.71,1.73c-0.07-0.28-0.2-0.59-0.4-0.94c-0.2-0.35-0.46-0.67-0.78-0.97c-0.32-0.3-0.71-0.55-1.16-0.74
				c-0.45-0.2-0.98-0.29-1.58-0.29c-1.2,0-2.22,0.46-3.05,1.39s-1.25,2.25-1.25,3.99c0,0.79,0.1,1.51,0.29,2.17
				c0.2,0.66,0.49,1.23,0.87,1.72c0.38,0.49,0.84,0.86,1.37,1.13c0.53,0.27,1.14,0.4,1.84,0.4c0.65,0,1.21-0.11,1.68-0.33
				c0.47-0.22,0.87-0.5,1.2-0.85c0.32-0.35,0.58-0.72,0.78-1.11c0.2-0.39,0.36-0.76,0.5-1.11l3.57,1.87
				c-0.35,0.95-0.8,1.76-1.37,2.43c-0.57,0.67-1.2,1.23-1.91,1.68c-0.7,0.45-1.44,0.78-2.22,0.99c-0.77,0.21-1.54,0.31-2.3,0.31
				c-1.2,0-2.33-0.22-3.38-0.66c-1.05-0.44-1.96-1.06-2.74-1.87c-0.77-0.81-1.38-1.78-1.82-2.91c-0.44-1.13-0.66-2.38-0.66-3.74
				c0-1.32,0.23-2.54,0.68-3.67c0.45-1.13,1.07-2.1,1.85-2.91c0.79-0.81,1.71-1.44,2.77-1.91c1.06-0.46,2.21-0.69,3.43-0.69
				c1.09,0,2.04,0.16,2.88,0.49c0.83,0.32,1.55,0.73,2.17,1.21c0.61,0.49,1.11,1.02,1.51,1.59S283.96,24.42,284.19,24.93z"/>
			<path d="M295,23.51h-3.71v7.83c0,0.53,0.01,0.99,0.03,1.39c0.02,0.39,0.09,0.72,0.21,0.97c0.12,0.25,0.31,0.44,0.59,0.55
				c0.28,0.12,0.66,0.17,1.14,0.17c0.32,0,0.62-0.01,0.88-0.03s0.55-0.08,0.85-0.17v3.5c-0.62,0.12-1.17,0.19-1.63,0.23
				c-0.46,0.03-0.92,0.05-1.39,0.05c-0.21,0-0.53-0.01-0.97-0.03c-0.44-0.02-0.89-0.1-1.35-0.23c-0.46-0.13-0.9-0.34-1.32-0.62
				c-0.42-0.29-0.73-0.7-0.94-1.23c-0.14-0.35-0.22-0.8-0.24-1.37c-0.02-0.57-0.03-1.29-0.03-2.17v-8.84h-2.53v-2.98h2.53v-6.13
				h4.16v6.13H295V23.51z"/>
			<path d="M310.77,13.35V33.7h9.7v4.16h-14.31v-24.5H310.77z"/>
			<path d="M326.64,25.86l-4.26-0.24c0.05-0.44,0.1-0.85,0.17-1.25c0.07-0.39,0.24-0.84,0.52-1.35c0.42-0.76,0.96-1.35,1.63-1.75
				c0.67-0.4,1.35-0.7,2.03-0.88c0.68-0.18,1.32-0.29,1.92-0.33c0.6-0.03,1.04-0.05,1.32-0.05c0.83,0,1.72,0.07,2.65,0.21
				s1.78,0.44,2.55,0.9c0.51,0.32,0.9,0.66,1.18,1.02c0.28,0.36,0.49,0.73,0.62,1.13c0.14,0.39,0.22,0.81,0.24,1.25
				c0.02,0.44,0.03,0.89,0.03,1.35v9.18c0,0.32,0.01,0.61,0.02,0.85s0.04,0.46,0.09,0.66c0.05,0.2,0.12,0.4,0.23,0.61
				c0.1,0.21,0.25,0.44,0.43,0.69h-4.92c-0.02-0.21-0.05-0.46-0.07-0.75c-0.02-0.29-0.03-0.49-0.03-0.61
				c-0.46,0.39-1.13,0.79-2.01,1.18c-0.88,0.39-1.92,0.59-3.12,0.59c-0.97,0-1.85-0.14-2.63-0.43c-0.79-0.29-1.44-0.68-1.98-1.16
				c-0.53-0.49-0.94-1.06-1.23-1.72c-0.29-0.66-0.43-1.36-0.43-2.1c0-0.83,0.18-1.62,0.55-2.36c0.3-0.62,0.69-1.14,1.16-1.54
				c0.47-0.4,0.96-0.73,1.47-0.97c0.51-0.24,1.02-0.43,1.54-0.55c0.52-0.13,0.99-0.23,1.4-0.29l2.13-0.43
				c0.52-0.1,0.96-0.2,1.32-0.29c0.36-0.09,0.67-0.18,0.94-0.26l0.99-0.29c0-0.21-0.02-0.46-0.05-0.76
				c-0.03-0.3-0.15-0.59-0.35-0.87c-0.2-0.28-0.49-0.51-0.88-0.71c-0.39-0.2-0.95-0.29-1.66-0.29c-0.88,0-1.56,0.12-2.04,0.35
				c-0.49,0.23-0.83,0.49-1.04,0.76c-0.23,0.28-0.36,0.54-0.38,0.78C326.65,25.36,326.64,25.61,326.64,25.86z M333.08,31.13v-1.91
				c-0.42,0.21-0.89,0.39-1.42,0.55c-0.53,0.16-1.27,0.32-2.22,0.49c-0.37,0.05-0.76,0.11-1.16,0.19c-0.4,0.08-0.78,0.21-1.13,0.38
				c-0.35,0.17-0.63,0.4-0.85,0.69c-0.22,0.29-0.33,0.66-0.33,1.13c0,0.67,0.26,1.18,0.78,1.52c0.52,0.35,1.2,0.52,2.03,0.52
				c1.06,0,1.95-0.2,2.65-0.61c0.7-0.4,1.17-0.87,1.4-1.4c0.12-0.25,0.18-0.51,0.21-0.78C333.07,31.65,333.08,31.39,333.08,31.13z"
				/>
			<path d="M340.98,13.39h4.12v8.59c1.43-1.32,3.11-1.98,5.03-1.98c0.97,0,1.91,0.21,2.82,0.64c0.91,0.43,1.72,1.04,2.43,1.84
				c0.7,0.8,1.27,1.76,1.7,2.88c0.43,1.12,0.64,2.37,0.64,3.76c0,1.41-0.21,2.69-0.64,3.83c-0.43,1.14-1,2.11-1.73,2.91
				c-0.73,0.8-1.57,1.42-2.51,1.85s-1.94,0.66-2.98,0.66c-0.58,0-1.1-0.07-1.58-0.21s-0.91-0.32-1.32-0.55
				c-0.4-0.23-0.76-0.49-1.06-0.76c-0.3-0.28-0.57-0.54-0.8-0.8v1.8h-4.12V13.39z M353.43,29.05c0.02-0.85-0.08-1.61-0.31-2.27
				c-0.23-0.66-0.55-1.21-0.95-1.65c-0.4-0.44-0.87-0.77-1.4-1.01c-0.53-0.23-1.07-0.35-1.63-0.35c-0.46,0-0.94,0.09-1.42,0.28
				c-0.49,0.18-0.92,0.49-1.32,0.9c-0.39,0.42-0.72,0.95-0.97,1.59c-0.25,0.65-0.38,1.43-0.38,2.36c0,0.53,0.03,0.98,0.09,1.35
				c0.06,0.37,0.12,0.66,0.19,0.87c0.21,0.83,0.51,1.47,0.92,1.91s0.82,0.76,1.25,0.97c0.43,0.21,0.81,0.33,1.16,0.36
				c0.35,0.03,0.57,0.05,0.66,0.05c0.76,0,1.4-0.17,1.92-0.52c0.52-0.35,0.94-0.79,1.26-1.32c0.32-0.53,0.55-1.11,0.69-1.73
				C353.32,30.23,353.4,29.63,353.43,29.05z"/>
		</g>
	</g>
	<g class="logo-tagline">
		<path class="st1" d="M97.91,57.74l-2.65-3.91h-2.69v3.91h-2.44V47.1h6.34c2.47,0,3.8,1.17,3.8,3.37c0,1.69-0.78,2.77-2.29,3.18
			l2.8,4.1H97.91z M92.57,51.73h3.63c1.08,0,1.58-0.41,1.58-1.27s-0.5-1.27-1.58-1.27h-3.63V51.73z"/>
		<path class="st1" d="M104,54.44c0.25,1.02,1.16,1.58,2.61,1.58c0.97,0,1.88-0.27,2.74-0.8l0.7,1.77
			c-0.99,0.63-2.18,0.94-3.57,0.94c-3.1,0-4.93-1.53-4.93-4.15c0-2.49,1.82-4.15,4.54-4.15c2.65,0,4.34,1.61,4.34,4.15
			c0,0.23,0,0.42-0.03,0.66H104z M104.03,52.94h4.12c-0.28-0.91-1.02-1.44-2.07-1.44C105.04,51.5,104.3,52.03,104.03,52.94z"/>
		<path class="st1" d="M111.25,56.82l0.78-1.63c0.92,0.61,2.08,0.97,3.51,0.97c1.16,0,1.69-0.23,1.69-0.67
			c0-0.47-0.33-0.59-1.83-0.74c-2.85-0.27-3.77-0.89-3.77-2.57c0-1.61,1.44-2.55,3.85-2.55c1.46,0,2.72,0.33,3.68,0.95l-0.75,1.55
			c-0.77-0.47-1.69-0.74-2.83-0.74c-1.05,0-1.58,0.23-1.58,0.66c0,0.47,0.34,0.59,1.85,0.74c2.82,0.27,3.76,0.89,3.76,2.57
			s-1.41,2.57-4.04,2.57C113.79,57.93,112.28,57.52,111.25,56.82z"/>
		<path class="st1" d="M122.92,54.44c0.25,1.02,1.16,1.58,2.61,1.58c0.97,0,1.88-0.27,2.74-0.8l0.7,1.77
			c-0.99,0.63-2.18,0.94-3.57,0.94c-3.1,0-4.93-1.53-4.93-4.15c0-2.49,1.82-4.15,4.54-4.15c2.65,0,4.34,1.61,4.34,4.15
			c0,0.23,0,0.42-0.03,0.66H122.92z M122.95,52.94h4.12c-0.28-0.91-1.02-1.44-2.07-1.44C123.95,51.5,123.21,52.03,122.95,52.94z"/>
		<path class="st1" d="M138.65,53.36v4.38h-2.35v-1.41c-0.69,1.02-1.85,1.6-3.19,1.6c-1.75,0-2.83-0.95-2.83-2.52
			c0-1.61,1.13-2.52,3.1-2.52c1.06,0,2.18,0.27,2.93,0.69V53.5c0-1.33-0.74-1.96-2.29-1.96c-0.94,0-1.75,0.23-2.61,0.74l-0.78-1.69
			c1.08-0.66,2.27-0.95,3.79-0.95C137.37,49.63,138.65,50.76,138.65,53.36z M136.3,54.89c-0.66-0.3-1.5-0.47-2.21-0.47
			c-0.94,0-1.42,0.31-1.42,0.89c0,0.55,0.44,0.86,1.25,0.86c0.91,0,1.77-0.39,2.38-1.1V54.89z"/>
		<path class="st1" d="M146.57,49.7l-0.14,2.19c-0.3-0.05-0.66-0.08-1-0.08c-1.19,0-2.02,0.39-2.65,1.24v4.7h-2.35v-7.92h2.35v1.64
			c0.72-1.22,1.72-1.83,3.15-1.83C146.15,49.63,146.39,49.65,146.57,49.7z"/>
		<path class="st1" d="M147.23,53.81c0-2.58,1.85-4.18,4.6-4.18c1.17,0,2.22,0.27,3.07,0.83l-0.66,1.77
			c-0.64-0.42-1.46-0.66-2.24-0.66c-1.46,0-2.38,0.86-2.38,2.22s0.92,2.19,2.49,2.19c0.86,0,1.63-0.25,2.35-0.72l0.72,1.8
			c-0.92,0.58-2,0.86-3.24,0.86C149.02,57.93,147.23,56.35,147.23,53.81z"/>
		<path class="st1" d="M164.61,52.58v5.17h-2.35v-4.68c0-1-0.49-1.49-1.46-1.49c-0.83,0-1.53,0.36-2.08,1.06v5.1h-2.35V46.63h2.35
			v4.6c0.78-1.06,1.78-1.6,3.04-1.6C163.56,49.63,164.61,50.73,164.61,52.58z"/>
		<path class="st1" d="M179.06,57.74l-0.92-0.81c-0.89,0.66-2.11,1-3.55,1c-2.65,0-4.26-1.17-4.26-3.19c0-1.66,1.06-2.43,2.27-2.88
			c-0.59-0.69-0.85-1.3-0.85-2.07c0-1.8,1.36-2.88,3.57-2.88c2.16,0,3.48,1.05,3.48,2.83c0,1.57-1.03,2.29-2.49,2.76l1.85,1.64
			c0.36-0.59,0.59-1.33,0.69-2.18l2.29,0.2c-0.16,1.32-0.61,2.44-1.41,3.37l2.47,2.21H179.06z M176.67,55.6l-2.76-2.46
			c-0.69,0.25-1.28,0.64-1.28,1.42c0,0.92,0.83,1.49,2.16,1.49C175.49,56.05,176.12,55.9,176.67,55.6z M174.05,49.82
			c0,0.47,0.19,0.81,0.85,1.42c1.22-0.33,1.75-0.59,1.75-1.39c0-0.78-0.5-1.21-1.3-1.21C174.54,48.65,174.05,49.09,174.05,49.82z"/>
		<path class="st1" d="M187.92,47.1h2.44v10.65h-2.44V47.1z"/>
		<path class="st1" d="M200.76,52.58v5.17h-2.35v-4.68c0-1-0.49-1.49-1.46-1.49c-0.83,0-1.53,0.36-2.08,1.06v5.1h-2.35v-7.92h2.35
			v1.41c0.78-1.06,1.78-1.6,3.04-1.6C199.71,49.63,200.76,50.73,200.76,52.58z"/>
		<path class="st1" d="M210.83,52.58v5.17h-2.35v-4.68c0-1-0.49-1.49-1.46-1.49c-0.83,0-1.53,0.36-2.08,1.06v5.1h-2.35v-7.92h2.35
			v1.41c0.78-1.06,1.78-1.6,3.04-1.6C209.78,49.63,210.83,50.73,210.83,52.58z"/>
		<path class="st1" d="M212.16,53.78c0-2.49,1.82-4.15,4.54-4.15c2.72,0,4.54,1.66,4.54,4.15s-1.82,4.15-4.54,4.15
			C213.98,57.93,212.16,56.27,212.16,53.78z M218.85,53.78c0-1.35-0.83-2.21-2.14-2.21c-1.31,0-2.14,0.86-2.14,2.21
			c0,1.35,0.83,2.21,2.14,2.21C218.02,55.99,218.85,55.13,218.85,53.78z"/>
		<path class="st1" d="M230.7,49.82l-3.4,7.92h-2.43l-3.4-7.92h2.54l2.13,5.39l2.13-5.39H230.7z"/>
		<path class="st1" d="M239.66,53.36v4.38h-2.35v-1.41c-0.69,1.02-1.85,1.6-3.19,1.6c-1.75,0-2.83-0.95-2.83-2.52
			c0-1.61,1.13-2.52,3.1-2.52c1.06,0,2.18,0.27,2.93,0.69V53.5c0-1.33-0.74-1.96-2.29-1.96c-0.94,0-1.75,0.23-2.61,0.74l-0.78-1.69
			c1.08-0.66,2.27-0.95,3.79-0.95C238.37,49.63,239.66,50.76,239.66,53.36z M237.31,54.89c-0.66-0.3-1.5-0.47-2.21-0.47
			c-0.94,0-1.42,0.31-1.42,0.89c0,0.55,0.44,0.86,1.25,0.86c0.91,0,1.77-0.39,2.38-1.1V54.89z"/>
		<path class="st1" d="M247.86,57.45c-0.66,0.33-1.41,0.49-2.3,0.49c-2.04,0-3.02-0.81-3.02-2.49v-3.85h-1.91v-1.77h1.91V47.1h2.35
			v2.72h2.77v1.77h-2.77v3.35c0,0.75,0.33,1.05,1.14,1.05c0.49,0,0.95-0.11,1.42-0.34L247.86,57.45z"/>
		<path class="st1" d="M249.1,47.32c0-0.74,0.53-1.25,1.32-1.25c0.78,0,1.31,0.52,1.31,1.25c0,0.74-0.53,1.25-1.31,1.25
			C249.63,48.57,249.1,48.05,249.1,47.32z M249.24,49.82h2.35v7.92h-2.35V49.82z"/>
		<path class="st1" d="M253.06,53.78c0-2.49,1.82-4.15,4.54-4.15c2.72,0,4.54,1.66,4.54,4.15s-1.82,4.15-4.54,4.15
			C254.87,57.93,253.06,56.27,253.06,53.78z M259.74,53.78c0-1.35-0.83-2.21-2.14-2.21c-1.31,0-2.14,0.86-2.14,2.21
			c0,1.35,0.83,2.21,2.14,2.21C258.91,55.99,259.74,55.13,259.74,53.78z"/>
		<path class="st1" d="M271.85,52.58v5.17h-2.35v-4.68c0-1-0.49-1.49-1.46-1.49c-0.83,0-1.53,0.36-2.08,1.06v5.1h-2.35v-7.92h2.35
			v1.41c0.78-1.06,1.78-1.6,3.04-1.6C270.8,49.63,271.85,50.73,271.85,52.58z"/>
		<path class="st1" d="M285.89,53.36v4.38h-2.35v-1.41c-0.69,1.02-1.85,1.6-3.19,1.6c-1.75,0-2.83-0.95-2.83-2.52
			c0-1.61,1.13-2.52,3.1-2.52c1.06,0,2.18,0.27,2.93,0.69V53.5c0-1.33-0.74-1.96-2.29-1.96c-0.94,0-1.75,0.23-2.61,0.74l-0.78-1.69
			c1.08-0.66,2.27-0.95,3.79-0.95C284.61,49.63,285.89,50.76,285.89,53.36z M283.54,54.89c-0.66-0.3-1.5-0.47-2.21-0.47
			c-0.94,0-1.42,0.31-1.42,0.89c0,0.55,0.44,0.86,1.25,0.86c0.91,0,1.77-0.39,2.38-1.1V54.89z"/>
		<path class="st1" d="M294.09,57.45c-0.66,0.33-1.41,0.49-2.3,0.49c-2.04,0-3.02-0.81-3.02-2.49v-3.85h-1.91v-1.77h1.91V47.1h2.35
			v2.72h2.77v1.77h-2.77v3.35c0,0.75,0.33,1.05,1.14,1.05c0.49,0,0.95-0.11,1.42-0.34L294.09,57.45z"/>
		<path class="st1" d="M306.29,57.45c-0.66,0.33-1.41,0.49-2.3,0.49c-2.04,0-3.02-0.81-3.02-2.49v-3.85h-1.91v-1.77h1.91V47.1h2.35
			v2.72h2.77v1.77h-2.77v3.35c0,0.75,0.33,1.05,1.14,1.05c0.49,0,0.95-0.11,1.42-0.34L306.29,57.45z"/>
		<path class="st1" d="M315.9,52.58v5.17h-2.35v-4.68c0-1-0.49-1.49-1.46-1.49c-0.83,0-1.53,0.36-2.08,1.06v5.1h-2.35V46.63h2.35
			v4.6c0.78-1.06,1.78-1.6,3.04-1.6C314.86,49.63,315.9,50.73,315.9,52.58z"/>
		<path class="st1" d="M319.68,54.44c0.25,1.02,1.16,1.58,2.61,1.58c0.97,0,1.88-0.27,2.74-0.8l0.7,1.77
			c-0.99,0.63-2.18,0.94-3.57,0.94c-3.1,0-4.93-1.53-4.93-4.15c0-2.49,1.82-4.15,4.54-4.15c2.65,0,4.34,1.61,4.34,4.15
			c0,0.23,0,0.42-0.03,0.66H319.68z M319.71,52.94h4.12c-0.28-0.91-1.02-1.44-2.07-1.44C320.71,51.5,319.98,52.03,319.71,52.94z"/>
		<path class="st1" d="M332.13,47.1h2.44v10.65h-2.44V47.1z"/>
		<path class="st1" d="M344.7,57.74l-2.65-3.91h-2.69v3.91h-2.44V47.1h6.34c2.47,0,3.8,1.17,3.8,3.37c0,1.69-0.78,2.77-2.29,3.18
			l2.8,4.1H344.7z M339.36,51.73h3.63c1.08,0,1.58-0.41,1.58-1.27s-0.5-1.27-1.58-1.27h-3.63V51.73z"/>
		<path class="st1" d="M348.58,52.47c0-3.44,2.33-5.56,6-5.56c1.49,0,2.76,0.34,3.9,1.08l-0.72,1.97c-1.05-0.63-1.97-0.89-2.99-0.89
			c-2.29,0-3.69,1.3-3.69,3.37c0,2.08,1.42,3.33,3.79,3.33c1.14,0,2.16-0.3,3.18-0.92l0.8,1.97c-1.05,0.74-2.49,1.11-4.13,1.11
			C350.85,57.93,348.58,55.86,348.58,52.47z"/>
	</g>
	
		<rect x="1.16" y="0.57" transform="matrix(-1 -1.224647e-16 1.224647e-16 -1 71.1914 70)" class="st1" width="68.86" height="68.86"/>
	<path d="M11.26,51.35v-9.96c0-0.21,0.08-0.41,0.23-0.56l5.27-5.27c0.31-0.31,0.31-0.81,0-1.12l-5.27-5.27
		c-0.15-0.15-0.23-0.35-0.23-0.56v-9.96c0-0.7,0.85-1.06,1.35-0.56l16.35,16.35c0.31,0.31,0.31,0.81,0,1.12L12.6,51.91
		C12.11,52.4,11.26,52.05,11.26,51.35z"/>
	<path d="M59.93,51.35v-9.96c0-0.21-0.08-0.41-0.23-0.56l-5.27-5.27c-0.31-0.31-0.31-0.81,0-1.12l5.27-5.27
		c0.15-0.15,0.23-0.35,0.23-0.56v-9.96c0-0.7-0.85-1.06-1.35-0.56L42.24,34.44c-0.31,0.31-0.31,0.81,0,1.12l16.35,16.35
		C59.08,52.4,59.93,52.05,59.93,51.35z"/>
	<path d="M51.94,59.34h-9.96c-0.21,0-0.41-0.08-0.56-0.23l-5.27-5.27c-0.31-0.31-0.81-0.31-1.12,0l-5.27,5.27
		c-0.15,0.15-0.35,0.23-0.56,0.23h-9.96c-0.7,0-1.06-0.85-0.56-1.35l16.35-16.35c0.31-0.31,0.81-0.31,1.12,0L52.5,57.99
		C53,58.49,52.65,59.34,51.94,59.34z"/>
	<path d="M51.94,10.75h-9.96c-0.21,0-0.41,0.08-0.56,0.23l-5.27,5.27c-0.31,0.31-0.81,0.31-1.12,0l-5.27-5.27
		c-0.15-0.15-0.35-0.23-0.56-0.23h-9.96c-0.7,0-1.06,0.85-0.56,1.35l16.35,16.35c0.31,0.31,0.81,0.31,1.12,0L52.5,12.1
		C53,11.6,52.65,10.75,51.94,10.75z"/>
</g>
</svg>
