<svg xmlns="http://www.w3.org/2000/svg" viewBox="0 0 434.88 57.22"><defs><style>.cls-1{fill:#fec938}</style></defs><g id="Layer_2" data-name="Layer 2"><g id="design"><path class="cls-1" d="M80.09 43.12h2.07v11.61h-2.07zm14.4 6.07v5.54h-2v-5.14a1.73 1.73 0 0 0-1.93-2 3.45 3.45 0 0 0-2.82 1.47v5.62h-2v-8.54h2v1.62a4.21 4.21 0 0 1 3.52-1.83 3 3 0 0 1 3.23 3.26zm11.97 0v5.54h-2v-5.14a1.73 1.73 0 0 0-1.93-2 3.45 3.45 0 0 0-2.82 1.47v5.62h-2v-8.54h2v1.62a4.24 4.24 0 0 1 3.52-1.83 3 3 0 0 1 3.23 3.26zm2.72 1.25c0-2.7 1.95-4.51 4.87-4.51s4.86 1.81 4.86 4.51-2 4.49-4.86 4.49-4.87-1.79-4.87-4.49zm7.72 0a2.86 2.86 0 1 0-2.85 2.78 2.66 2.66 0 0 0 2.85-2.78zm13.28-4.3l-3.87 8.59h-2l-3.9-8.59h2.15l2.8 6.42 2.79-6.42zM141 49.91v4.82h-2V53.1a4.61 4.61 0 0 1-3.78 1.83c-2 0-3.17-1-3.17-2.71s1.26-2.72 3.43-2.72a7.66 7.66 0 0 1 3.52.85v-.3c0-1.66-.87-2.43-2.75-2.43a5.41 5.41 0 0 0-3 .86l-.74-1.48a7.28 7.28 0 0 1 4-1c3.1-.07 4.49 1.16 4.49 3.91zm-2 1.76a6.72 6.72 0 0 0-3-.7c-1.28 0-1.93.41-1.93 1.19s.6 1.18 1.69 1.18a4.11 4.11 0 0 0 3.24-1.48zm12 2.73a5.24 5.24 0 0 1-2.41.53c-2.05 0-3.05-.87-3.05-2.66v-4.58h-2.26v-1.55h2.26v-3h2v3h3.24v1.55h-3.24v4.25c0 .92.39 1.28 1.38 1.28a3.47 3.47 0 0 0 1.67-.41zm2.45-10.94a1.21 1.21 0 1 1 1.21 1.16 1.13 1.13 0 0 1-1.21-1.16zm.22 2.68h2v8.59h-2zm4.85 4.3c0-2.7 1.95-4.51 4.87-4.51s4.86 1.81 4.86 4.51-1.94 4.49-4.86 4.49-4.87-1.79-4.87-4.49zm7.72 0a2.85 2.85 0 1 0-2.85 2.78 2.66 2.66 0 0 0 2.85-2.78zm13.59-1.25v5.54h-2v-5.14a1.72 1.72 0 0 0-1.93-2 3.41 3.41 0 0 0-2.81 1.47v5.62h-2v-8.54h2v1.62a4.21 4.21 0 0 1 3.51-1.83 3 3 0 0 1 3.23 3.26zm17.41.72v4.82h-2V53.1a4.61 4.61 0 0 1-3.78 1.83c-2 0-3.17-1-3.17-2.71s1.26-2.72 3.43-2.72a7.66 7.66 0 0 1 3.52.85v-.3c0-1.66-.87-2.43-2.75-2.43a5.41 5.41 0 0 0-3 .86l-.72-1.48a7.28 7.28 0 0 1 4-1c3.1-.07 4.47 1.16 4.47 3.91zm-2 1.76a6.72 6.72 0 0 0-3-.7c-1.28 0-1.93.41-1.93 1.19s.6 1.18 1.69 1.18a4.11 4.11 0 0 0 3.23-1.48zm11.99 2.73a5.24 5.24 0 0 1-2.41.53c-2 0-3-.87-3-2.66v-4.58h-2.26v-1.55h2.26v-3h2v3H207v1.55h-3.24v4.25c0 .92.39 1.28 1.38 1.28a3.44 3.44 0 0 0 1.67-.41zm15.34 0a5.24 5.24 0 0 1-2.41.53c-2 0-3.06-.87-3.06-2.66v-4.58h-2.25v-1.55h2.25v-3h2v3h3.24v1.55h-3.24v4.25c0 .92.39 1.28 1.38 1.28a3.47 3.47 0 0 0 1.67-.41zM234 49.19v5.54h-2v-5.14a1.73 1.73 0 0 0-1.93-2 3.45 3.45 0 0 0-2.82 1.47v5.62h-2V42.6h2v5.16a4.21 4.21 0 0 1 3.52-1.83 3 3 0 0 1 3.23 3.26zm4.75 1.81c.25 1.41 1.43 2.2 3.34 2.2a5.11 5.11 0 0 0 3.07-1l.67 1.56a6.7 6.7 0 0 1-3.83 1.17c-3.28 0-5.26-1.71-5.26-4.49s1.94-4.51 4.85-4.51 4.71 1.78 4.71 4.51v.6zm.05-1.47h5.51a2.91 2.91 0 0 0-5.51 0zm16.32-6.41h2.07v11.61h-2.07zM270 54.73l-3.18-4.55h-3.76v4.55H261V43.12h7c2.56 0 4 1.24 4 3.53a3.16 3.16 0 0 1-2.71 3.41l3.27 4.67zm-6.94-6.32h4.58c1.45 0 2.15-.58 2.15-1.76s-.7-1.76-2.15-1.76h-4.58zm11.76.59c0-3.68 2.52-6 6.49-6a7.44 7.44 0 0 1 4.26 1.21l-.66 1.69a6.44 6.44 0 0 0-3.52-1.06c-2.75 0-4.46 1.66-4.46 4.17s1.76 4.17 4.6 4.17a6.36 6.36 0 0 0 3.7-1.15l.75 1.71a7.82 7.82 0 0 1-4.57 1.28c-4.08-.09-6.59-2.39-6.59-6.02z"/><path d="M109.3 33.26a1.08 1.08 0 0 1-.48.13h-5c-.69 0-1.29.09-2.15.13a1.8 1.8 0 0 1-1-1.16c-.34-1-.69-1.93-1.08-3a5.5 5.5 0 0 1-.34-.69 79.72 79.72 0 0 0-10 0c-.61 1.21-1.12 2.54-1.81 4.13a4.74 4.74 0 0 0-.69.47 1.16 1.16 0 0 1-.34.09h-1.85c-.6 0-1.12.09-1.77.13a4.47 4.47 0 0 1-1.55 0h-1.25a.93.93 0 0 1-1-.26A7.46 7.46 0 0 1 79.4 31c.73-2 1.24-4.13 2-6.1.69-2.24 1.42-4.48 2.28-6.72.61-1.76 1.21-3.48 1.94-5.2a13.93 13.93 0 0 0 .56-1.81A65.4 65.4 0 0 1 88.8 4.5a1.58 1.58 0 0 1 1.7-1.09c1.93 0 4 0 5.85-.09.6 0 1.24.09 1.76.09a1.51 1.51 0 0 1 1.46.94 8.7 8.7 0 0 1 .52 1.34 72.39 72.39 0 0 1 3 7.66c.6 1.72 1.12 3.44 1.68 5.16 1 3 1.94 5.94 3.18 8.77.35 1 .61 2.07 1 3.1a10.27 10.27 0 0 1 .73 2.2 3.9 3.9 0 0 1-.38.68zM92.56 20.31a10.42 10.42 0 0 0 3.74-.08c-.64-1.85-1.33-3.62-2.06-5.47-.69.87-1.24 2.72-1.68 5.55zm22.7 13.08c-.43 0-.43 0-1.2-.51v-6.71a4.06 4.06 0 0 0 0-.78 13.57 13.57 0 0 1 0-2.92c0-1.38.09-2.76 0-4.18a11.48 11.48 0 0 1 0-2.41v-1.72c0-.86-.09-1.8 0-2.71a15.3 15.3 0 0 0 0-4 10.47 10.47 0 0 1 .09-2.84 1.32 1.32 0 0 1 1.46-1.2h1.59c1.21.08 2.41.21 3.53.38h.43a1.54 1.54 0 0 1 1.46 1 8 8 0 0 1 .26 1.16V9a11.09 11.09 0 0 0 .13 2.71 2 2 0 0 1 .09.91v17.29c0 1-.18 2-.22 3.1a50.15 50.15 0 0 1-7.62.38zM138.34 22a1.13 1.13 0 0 0-.22 1.16 3.13 3.13 0 0 1-.12 1.54 9.65 9.65 0 0 0 0 1.08V30c0 .91.09 1.68.09 2.71a3.16 3.16 0 0 0-.47.69 25.77 25.77 0 0 1-5.81.17h-1c-.69 0-.69 0-1.59-.6V5.47a2.16 2.16 0 0 1 .35-1.42 1.29 1.29 0 0 1 .47-.17c.86 0 1.68-.09 2.63-.09h7.61c.52 0 1 0 1.59.09a8.16 8.16 0 0 0 1 0 22.81 22.81 0 0 1 5.42.13 5.07 5.07 0 0 1 1.68.47c.35.13.86.35 1.21.52a6.07 6.07 0 0 1 3.22 3.7 11.12 11.12 0 0 1 .48 5.42 14 14 0 0 1-1.12 3.79 4.51 4.51 0 0 1-2.32 2.53 1.83 1.83 0 0 1-.43.35 12.22 12.22 0 0 0 1.16 2 30.33 30.33 0 0 1 2 3.66c.82 1.55 1.59 3.05 2.45 4.73a4.09 4.09 0 0 1 .17 1.85 2.23 2.23 0 0 1-1.46.09 4 4 0 0 0-1.85-.26c-1.59 0-3.23-.05-4.73-.05a1.26 1.26 0 0 1-1.12-.38 44.3 44.3 0 0 0-2.75-5.17 8.29 8.29 0 0 1-.56-1.16 3.72 3.72 0 0 0-.43-.77 5.32 5.32 0 0 1-.82-1.46 9.06 9.06 0 0 0-1.29-2.33 11.21 11.21 0 0 0-3.44.46zm.73-6.54h3.18a12.25 12.25 0 0 1 1.29-.13 2 2 0 0 0 1.72-1.42 2.52 2.52 0 0 0-.94-2.88 14 14 0 0 0-6 .12v4.22a2.68 2.68 0 0 0 .75.04zm23.69-11.67h7.18c1.38.09 2.63 0 4 0s3-.18 4.61 0a25.47 25.47 0 0 1 4.26.39 5.19 5.19 0 0 1 4.13 4.65c.08.81 0 1.72.08 2.54a7.41 7.41 0 0 1-.6 2.19c0 .26-.3.47-.52.69a19.61 19.61 0 0 1-2.79 3.1.36.36 0 0 0-.13.21c0 .35.39.26.52.35a7.62 7.62 0 0 1 2.66 1.72 6.14 6.14 0 0 1 2.11 4.56 8.4 8.4 0 0 1-1 4.51.4.4 0 0 0-.13.31 5.24 5.24 0 0 1-2.75 2.75 4.8 4.8 0 0 1-.61.17c-.47 0-.77.39-1.12.52a3.18 3.18 0 0 0-2.28.13 4.3 4.3 0 0 1-1.93.25 3.52 3.52 0 0 0-1.89.22 1.36 1.36 0 0 1-.74.09h-12.6a2.91 2.91 0 0 1-1.68-.48 1.79 1.79 0 0 1 0-1.33 4.57 4.57 0 0 0 .17-1.59V26c-.08-.9-.21-1.72-.21-2.62-.09-2-.09-4-.13-6 0-1.33-.09-2.62-.13-3.87-.17-1.94-.09-3.79-.09-5.64a16.56 16.56 0 0 1-.08-2 3.42 3.42 0 0 1 .34-1.68 2.16 2.16 0 0 1 1.35-.4zm7.87 10.46a2.69 2.69 0 0 0 .13.77c1.12-.08 2.11-.13 3.1-.21a23.73 23.73 0 0 0 3-.17c1.16-1.17 1.29-1.55.6-3.23a3.6 3.6 0 0 0-1.77-1.25 39 39 0 0 0-5 .26zm7.44 8.22a2.4 2.4 0 0 0-1.24-1.29 21.65 21.65 0 0 0-2.89.08c-1.07.09-2.15-.17-3.14.3a3.24 3.24 0 0 0-.13 1.55c0 .65.09 1.21.13 1.77s0 1.07.3 1.5c.22 0 .43.09.61 0a18.58 18.58 0 0 1 2.71-.13h1.72a2.41 2.41 0 0 0 1.59-.6 4.09 4.09 0 0 0 .34-3.18zm38.64 9.89a2.34 2.34 0 0 1-2.15 1 12.53 12.53 0 0 1-2.2.22 6.61 6.61 0 0 1-1.33-.09 17.52 17.52 0 0 0-1.94-.13c-2.06.22-4.08 0-6.15.09a2 2 0 0 1-.73-.09 18.5 18.5 0 0 0-5.08-.21h-2.36a1.16 1.16 0 0 1-1-.69c0-.69-.08-1.51-.08-2.28 0-2.37-.05-4.78-.05-7.1V11c0-.95-.08-1.81-.08-2.62a.68.68 0 0 1 0-.3c0-1.29.12-2.63.12-3.83a1.68 1.68 0 0 1 1.08-.78 3.48 3.48 0 0 1 .86-.08C198.21 3.28 201 3 203.8 3a43.12 43.12 0 0 0 6.11-.13 13.47 13.47 0 0 1 3.53.09 4.78 4.78 0 0 0 1.33 0c.48.08.82.08 1.21.17a5 5 0 0 1 .3 1 28.54 28.54 0 0 1 .13 5.38 5.14 5.14 0 0 1-.17.64 22.75 22.75 0 0 1-2.89.35c-2.23 0-4.51 0-6.75.13a23.72 23.72 0 0 0-3.1.21 5 5 0 0 0-.13 3.36 1 1 0 0 0 .65.3c1.8.09 3.7.21 5.55.13h3.61A1.91 1.91 0 0 1 214 17a4.31 4.31 0 0 0-.13 1.12v2a6.24 6.24 0 0 1-.17.69c-.26.08-.52.21-.82.3-.56 0-1.16 0-1.72.09-.13 0-.26.08-.39 0a6.54 6.54 0 0 0-2.75-.05h-4.48a2.23 2.23 0 0 0-.3.22 1.72 1.72 0 0 0 0 .64 32.77 32.77 0 0 0 .13 3.57c0 .05.13.09.13.09a2.38 2.38 0 0 1 1 .13c.26 0 .56.13.86.13a13.22 13.22 0 0 0 1.89-.09 18.71 18.71 0 0 1 4.61 0 15.31 15.31 0 0 0 4 0c.21-.13.47.13.77.13a39.14 39.14 0 0 1 .08 6.39zm14.67-28.82a46.13 46.13 0 0 1 .52 8.39v5.24c.08 2.07.21 4 .34 6a15.68 15.68 0 0 0 .13 1.6 2.58 2.58 0 0 0 1.68.17c1.37 0 2.66-.17 4.13-.22 1.89-.13 3.83-.17 5.76-.25h.39a1.25 1.25 0 0 1 1.12.81 6 6 0 0 1 .17 1.12v5.21c0 .21-.09.43-.09.73a2.52 2.52 0 0 1-1.54.51c-2.2.18-4.39.35-6.63.35-1.64 0-3.31.08-5 .08-.65 0-1.3 0-2-.08h-1.59a32.92 32.92 0 0 1-4.56.08 11.6 11.6 0 0 1-1.29-.12 2.12 2.12 0 0 1-.77-1.85c0-1.73 0-3.45-.09-5.12 0-4.22 0-8.48.09-12.7a2.75 2.75 0 0 1 0-.86c.25-2.36.08-4.64.25-6.92a6.18 6.18 0 0 0 0-1.29 1.19 1.19 0 0 1 .95-1c.52 0 1.08-.09 1.59-.09a8.41 8.41 0 0 0 2.76-.22h.3a8.24 8.24 0 0 0 1.42.18 7.88 7.88 0 0 0 1.34-.18c.24.21.49.3.62.43zm52.7 7.27a5.68 5.68 0 0 1-.52.64 19.61 19.61 0 0 1-4.47 2c-.86.09-1.59.22-2.32.26a2.18 2.18 0 0 1-1.12-.73 4.61 4.61 0 0 0-3.14-1.81 6.25 6.25 0 0 0-4 1 5 5 0 0 0-1.5 1.68 10.94 10.94 0 0 0-1.25 2.58 8.46 8.46 0 0 0-.47 4.26 13.65 13.65 0 0 1 .38 2.06 4.55 4.55 0 0 0 4.33 3.42c.34.08.6 0 .82.08a5.83 5.83 0 0 0 4.47-1.72 21.34 21.34 0 0 0 2.76-3.18 4 4 0 0 1 .6-.65 12.41 12.41 0 0 1 1.33.48c1.64.64 3.14 1.2 4.78 1.67a1.11 1.11 0 0 1 .82 1.55.57.57 0 0 1-.13.39 12.12 12.12 0 0 1-2.2 3.61c-.34.3-.47.78-.82 1.08a11.75 11.75 0 0 1-6.88 4c-.39.13-.77.26-1.33.47h-3.06a21.5 21.5 0 0 1-4.39-.47 10.23 10.23 0 0 1-4.77-2.71 19.22 19.22 0 0 1-2.49-3.49c-.34-.64-.73-1.24-1.08-1.93a9.09 9.09 0 0 1-1.07-4.56v-2.28c0-.35-.13-.69.08-1a6.79 6.79 0 0 0 .22-2.19c.21-.73.39-1.34.52-1.85A26.58 26.58 0 0 1 259.86 9a12.12 12.12 0 0 1 4.08-4.35 14.4 14.4 0 0 1 2.2-1c.43-.21.86-.3 1.29-.52a6.86 6.86 0 0 1 3.57-.54h1.72a22.94 22.94 0 0 1 7 2.41c.13 0 .21.17.38.21A17.4 17.4 0 0 1 284 9.9a5.44 5.44 0 0 1 .22.52 2.52 2.52 0 0 1-.14.39zm28.02 21.55a2.34 2.34 0 0 1-2.15 1 12.53 12.53 0 0 1-2.2.22 6.61 6.61 0 0 1-1.33-.09 17.52 17.52 0 0 0-1.94-.13c-2.06.22-4.08 0-6.15.09a2 2 0 0 1-.73-.09 18.5 18.5 0 0 0-5.08-.21h-2.36a1.16 1.16 0 0 1-1-.69c0-.69-.08-1.51-.08-2.28 0-2.37-.05-4.78-.05-7.1V11c0-.95-.08-1.81-.08-2.62a.68.68 0 0 1 0-.3c0-1.29.12-2.63.12-3.83a1.68 1.68 0 0 1 1.08-.78 3.48 3.48 0 0 1 .86-.08c2.67-.13 5.42-.39 8.26-.39a43.12 43.12 0 0 0 6.11-.13 13.47 13.47 0 0 1 3.53.09 4.78 4.78 0 0 0 1.33 0c.48.08.82.08 1.21.17a5 5 0 0 1 .3 1 28.54 28.54 0 0 1 .13 5.38 5.14 5.14 0 0 1-.17.64 22.75 22.75 0 0 1-2.89.35c-2.23 0-4.51 0-6.75.13a23.72 23.72 0 0 0-3.1.21 5 5 0 0 0-.13 3.36 1 1 0 0 0 .65.3c1.8.09 3.7.21 5.55.13h3.61a1.91 1.91 0 0 1 .82 2.32 4.31 4.31 0 0 0-.13 1.12v2a6.24 6.24 0 0 1-.17.69c-.26.08-.52.21-.82.3-.56 0-1.16 0-1.72.09-.13 0-.26.08-.39 0a6.54 6.54 0 0 0-2.75-.05h-4.48a2.23 2.23 0 0 0-.3.22 1.72 1.72 0 0 0 0 .64 32.77 32.77 0 0 0 .13 3.57c0 .05.13.09.13.09a2.38 2.38 0 0 1 1 .13c.26 0 .56.13.86.13a13.22 13.22 0 0 0 1.89-.09 18.71 18.71 0 0 1 4.61 0 15.31 15.31 0 0 0 4 0c.21-.13.47.13.77.13a39.14 39.14 0 0 1 0 6.44zm4.24-4.36V17.78c0-4 .05-7.83.05-11.71a1.88 1.88 0 0 1 .9-1.8 24.85 24.85 0 0 1 7.36 0c.68.78 1.37 1.47 2 2.24.82 1 1.68 2.2 2.54 3.23q3 3.54 5.81 7c.25.13.34.39.6.6a6.52 6.52 0 0 0 0-1.8 17.11 17.11 0 0 1-.17-2.54V9.3c-.09-1-.22-2.28-.3-3.31V5a5.28 5.28 0 0 0 .56-.69c2.62-.09 5.2-.09 7.87 0a1.74 1.74 0 0 1 .17.65 13.86 13.86 0 0 1 0 1.46 5.07 5.07 0 0 0 .51 2.37 10.18 10.18 0 0 0 0 3.61 1.93 1.93 0 0 1 0 .86 4.41 4.41 0 0 0 0 2c-.21.82.09 1.81-.13 2.67a7.36 7.36 0 0 0 .13 1.59c.09.52-.3 1-.13 1.51a.72.72 0 0 1 .09.51c-.39 1.55.21 3.23-.09 4.86a9.09 9.09 0 0 0 .09 2.84 10.31 10.31 0 0 1-.26 4.13 5.18 5.18 0 0 1-1.89.35c-1.51.09-3.06.09-4.56.09a2.41 2.41 0 0 1-1.9-.87c-.6-.86-1.2-1.54-1.76-2.32-1.12-1.46-2.07-3.05-3.14-4.39a30.94 30.94 0 0 1-2.8-3.78 1.2 1.2 0 0 0-.43-.56 16 16 0 0 1-2.36-3.27c0-.13-.22-.17-.35-.26a.92.92 0 0 0-.08.26 59.47 59.47 0 0 0 .17 6.24 13.6 13.6 0 0 1 .13 2.32v5.64a7.48 7.48 0 0 0-.56.55 1 1 0 0 1-.48.13c-1.29.13-2.58.22-3.87.31-.51 0-1.07.12-1.59.17-.69.08-.82.08-1.89-.52-.07-1.92-.24-3.77-.24-5.46zm41.32 5.14a7.7 7.7 0 0 0-.52-.69v-4.09a7.23 7.23 0 0 0-.26-2.41 10.68 10.68 0 0 1 0-2.32v-5.51c0-.3.13-.64.13-.95a8.14 8.14 0 0 0 0-2 10.15 10.15 0 0 1-.13-3v-.77a2.13 2.13 0 0 0-.69-.22c-.6 0-1.21-.13-1.81-.13h-2.32a14.62 14.62 0 0 1-4.13-.25 11.43 11.43 0 0 1-.22-2.93 10.16 10.16 0 0 0 0-2.58 1.5 1.5 0 0 1 .29-1.24 4.83 4.83 0 0 1 1.68-.39c1.72 0 3.4-.17 5.07-.25s3.49-.09 5.17 0c3.22.38 6.45.21 9.68.38l4.43.13a5.82 5.82 0 0 1 .82.13c.08.3.34.56.34.82.09 1.81.43 3.66.34 5.55a.52.52 0 0 1-.12.26 5.09 5.09 0 0 1-3.1.38 32.23 32.23 0 0 0-4.91 0 3.13 3.13 0 0 0-1 .22 7.92 7.92 0 0 0 0 1.76c0 .9-.09 2-.09 3a16.17 16.17 0 0 1 0 2.88 9.59 9.59 0 0 0-.13 2.28c.13 3.32-.09 6.67-.09 10v.65a1.59 1.59 0 0 1-.81 1.38zm45.34-.78a2.35 2.35 0 0 1-2.15 1 12.62 12.62 0 0 1-2.2.22 6.61 6.61 0 0 1-1.33-.09 17.52 17.52 0 0 0-1.94-.13c-2.06.22-4.08 0-6.15.09a2 2 0 0 1-.73-.09 18.5 18.5 0 0 0-5.08-.21h-2.36a1.15 1.15 0 0 1-1-.69c0-.69-.08-1.51-.08-2.28 0-2.37-.05-4.78-.05-7.1V11c0-.95-.08-1.81-.08-2.62a.56.56 0 0 1-.05-.3c.05-1.29.13-2.63.13-3.83a1.68 1.68 0 0 1 1.07-.76 3.44 3.44 0 0 1 .86-.08c2.67-.13 5.42-.39 8.26-.39a43.15 43.15 0 0 0 6.11-.13 13.47 13.47 0 0 1 3.53.09 4.78 4.78 0 0 0 1.33 0c.47.08.82.08 1.21.17a5.74 5.74 0 0 1 .3 1 28.54 28.54 0 0 1 .13 5.38 3.94 3.94 0 0 1-.18.64 22.39 22.39 0 0 1-2.88.35c-2.24 0-4.52 0-6.75.13a23.72 23.72 0 0 0-3.1.21 5 5 0 0 0-.13 3.36 1 1 0 0 0 .65.3c1.8.09 3.7.21 5.55.13h3.61a1.91 1.91 0 0 1 .82 2.32 4.31 4.31 0 0 0-.13 1.12v2a6.24 6.24 0 0 1-.17.69c-.26.08-.52.21-.82.3-.56 0-1.16 0-1.72.09-.13 0-.26.08-.39 0a6.54 6.54 0 0 0-2.75-.05h-4.48a2.23 2.23 0 0 0-.3.22 1.72 1.72 0 0 0 0 .64 32.77 32.77 0 0 0 .13 3.57c0 .05.13.09.13.09a2.38 2.38 0 0 1 1 .13c.26 0 .56.13.86.13a13.29 13.29 0 0 0 1.89-.09 18.71 18.71 0 0 1 4.61 0 15.31 15.31 0 0 0 4 0c.21-.13.47.13.77.13a40.33 40.33 0 0 1 .05 6.42zM416.35 22a1.15 1.15 0 0 0-.21 1.16 3.36 3.36 0 0 1-.09 1.59 9.65 9.65 0 0 0 0 1.08V30c0 .91.09 1.68.09 2.71a3.16 3.16 0 0 0-.48.69 25.67 25.67 0 0 1-5.8.17h-.95c-.69 0-.69 0-1.59-.6-.05-1.29-.05-2.54-.05-3.91V5.47a2.16 2.16 0 0 1 .35-1.42 1.22 1.22 0 0 1 .47-.17c.86 0 1.68-.09 2.62-.09h7.62c.51 0 1 0 1.59.09a8.17 8.17 0 0 0 1 0 22.81 22.81 0 0 1 5.42.13 5.14 5.14 0 0 1 1.68.47c.34.13.86.35 1.2.52a6.09 6.09 0 0 1 3.23 3.7 11 11 0 0 1 .47 5.42 13.63 13.63 0 0 1-1.12 3.79 4.48 4.48 0 0 1-2.32 2.53 1.83 1.83 0 0 1-.43.35 13 13 0 0 0 1.16 2 30.4 30.4 0 0 1 2 3.66c.81 1.55 1.59 3.05 2.45 4.73a4.23 4.23 0 0 1 .17 1.85 2.23 2.23 0 0 1-1.46.09 4 4 0 0 0-1.85-.26c-1.59 0-3.23-.05-4.74-.05a1.24 1.24 0 0 1-1.11-.38 44.38 44.38 0 0 0-2.76-5.17 9.58 9.58 0 0 1-.56-1.16 3.31 3.31 0 0 0-.43-.77 5.9 5.9 0 0 1-.82-1.46 8.5 8.5 0 0 0-1.29-2.33 11.29 11.29 0 0 0-3.46.46zm.73-6.54h3.19a12.25 12.25 0 0 1 1.29-.13 2 2 0 0 0 1.72-1.42 2.53 2.53 0 0 0-.95-2.88 14 14 0 0 0-6 .12v4.22a2.8 2.8 0 0 0 .75.04z" fill="#fff"/><path class="cls-1" d="M14.76 57.22c-9.31 0-11.34-.18-12.36-.57-2.49-1-3-10.48-1.64-28.29.67-8.49.89-17.43.5-20.33-.43-3.22-.35-4.76.26-5.32h.06C3.22 1.75 19.48.37 37.13.08 40.15 0 42.72 0 45 0c9.32 0 13.86.44 15.18 1.47.7 1.66 1.39 12.33.83 27.3-.53 13.88-1.52 25.3-2.35 27.15-1.21.43-6.67.93-13.36 1-15.06.23-24.19.3-30.54.3zM3.89 53.6l5 .24c3.26.15 8.84.22 17.07.22h3.63v-.52c0-.87-.06-2-.1-3.41v-.47h-.47l-1.16-.06c-2.67-.16-3.91-.35-4.21-1s.51-1.95 2.62-4.59C28 41.81 29 40.69 30 40.6h.16a3 3 0 0 1 1.74.87c.81.68 1.17 1.49.93 2.08a1.34 1.34 0 0 1-1.35.69H31a3.27 3.27 0 0 0-2.48 1.35c-.28.31-.51.57-.68.78l-.66.81h1.33c2.81 0 10.58-.33 12.88-.58l.85-.09-.5-.7a11.76 11.76 0 0 0-1.47-1.64c-1.2-1.15-3.86-3.83-5.93-6l-3.67-3.81-2.35 2.57c-3 3.29-12.85 13.21-14.33 13.22-.29-.08-.68-.23-.77-.61-.22-.84 1.06-2.41 5.25-6.46 3-2.91 6.78-6.76 8.42-8.6 1.94-2.16 3.42-3.3 3.88-3.3s2 1.36 3.59 3.06 4.79 5 7.35 7.57a45.74 45.74 0 0 1 4.89 5.35 1.07 1.07 0 0 1-.15 1c-.51.71-2 1.14-4.08 1.2-1.52 0-4.54.18-6.6.3-.87 0-2 .08-3.35.08h-.82v4.27l.51.09c8.35 0 18-.16 20.23-.38l4.81-.49V41.79c0-2.8.12-7.09.3-11.75v-.52h-.77c-.64 0-1.4 0-2.29-.05h-1.38v.5c0 .52 0 1-.07 1.47-.16 2.67-.35 3.91-1 4.21a.88.88 0 0 1-.33.07c-.83 0-2.29-1.12-4.26-2.69-2.16-1.73-3.27-2.78-3.37-3.75a2.78 2.78 0 0 1 .87-1.9 2.4 2.4 0 0 1 1.69-1 1 1 0 0 1 .39.08c.49.2.74.79.68 1.59a3.15 3.15 0 0 0 1.34 2.73c.3.28.57.51.78.68l.8.66V31c0-2.76-.32-10.89-.57-13.17l-.1-.85-.69.49a12.08 12.08 0 0 0-1.64 1.48c-1.18 1.22-3.86 3.88-6 5.92l-3.82 3.67 2.58 2.35c3.28 3 13.21 12.86 13.22 14.33a1 1 0 0 1-.61.78.62.62 0 0 1-.19 0c-1 0-3-1.85-6.28-5.28-2.9-3-6.75-6.77-8.59-8.41-2.11-1.89-3.33-3.46-3.3-3.89s1.35-2 3.06-3.58 5-4.79 7.57-7.35a46.35 46.35 0 0 1 5.35-4.89 1.34 1.34 0 0 1 .35 0 .94.94 0 0 1 .59.2c.72.51 1.15 2 1.21 4.07 0 1.54.18 4.57.3 6.61.05.89.08 2.13.08 3.49v.53h.52c.87-.05 2-.08 3.5-.12h.47v-.46c.14-3.37.31-6.49.48-9l.43-14.38-5.31-.2c-1 0-2.3-.05-3.91-.05-4.2 0-10.29.11-17.15.31h-.49V4c0 .72 0 1.58-.05 2.62 0 .43-.05 1.65-.05 1.65h.5l1.09.05c2.67.16 3.91.35 4.21 1s-.51 2-2.62 4.59C33 16.1 31.92 17.22 31 17.31h-.14a3 3 0 0 1-1.76-.87c-.81-.68-1.17-1.49-.93-2.08a1.34 1.34 0 0 1 1.36-.69H30a3.28 3.28 0 0 0 2.46-1.35c.28-.31.51-.57.68-.78l.66-.8h-1.39c-3.08 0-10.63.34-12.82.58l-.85.09.5.7a11.76 11.76 0 0 0 1.47 1.64c1.22 1.17 3.87 3.85 5.93 6l3.67 3.81L32.64 21C35.73 17.58 45.48 7.76 47 7.76c.29.08.68.23.77.61.22.84-1.06 2.41-5.25 6.47-3 2.9-6.78 6.75-8.42 8.59-1.94 2.16-3.42 3.3-3.88 3.3s-2-1.36-3.59-3.06-4.77-5-7.35-7.57a43.51 43.51 0 0 1-4.89-5.35 1.07 1.07 0 0 1 .15-.95c.51-.71 2-1.14 4.08-1.2 1.53 0 4.55-.18 6.6-.3.89-.05 2.11-.08 3.44-.08h1v-.53c0-.9-.09-2.17-.12-3.62v-.5h-.51c-9.4.31-20.89.82-22.29 1.25-.87.27-1.69.53-3.1 22v.56h.55c.92 0 2.1-.07 3.64-.11h.46l.05-.82c.16-2.67.35-3.91 1-4.21a.88.88 0 0 1 .33-.06c.83 0 2.29 1.11 4.26 2.69 2.16 1.72 3.27 2.77 3.36 3.74a2.73 2.73 0 0 1-.86 1.9 2.4 2.4 0 0 1-1.69 1 1 1 0 0 1-.39-.07c-.49-.2-.75-.8-.68-1.6a3.16 3.16 0 0 0-1.34-2.73l-.78-.68-.81-.65v1c0 2.75.33 10.87.58 13.16l.09.86.7-.5a11.76 11.76 0 0 0 1.64-1.47c1.18-1.23 3.86-3.89 6-5.93l3.81-3.67-2.7-2.23C17.57 24 7.65 14.09 7.64 12.62a1 1 0 0 1 .61-.78h.19c1 0 3 1.85 6.28 5.28 2.89 3 6.75 6.77 8.59 8.42 2.11 1.88 3.33 3.45 3.3 3.88s-1.38 2.04-3.06 3.58-5 4.79-7.57 7.35a48.17 48.17 0 0 1-5.35 4.89 1.12 1.12 0 0 1-.35.06 1.05 1.05 0 0 1-.6-.2c-.71-.51-1.14-2-1.2-4.08-.05-1.57-.18-4.6-.3-6.61-.07-1.12-.09-2.73-.07-4.42v-.52H6.88c-.65 0-1.4 0-2.29-.05h-1.2z"/></g></g></svg>