<svg xmlns="http://www.w3.org/2000/svg" viewBox="0 0 68.27 74.09"><path d="M37.37.65C35.41 2 33.13 7 33.25 9.89c.08 1.95.84 3.67 2.9 6.57 4.75 6.69 4.76 8.77.06 14.11-2.79 3.17-3.16 3.37-6.34 3.5a33.56 33.56 0 0 1-5.47-.2l-2.1-.35 1.24-2.3c2.08-3.86 1.53-6-2.38-9.23-1.92-1.6-3.44-3.2-3.46-3.64-.05-1.19 2.63-3.66 5-4.58s2.8-2.91.91-3.54c-1.48-.5-6.47 2.24-8 4.43a6.94 6.94 0 0 0-1.13 4.19c.09 2.14.58 2.86 3.66 5.34l3.57 2.87L20 30.31l-1.62 3.24-8.58.79a64.68 64.68 0 0 0-9.18 1.21c-.34.23-.62 2.74-.62 5.59C0 56.64 1 60 7.48 66c6.07 5.6 10.77 7.45 20.2 8 11 .6 20.46-.92 25.6-4.11 3.4-2.12 9.34-8.91 11-12.62 1.91-4.19 4.7-20.44 3.77-22-.61-1-1.85-1.26-8-1.42a52.38 52.38 0 0 1-7.31-.46 16.32 16.32 0 0 1 1.57-2.52c2.18-3.12 1.87-5.64-1.1-8.83-2-2.17-2.32-2.85-1.79-4a5.55 5.55 0 0 1 1.93-2.12c1.42-.82 1.67-3 .39-3.46-2.5-.84-5.52 2.43-6 6.49-.23 2 .1 2.72 2.22 4.88a15 15 0 0 1 2.5 3 21.09 21.09 0 0 1-2.32 3.87c-1.78 2.59-2.66 3.34-3.68 3.1a28.79 28.79 0 0 0-5-.19c-3.57.11-3.61.09-2.23-1.16a11.86 11.86 0 0 0 3.81-8.87c-.1-2.36-.8-4-3.38-8s-3.18-5.35-2.88-7c.58-3.13 2.56-5.4 4.82-5.5 1.65-.06 1.94-.32 1.72-1.56S42.65.06 40.79 0a7.53 7.53 0 0 0-3.42.65zm10.19 36.68c9.28 0 17 .07 17.1.21.6.55-2.53 15.94-3.8 18.71C58.9 60.5 52.8 66.61 49.09 68c-9.19 3.48-24.19 3.64-31.78.34a33.26 33.26 0 0 1-7.55-4.82C5.17 59.4 4 56.21 3.62 46.35l-.32-7.8 2.16-.41c2.41-.45 17.46-.74 42.1-.81z" fill="#fff" data-name="Layer 2"/></svg>