<svg xmlns="http://www.w3.org/2000/svg" viewBox="0 0 71.47 83.12"><path d="M32.58 2.2C27.86 5 25 7.6 16.81 16.47A135.73 135.73 0 0 1 4.92 27.88c-3.74 3-5 4.4-4.91 5.35a1.86 1.86 0 0 0 1.27 1.5c1.34.25 4.59-2.67 17.58-15.79C29.15 8.55 36.44 2.7 38.22 3.38c2.91 1.13 25.31 18 26.55 20 .17.28-4.31.68-9.95.89s-14 1-18.5 1.68-9.32 1.29-10.65 1.29h-2.41L27.57 24c2.35-1.79 5.68-4.38 7.32-5.67l3-2.38 1.88 1.9c1.95 2 5.09 2.52 5.09.89 0-1.39-5.2-6-6.78-6-.77 0-3.61 1.71-6.34 3.83s-7.1 5.38-9.75 7.28a53.6 53.6 0 0 0-5.61 4.41c-1.28 1.53.35 2.85 3.52 2.85s17.23-1.62 22.74-2.61c2.08-.38 9.19-.88 15.71-1.11 12-.43 13.06-.66 13.11-2.94 0-.38-1.76-2-4-3.66-6-4.48-11.17-8.55-15.14-12C47.47 4.57 39.93 0 37.9 0a15.26 15.26 0 0 0-5.32 2.2zm25.48 32.28c-.14.13-5.07.55-11 .93-29.36 1.89-32.7 2.18-33.13 2.86-.62 1-.12 42.23.53 43.44.88 1.64 1.91 1.76 7.61.85 7.63-1.22 23.57.52 33.77 0 5.26-.25 9-.7 9.48-1.14s.7-6.62.63-22.27c-.11-25.35 0-22.76-1.17-24-.89-.89-6-1.46-6.72-.75zm4.53 4.68c0 .94.06 10.26.1 20.72l.06 19-8.17.41c-12.68.62-25.47-1.35-34.66.24l-2.35.4V67.64c0-6.78-.18-13-.41-18l-.41-8.93 4.37-.41c2.4-.23 10.52-.73 18-1.11s15.19-.89 17.1-1.19c6.15-.87 6.34-.84 6.37 1.13z" fill="#fff" data-name="Layer 2"/></svg>