<svg xmlns="http://www.w3.org/2000/svg" viewBox="0 0 77.51 75.7"><defs><style>.cls-1{fill:#fff;}</style></defs><title>Asset 28</title><g id="Layer_2" data-name="Layer 2"><g id="design"><path class="cls-1" d="M29.92,75.7c-1.78,0-2.72-.21-3.24-.74-.83-.83-.82-2.72-.81-6.15V67.75a54.4,54.4,0,0,0-.37-7.87c-.41-1.1-1.82-1.21-8.18-1.21a106.4,106.4,0,0,0-11.75.62,29,29,0,0,1-3.32.37h0c-.82,0-1-.18-1.56-.86A2.59,2.59,0,0,1,.1,56.26C.33,55.17.74,42.57,1,31c.25-10.87.6-23.51,1.17-24.69S2.72,5.16,6.85,5A354.11,354.11,0,0,0,49.52.78c2-.32,4.24-.69,4.74-.78a5.53,5.53,0,0,1,1.22.8c1,.8,1,.82.43,5.5a74.21,74.21,0,0,0-.47,9.34l.16,4.86,3-.34C60,20,64.57,19.47,68.78,19c3.25-.39,5.37-.61,6.57-.61,1,0,1.29.16,1.46.33.54.68.64,8.26.68,26.13,0,13.92,0,26.12,0,26.64a2.76,2.76,0,0,1-1.21,1.46c-1,.65-4.09.9-15.65,1.27-8,.26-18.71.76-23.84,1.12l-1.38.1C33.1,75.57,31.28,75.7,29.92,75.7ZM71.56,22.21c-1.24,0-3.62.25-5.32.5s-8.35.86-14.9,1.37c-11.46.9-18.77,1.71-20.59,2.27-1,.3-1.21,1.54-1.45,7.79,0,.36-.47,37.12.25,37.84.17.16.33.19,1.13.19,1.38,0,4.32-.13,7.47-.32,4.39-.28,13.43-.65,20.15-.83s13-.45,13.93-.59l2.11-.31-.06-48ZM51.4,4c-.48.08-14,1.91-21.67,2.91-3.5.47-10.34,1-15.26,1.2l-9.4.38-.34,10c-.19,5.28-.49,15.67-.67,23.17L3.72,55.76l10.4-.32c4-.12,10.14-.36,10.69-.52.79-.22,1.06-1,1.06-15,0-12.46.1-14.3.84-15.2,1.24-1.5,6-2.5,15.57-3.26,1.42-.11,8.51-.7,9.15-1.28s.78-6.51.8-8.31c.09-7.27-.25-7.61-.37-7.73L51.71,4H51.4Z"/><path class="cls-1" d="M37.25,45.62a1.43,1.43,0,0,1-.34,0c-.3-.12-.54-.67-.53-1.33a1.64,1.64,0,0,1,.67-1.53c.46-.16,5.23-.79,11.33-1.44,5.81-.61,11.54-1.32,12.78-1.59A19.1,19.1,0,0,1,65,39.19c1.61,0,1.89.52,2,.69A1.21,1.21,0,0,1,67,41c-.3.67-1.31,1.26-2.78,1.6-3.21.76-23.4,3-27,3Z"/><path class="cls-1" d="M41.35,53.29c-2,0-2.2-.59-2.2-1.36,0-1.07,1.12-1.57,9-3.07,3.73-.7,7.64-1.32,8.55-1.35h.16a2.26,2.26,0,0,1,2,.73,1.2,1.2,0,0,1-.09,1.18c-.61,1.12-.61,1.12-9.89,2.86a46.34,46.34,0,0,1-7.5,1Z"/></g></g></svg>