<svg xmlns="http://www.w3.org/2000/svg" viewBox="0 0 76.29 74.55"><defs><style>.cls-1{fill:#fff;}</style></defs><title>Asset 26</title><g id="Layer_2" data-name="Layer 2"><g id="design"><path class="cls-1" d="M38.67,74.55c-1.73,0-3.84,0-7.26-.15-4.81-.15-10.09-.4-10.61-.55a2.23,2.23,0,0,1-1.29-1,54.27,54.27,0,0,1-.6-7.69c-.13-3.75-.35-7.4-.48-8,0-.11,0-.21-.06-.3-.1-.64-.1-.67-7.89-.7H7.94c-6.5,0-7.52-.11-7.83-.67s.13-11.2.13-11.31a141.39,141.39,0,0,0,0-16.45c-.4-5.84-.41-5.95.39-6.63s10.27-2.05,15.88-2.46l.42,0c2.15-.14,2.15-.14,2.28-6.67l0-1.16c.17-8.32.17-8.48,2.72-9.62C23.7.39,28.37,0,35.87,0c2,0,4.23,0,6.64.08L55.7.37c3.81,0,3.81.22,3.85,9l0,7.48,3.71-.08c1.58,0,2.66-.05,3.58-.05,1.67,0,2.77.06,5.26.24L73,17c1.15,0,2,.09,2.53.69,1,1.12.86,3.87.37,13l-.18,3.43c-.44,8.35-.73,16.69-.65,18.58.15,3.39.16,3.6-.85,4.2s-8.07,1.42-13.29,1.71l-2.46.14-.26,3.68a42.94,42.94,0,0,0,0,6.33c.18,1.62.18,2.85-.42,3.57a3.15,3.15,0,0,1-2.37.87c-.94.07-4.51.44-8,.81A72.38,72.38,0,0,1,38.67,74.55Zm-7.76-3.43c2.83.12,5.11.21,7,.21a56.34,56.34,0,0,0,6.91-.44c3-.34,6.44-.69,7.76-.77L54.74,70l.08-5.89c.1-6.9.3-8.07,1.45-8.39.4-.11,3.19-.34,5.66-.51,2.75-.18,6.11-.47,7.49-.64l2.29-.29,0-4.59c0-2.66.13-6.81.24-9.25s.43-7.95.72-12.24l.51-7.59L72,20.26A21.28,21.28,0,0,0,67.6,20c-1,0-2.14,0-3.44.05-1.89.05-3.25.08-4.23.08h0c-2.13,0-2.62-.14-3.08-.59-.64-.62-.7-1.46-.63-8.15,0-4,0-7-.06-7.51a9.92,9.92,0,0,0-2.33-.24L41.48,3.38c-2.22,0-4.28-.08-6.13-.08-8.16,0-10.93.48-11.81.88l-.77.35-.2,7.6c-.19,7.43-.25,7.91-1,8.5S18.86,21.84,16.46,22c-3,.22-11.91,1.38-13,1.65a37.6,37.6,0,0,0,.13,4.8c.22,3.17.2,8.27,0,14.77L3.2,52.89H9.62c3.08,0,6.42,0,7.79-.08l1.38,0c1.38,0,1.65.19,2.11,1,.74,1.25,1.05,3.63,1.24,9.43.08,2.61.21,5.41.28,6.25l.11,1.3Z"/></g></g></svg>