<?xml version="1.0" encoding="utf-8"?>
<!-- Generator: Adobe Illustrator 23.0.6, SVG Export Plug-In . SVG Version: 6.00 Build 0)  -->
<svg version="1.1" id="Layer_1" xmlns="http://www.w3.org/2000/svg" xmlns:xlink="http://www.w3.org/1999/xlink" x="0px" y="0px"
	 viewBox="0 0 60 60" style="enable-background:new 0 0 60 60;" xml:space="preserve">
<style type="text/css">
	.st0{fill:#FFFFFF;}
</style>
<path class="st0" d="M37.54,2.38C27.12,4.04,15.82,5.17,6.91,5.44C3.93,5.53,3.7,5.6,3.23,6.57c-0.35,0.73-0.61,5.93-0.88,17.9
	c-0.21,9.27-0.49,17.41-0.64,18.08c-0.19,0.88-0.05,1.47,0.5,2.13c0.73,0.89,0.86,0.9,3.84,0.48c1.69-0.24,5.49-0.44,8.39-0.44
	c4.46,0,5.35,0.1,5.55,0.64c0.13,0.35,0.24,2.82,0.24,5.53c0,6.64-0.36,6.39,8.23,5.79c3.67-0.25,11.4-0.62,17.12-0.8
	c8.55-0.28,10.62-0.45,11.44-0.97c0.56-0.36,1.01-0.94,1.03-1.33c0.02-0.38,0.02-9.03,0-19.17c-0.03-15.27-0.14-18.57-0.6-19.03
	c-0.48-0.48-1.33-0.46-6.07,0.1c-3.02,0.36-6.32,0.75-7.3,0.86l-1.79,0.2l-0.1-3.1c-0.05-1.7,0.1-4.71,0.34-6.66
	c0.43-3.46,0.41-3.58-0.44-4.28c-0.48-0.39-0.99-0.69-1.13-0.66C40.84,1.85,39.29,2.1,37.54,2.38L37.54,2.38z M39.19,10.68
	c-0.03,2.94-0.24,5.51-0.46,5.71c-0.22,0.2-3.06,0.57-6.36,0.83c-7.04,0.56-10.48,1.3-11.44,2.47c-0.62,0.75-0.69,1.93-0.69,11.16
	c0,7.92-0.12,10.35-0.5,10.46c-0.27,0.08-3.7,0.24-7.6,0.36l-7.1,0.22l0.24-9.82c0.13-5.41,0.35-12.89,0.48-16.65L6,8.59l6.42-0.26
	c3.54-0.14,8.48-0.53,11-0.86c5.57-0.74,15.25-2.04,15.59-2.1C39.14,5.35,39.22,7.74,39.19,10.68L39.19,10.68z M55.06,35.36
	l0.02,16.91l-1.21,0.18c-0.67,0.1-5.15,0.29-9.96,0.42c-4.81,0.13-11.34,0.4-14.5,0.6c-3.14,0.2-5.82,0.29-5.91,0.2
	c-0.24-0.24-0.3-21.24-0.08-26.93c0.16-4.06,0.32-5.13,0.79-5.28c1.28-0.39,6.52-0.97,14.72-1.61c4.69-0.37,9.54-0.81,10.74-0.99
	c1.19-0.17,2.91-0.34,3.78-0.36l1.59-0.04L55.06,35.36L55.06,35.36z"/>
<path class="st0" d="M45.89,24.44c-0.88,0.19-4.97,0.7-9.15,1.14c-4.18,0.44-7.86,0.91-8.23,1.05c-0.91,0.35-0.97,2.39-0.08,2.74
	c0.68,0.26,17.22-1.52,19.85-2.14c1.91-0.45,2.74-1.41,2.17-2.48C50.02,23.94,48.64,23.85,45.89,24.44L45.89,24.44z"/>
<path class="st0" d="M36.54,31.02c-5.81,1.1-6.76,1.46-6.76,2.56c0,1.6,1.43,1.72,7.4,0.6c6.84-1.28,6.84-1.28,7.36-2.24
	c0.6-1.1-0.2-1.95-1.79-1.91C42.07,30.06,39.29,30.5,36.54,31.02L36.54,31.02z"/>
<path class="st0" d="M34.36,39.21c-1.75,0.64-3.52,1.5-3.94,1.91c-0.82,0.81-0.64,1.88,0.4,2.27c0.74,0.28,6.84-1.72,7.84-2.58
	c0.8-0.68,0.88-1.71,0.2-2.39C38.23,37.8,38.14,37.82,34.36,39.21L34.36,39.21z"/>
<path class="st0" d="M41.91,42.81c-2.11,0.76-2.59,1.46-1.83,2.66c0.47,0.74,3.06,0.64,4.29-0.17c0.71-0.46,0.92-0.91,0.84-1.7
	C45.09,42.37,43.9,42.09,41.91,42.81L41.91,42.81z"/>
</svg>
