<?xml version="1.0" encoding="utf-8"?>
<!-- Generator: Adobe Illustrator 23.0.6, SVG Export Plug-In . SVG Version: 6.00 Build 0)  -->
<svg version="1.1" id="Layer_1" xmlns="http://www.w3.org/2000/svg" xmlns:xlink="http://www.w3.org/1999/xlink" x="0px" y="0px"
	 viewBox="0 0 440 85" style="enable-background:new 0 0 440 85;" xml:space="preserve">
<style type="text/css">
	.st0{fill:#FFFFFF;}
	.st1{fill:#FEC938;}
</style>
<g>
	<g>
		<g>
			<path class="st0" d="M119.33,15.51h7.81l11.03,29.95h-7.98l-1.48-4.79h-11.03l-1.48,4.79h-7.98L119.33,15.51z M127.01,35.28
				l-3.9-12.64l-0.59,2.31c-0.2,0.78-0.41,1.55-0.64,2.31l-0.57,1.89l-0.66,2.12l-0.66,2.12l-0.57,1.89H127.01z"/>
			<path class="st0" d="M139.57,20.52v-5.05h6.45v5.05H139.57z M139.57,45.46V23.28h6.45v22.19H139.57z"/>
			<path class="st0" d="M157.3,23.28v2.33c0.37-0.31,0.75-0.6,1.15-0.87c0.4-0.27,0.84-0.52,1.34-0.74c0.49-0.23,1.06-0.42,1.7-0.57
				c0.64-0.16,1.38-0.28,2.23-0.36v5.77l-2.16,0.34c-0.79,0.14-1.45,0.29-1.97,0.45c-0.52,0.16-0.94,0.37-1.25,0.64
				c-0.31,0.27-0.53,0.62-0.66,1.04c-0.13,0.42-0.19,0.99-0.19,1.7v12.47h-6.53V23.28H157.3z"/>
			<path class="st0" d="M166.13,15.47h6.36v9.84c0.23-0.25,0.51-0.53,0.85-0.83c0.34-0.3,0.76-0.59,1.27-0.87
				c0.51-0.28,1.11-0.52,1.8-0.7c0.69-0.18,1.51-0.28,2.44-0.28c0.88,0,1.87,0.18,2.97,0.53c1.1,0.35,2.13,0.95,3.08,1.8
				c0.95,0.85,1.75,2,2.4,3.46c0.65,1.46,0.98,3.29,0.98,5.49c0,1.13-0.11,2.3-0.32,3.52c-0.21,1.22-0.56,2.32-1.04,3.31
				c-0.28,0.62-0.67,1.25-1.15,1.89c-0.48,0.64-1.07,1.21-1.76,1.72c-0.69,0.51-1.48,0.92-2.38,1.23c-0.89,0.31-1.89,0.47-2.99,0.47
				c-0.99,0-1.85-0.11-2.57-0.34c-0.72-0.23-1.34-0.49-1.85-0.81c-0.51-0.31-0.93-0.63-1.27-0.95c-0.34-0.33-0.61-0.6-0.81-0.83
				l0.25,2.33h-6.28V15.47z M177.11,27.43c-1.19,0.06-2.11,0.38-2.76,0.98c-0.65,0.59-1.12,1.26-1.42,1.99
				c-0.3,0.74-0.47,1.46-0.53,2.18c-0.06,0.72-0.08,1.25-0.08,1.59c0,0.82,0.07,1.69,0.21,2.61c0.14,0.92,0.41,1.7,0.81,2.35
				c0.42,0.68,0.99,1.2,1.7,1.55c0.71,0.35,1.43,0.53,2.16,0.53c0.88,0,1.59-0.19,2.14-0.57c0.55-0.38,0.97-0.74,1.25-1.08
				c0.28-0.4,0.52-0.86,0.7-1.38c0.18-0.52,0.32-1.05,0.4-1.57c0.08-0.52,0.14-1,0.17-1.44c0.03-0.44,0.04-0.78,0.04-1.04
				c0-0.88-0.08-1.73-0.23-2.57c-0.16-0.83-0.42-1.56-0.78-2.18c-0.37-0.62-0.86-1.12-1.46-1.48
				C178.82,27.53,178.05,27.38,177.11,27.43z"/>
			<path class="st0" d="M207.53,37.32l4.92,2.5l-1.21,1.68c-0.41,0.55-0.9,1.1-1.46,1.63c-0.96,0.9-2.15,1.65-3.56,2.25
				c-1.41,0.59-3.01,0.89-4.79,0.89c-1.64,0-3.15-0.25-4.52-0.76c-1.37-0.51-2.55-1.25-3.54-2.23c-0.99-0.98-1.76-2.18-2.31-3.61
				s-0.83-3.05-0.83-4.86c0-1.33,0.18-2.72,0.55-4.16c0.37-1.44,0.99-2.76,1.87-3.95c0.88-1.19,2.04-2.17,3.5-2.95
				c1.46-0.78,3.27-1.17,5.45-1.17c0.34,0,0.81,0.02,1.4,0.06c0.59,0.04,1.27,0.17,2.01,0.38c0.75,0.21,1.52,0.53,2.31,0.95
				c0.79,0.42,1.54,1.02,2.25,1.78c0.71,0.76,1.27,1.6,1.68,2.5c0.41,0.91,0.72,1.8,0.93,2.69c0.21,0.89,0.35,1.75,0.4,2.57
				c0.06,0.82,0.1,1.54,0.13,2.16h-15.82c0,0.68,0.09,1.35,0.28,2.02c0.18,0.66,0.49,1.26,0.91,1.78c0.42,0.52,0.95,0.94,1.59,1.25
				c0.64,0.31,1.39,0.47,2.27,0.47c0.88,0,1.63-0.13,2.25-0.38c0.62-0.25,1.15-0.58,1.57-0.98c0.42-0.4,0.78-0.82,1.06-1.27
				C207.09,38.14,207.33,37.72,207.53,37.32z M196.92,31.63h9.04c-0.06-0.48-0.16-1-0.3-1.57c-0.14-0.57-0.45-1.09-0.93-1.57
				c-0.4-0.4-0.88-0.7-1.46-0.91c-0.58-0.21-1.15-0.32-1.72-0.32c-0.79,0-1.46,0.16-2.01,0.47c-0.55,0.31-0.98,0.64-1.29,0.98
				c-0.45,0.48-0.76,0.97-0.91,1.46C197.17,30.67,197.04,31.15,196.92,31.63z"/>
			<path class="st0" d="M215.63,15.51h6.53v29.95h-6.53V15.51z"/>
			<path class="st0" d="M238.33,15.51h5.52v29.95h-5.52V15.51z"/>
			<path class="st0" d="M249.19,45.46V24.25h5.05v2.38c0.42-0.54,0.92-1,1.48-1.38c0.56-0.38,1.15-0.69,1.76-0.93
				c0.61-0.24,1.21-0.42,1.8-0.53c0.59-0.11,1.15-0.17,1.65-0.17c0.51,0,1.03,0.05,1.57,0.15c0.54,0.1,1.07,0.28,1.59,0.53
				c0.52,0.25,1.02,0.59,1.51,1.02c0.48,0.42,0.89,0.95,1.23,1.57c0.2-0.28,0.5-0.62,0.89-1c0.4-0.38,0.87-0.74,1.42-1.08
				c0.55-0.34,1.2-0.62,1.95-0.85c0.75-0.23,1.59-0.34,2.52-0.34c1.07,0,2.09,0.16,3.05,0.49c0.96,0.33,1.81,0.88,2.55,1.68
				c0.85,0.93,1.34,1.94,1.46,3.03c0.13,1.09,0.19,2.18,0.19,3.29v13.36h-5.05V33.76c0-0.51-0.01-1.07-0.02-1.68
				c-0.01-0.61-0.12-1.19-0.32-1.74c-0.2-0.55-0.54-1.01-1.04-1.38c-0.5-0.37-1.22-0.55-2.19-0.55c-0.82,0-1.54,0.19-2.16,0.57
				c-0.62,0.38-1.1,0.86-1.44,1.42c-0.48,0.79-0.79,1.61-0.91,2.46c-0.13,0.85-0.19,1.73-0.19,2.63v9.97h-5.05V33.63
				c0-0.76-0.01-1.33-0.02-1.7c-0.01-0.37-0.06-0.71-0.15-1.02c-0.2-0.71-0.57-1.3-1.1-1.78c-0.54-0.48-1.26-0.72-2.16-0.72
				c-0.76,0-1.49,0.21-2.19,0.64c-0.69,0.42-1.27,1.03-1.72,1.82c-0.45,0.82-0.72,1.72-0.81,2.69c-0.08,0.98-0.13,1.99-0.13,3.03
				v8.87H249.19z"/>
			<path class="st0" d="M285.5,52.38V24.25h5.05v1.95c0.2-0.2,0.46-0.45,0.79-0.74c0.32-0.3,0.72-0.59,1.19-0.87
				c0.47-0.28,1.02-0.52,1.65-0.7c0.64-0.18,1.36-0.28,2.19-0.28c1.56,0,2.93,0.33,4.14,0.98c1.2,0.65,2.21,1.51,3.01,2.57
				c0.81,1.06,1.42,2.28,1.84,3.65c0.42,1.37,0.64,2.79,0.64,4.26c0,1.58-0.23,3.05-0.7,4.39c-0.47,1.34-1.12,2.51-1.97,3.5
				c-0.85,0.99-1.87,1.76-3.05,2.31c-1.19,0.55-2.49,0.83-3.9,0.83c-0.74,0-1.4-0.08-1.99-0.23c-0.59-0.16-1.13-0.35-1.61-0.59
				c-0.48-0.24-0.9-0.49-1.27-0.76c-0.37-0.27-0.68-0.53-0.93-0.78v8.65H285.5z M290.51,34.73c-0.03,1.1,0.09,2.06,0.36,2.88
				c0.27,0.82,0.64,1.51,1.12,2.06c0.48,0.55,1.04,0.96,1.68,1.23s1.31,0.4,2.02,0.4c0.62,0,1.24-0.11,1.84-0.34
				c0.61-0.23,1.15-0.59,1.63-1.1s0.88-1.18,1.19-2.02c0.31-0.83,0.47-1.85,0.47-3.03c0-1.33-0.2-2.4-0.59-3.22
				c-0.4-0.82-0.88-1.46-1.44-1.93c-0.57-0.47-1.15-0.78-1.74-0.93c-0.59-0.16-1.07-0.23-1.44-0.23c-0.59,0-1.19,0.11-1.78,0.34
				c-0.59,0.23-1.13,0.59-1.61,1.08c-0.48,0.49-0.88,1.14-1.19,1.93C290.7,32.64,290.53,33.6,290.51,34.73z"/>
			<path class="st0" d="M313.92,30.79l-5.22-0.3c0.06-0.54,0.13-1.05,0.21-1.53c0.08-0.48,0.3-1.03,0.64-1.65
				c0.51-0.93,1.17-1.65,1.99-2.14c0.82-0.5,1.65-0.86,2.48-1.08c0.83-0.23,1.62-0.36,2.35-0.4c0.73-0.04,1.27-0.06,1.61-0.06
				c1.02,0,2.1,0.08,3.25,0.25c1.15,0.17,2.18,0.54,3.12,1.1c0.62,0.4,1.1,0.81,1.44,1.25c0.34,0.44,0.59,0.9,0.76,1.38
				c0.17,0.48,0.27,0.99,0.3,1.53c0.03,0.54,0.04,1.09,0.04,1.65v11.24c0,0.4,0.01,0.74,0.02,1.04c0.01,0.3,0.05,0.57,0.11,0.81
				c0.06,0.24,0.15,0.49,0.28,0.74s0.3,0.54,0.53,0.85h-6.02c-0.03-0.25-0.06-0.56-0.08-0.91c-0.03-0.35-0.04-0.6-0.04-0.74
				c-0.57,0.48-1.39,0.96-2.46,1.44c-1.07,0.48-2.35,0.72-3.82,0.72c-1.19,0-2.26-0.18-3.22-0.53c-0.96-0.35-1.77-0.83-2.42-1.42
				c-0.65-0.59-1.15-1.29-1.51-2.1c-0.35-0.81-0.53-1.66-0.53-2.57c0-1.02,0.23-1.98,0.68-2.88c0.37-0.76,0.84-1.39,1.42-1.89
				c0.58-0.49,1.18-0.89,1.8-1.19c0.62-0.3,1.25-0.52,1.89-0.68c0.64-0.16,1.21-0.28,1.72-0.36l2.61-0.53
				c0.64-0.13,1.17-0.25,1.61-0.36c0.44-0.11,0.82-0.22,1.15-0.32l1.21-0.36c0-0.25-0.02-0.57-0.06-0.93
				c-0.04-0.37-0.18-0.72-0.42-1.06c-0.24-0.34-0.6-0.63-1.08-0.87c-0.48-0.24-1.16-0.36-2.04-0.36c-1.07,0-1.91,0.14-2.5,0.42
				c-0.59,0.28-1.02,0.59-1.27,0.93c-0.28,0.34-0.44,0.66-0.47,0.95C313.94,30.17,313.92,30.48,313.92,30.79z M321.81,37.23V34.9
				c-0.51,0.25-1.09,0.48-1.74,0.68c-0.65,0.2-1.56,0.4-2.72,0.59c-0.45,0.06-0.93,0.13-1.42,0.23c-0.5,0.1-0.95,0.25-1.38,0.47
				c-0.42,0.21-0.77,0.49-1.04,0.85c-0.27,0.35-0.4,0.81-0.4,1.38c0,0.82,0.32,1.44,0.95,1.87c0.64,0.42,1.46,0.64,2.48,0.64
				c1.3,0,2.38-0.25,3.24-0.74c0.86-0.49,1.44-1.07,1.72-1.72c0.14-0.31,0.23-0.63,0.25-0.95C321.8,37.86,321.81,37.55,321.81,37.23
				z"/>
			<path class="st0" d="M349.64,29.64l-4.54,2.12c-0.08-0.34-0.25-0.72-0.49-1.15c-0.24-0.42-0.56-0.82-0.95-1.19
				c-0.4-0.37-0.87-0.67-1.42-0.91c-0.55-0.24-1.19-0.36-1.93-0.36c-1.47,0-2.72,0.57-3.73,1.7c-1.02,1.13-1.53,2.76-1.53,4.88
				c0,0.96,0.12,1.85,0.36,2.65c0.24,0.81,0.59,1.51,1.06,2.1c0.47,0.59,1.03,1.05,1.68,1.38c0.65,0.33,1.4,0.49,2.25,0.49
				c0.79,0,1.48-0.13,2.06-0.4c0.58-0.27,1.07-0.62,1.46-1.04c0.4-0.42,0.71-0.88,0.95-1.36c0.24-0.48,0.45-0.93,0.62-1.36
				l4.37,2.29c-0.42,1.16-0.98,2.15-1.68,2.97c-0.69,0.82-1.47,1.51-2.33,2.06c-0.86,0.55-1.77,0.95-2.72,1.21
				c-0.95,0.25-1.89,0.38-2.82,0.38c-1.47,0-2.85-0.27-4.14-0.81c-1.29-0.54-2.4-1.3-3.35-2.29c-0.95-0.99-1.69-2.18-2.23-3.56
				c-0.54-1.39-0.81-2.91-0.81-4.58c0-1.61,0.28-3.11,0.83-4.5c0.55-1.39,1.31-2.57,2.27-3.56c0.96-0.99,2.09-1.77,3.39-2.33
				c1.3-0.57,2.7-0.85,4.2-0.85c1.33,0,2.5,0.2,3.52,0.59c1.02,0.4,1.9,0.89,2.65,1.48c0.75,0.59,1.36,1.24,1.85,1.95
				S349.36,29.02,349.64,29.64z"/>
			<path class="st0" d="M362.03,27.9h-4.54v9.59c0,0.65,0.01,1.22,0.04,1.7c0.03,0.48,0.11,0.88,0.25,1.19
				c0.14,0.31,0.38,0.54,0.72,0.68c0.34,0.14,0.81,0.21,1.4,0.21c0.4,0,0.76-0.01,1.08-0.04c0.33-0.03,0.67-0.1,1.04-0.21v4.28
				c-0.76,0.14-1.43,0.23-1.99,0.28c-0.57,0.04-1.13,0.06-1.7,0.06c-0.25,0-0.65-0.01-1.19-0.04c-0.54-0.03-1.09-0.12-1.65-0.28
				c-0.57-0.16-1.1-0.41-1.61-0.76c-0.51-0.35-0.89-0.86-1.15-1.51c-0.17-0.42-0.27-0.98-0.3-1.68c-0.03-0.69-0.04-1.58-0.04-2.65
				V27.9h-3.1v-3.65h3.1v-7.51h5.09v7.51h4.54V27.9z"/>
			<path class="st0" d="M381.33,15.47v24.9h11.88v5.09h-17.52V15.47H381.33z"/>
			<path class="st0" d="M400.76,30.79l-5.22-0.3c0.06-0.54,0.13-1.05,0.21-1.53c0.08-0.48,0.3-1.03,0.64-1.65
				c0.51-0.93,1.17-1.65,1.99-2.14c0.82-0.5,1.65-0.86,2.48-1.08c0.83-0.23,1.62-0.36,2.35-0.4c0.73-0.04,1.27-0.06,1.61-0.06
				c1.02,0,2.1,0.08,3.25,0.25c1.15,0.17,2.18,0.54,3.12,1.1c0.62,0.4,1.1,0.81,1.44,1.25c0.34,0.44,0.59,0.9,0.76,1.38
				c0.17,0.48,0.27,0.99,0.3,1.53c0.03,0.54,0.04,1.09,0.04,1.65v11.24c0,0.4,0.01,0.74,0.02,1.04c0.01,0.3,0.05,0.57,0.11,0.81
				c0.06,0.24,0.15,0.49,0.28,0.74s0.3,0.54,0.53,0.85h-6.02c-0.03-0.25-0.06-0.56-0.08-0.91c-0.03-0.35-0.04-0.6-0.04-0.74
				c-0.57,0.48-1.39,0.96-2.46,1.44c-1.07,0.48-2.35,0.72-3.82,0.72c-1.19,0-2.26-0.18-3.22-0.53c-0.96-0.35-1.77-0.83-2.42-1.42
				c-0.65-0.59-1.15-1.29-1.51-2.1c-0.35-0.81-0.53-1.66-0.53-2.57c0-1.02,0.23-1.98,0.68-2.88c0.37-0.76,0.84-1.39,1.42-1.89
				c0.58-0.49,1.18-0.89,1.8-1.19c0.62-0.3,1.25-0.52,1.89-0.68c0.64-0.16,1.21-0.28,1.72-0.36l2.61-0.53
				c0.64-0.13,1.17-0.25,1.61-0.36c0.44-0.11,0.82-0.22,1.15-0.32l1.21-0.36c0-0.25-0.02-0.57-0.06-0.93
				c-0.04-0.37-0.18-0.72-0.42-1.06c-0.24-0.34-0.6-0.63-1.08-0.87c-0.48-0.24-1.16-0.36-2.04-0.36c-1.07,0-1.91,0.14-2.5,0.42
				c-0.59,0.28-1.02,0.59-1.27,0.93c-0.28,0.34-0.44,0.66-0.47,0.95C400.77,30.17,400.76,30.48,400.76,30.79z M408.65,37.23V34.9
				c-0.51,0.25-1.09,0.48-1.74,0.68c-0.65,0.2-1.56,0.4-2.72,0.59c-0.45,0.06-0.93,0.13-1.42,0.23c-0.5,0.1-0.95,0.25-1.38,0.47
				c-0.42,0.21-0.77,0.49-1.04,0.85c-0.27,0.35-0.4,0.81-0.4,1.38c0,0.82,0.32,1.44,0.95,1.87c0.64,0.42,1.46,0.64,2.48,0.64
				c1.3,0,2.38-0.25,3.24-0.74c0.86-0.49,1.44-1.07,1.72-1.72c0.14-0.31,0.23-0.63,0.25-0.95
				C408.63,37.86,408.65,37.55,408.65,37.23z"/>
			<path class="st0" d="M418.32,15.51h5.05v10.52c1.75-1.61,3.8-2.42,6.15-2.42c1.19,0,2.34,0.26,3.46,0.78
				c1.12,0.52,2.11,1.27,2.97,2.25c0.86,0.98,1.56,2.15,2.08,3.52c0.52,1.37,0.79,2.91,0.79,4.6c0,1.73-0.26,3.29-0.79,4.69
				c-0.52,1.4-1.23,2.59-2.12,3.56c-0.89,0.98-1.92,1.73-3.08,2.27c-1.16,0.54-2.38,0.81-3.65,0.81c-0.71,0-1.35-0.08-1.93-0.25
				c-0.58-0.17-1.12-0.4-1.61-0.68c-0.49-0.28-0.93-0.59-1.29-0.93c-0.37-0.34-0.69-0.66-0.98-0.98v2.21h-5.05V15.51z M433.55,34.69
				c0.03-1.05-0.1-1.97-0.38-2.78c-0.28-0.81-0.67-1.48-1.17-2.02c-0.5-0.54-1.07-0.95-1.72-1.23c-0.65-0.28-1.32-0.42-1.99-0.42
				c-0.57,0-1.15,0.11-1.74,0.34c-0.59,0.23-1.13,0.59-1.61,1.1s-0.88,1.16-1.19,1.95c-0.31,0.79-0.47,1.75-0.47,2.88
				c0,0.65,0.04,1.2,0.11,1.65c0.07,0.45,0.15,0.81,0.23,1.06c0.25,1.02,0.63,1.8,1.12,2.33c0.49,0.54,1,0.93,1.53,1.19
				c0.52,0.25,1,0.4,1.42,0.45c0.42,0.04,0.69,0.06,0.81,0.06c0.93,0,1.72-0.21,2.35-0.64c0.64-0.42,1.15-0.96,1.55-1.61
				s0.68-1.36,0.85-2.12C433.42,36.13,433.52,35.4,433.55,34.69z"/>
		</g>
	</g>
	<g>
		<path class="st1" d="M119.37,69.81l-3.24-4.79h-3.3v4.79h-2.99V56.78h7.76c3.03,0,4.66,1.44,4.66,4.12c0,2.07-0.96,3.39-2.8,3.89
			l3.43,5.02H119.37z M112.84,62.45h4.45c1.32,0,1.94-0.5,1.94-1.55s-0.61-1.55-1.94-1.55h-4.45V62.45z"/>
		<path class="st1" d="M126.83,65.77c0.31,1.25,1.42,1.94,3.2,1.94c1.19,0,2.3-0.33,3.35-0.98l0.86,2.17
			c-1.21,0.77-2.66,1.15-4.37,1.15c-3.79,0-6.04-1.88-6.04-5.08c0-3.05,2.22-5.08,5.56-5.08c3.24,0,5.31,1.97,5.31,5.08
			c0,0.29,0,0.52-0.04,0.8H126.83z M126.87,63.93h5.04c-0.34-1.11-1.25-1.76-2.53-1.76C128.1,62.16,127.19,62.82,126.87,63.93z"/>
		<path class="st1" d="M135.7,68.68l0.96-1.99c1.13,0.75,2.55,1.19,4.29,1.19c1.42,0,2.07-0.29,2.07-0.82c0-0.57-0.4-0.73-2.24-0.9
			c-3.49-0.33-4.62-1.09-4.62-3.14c0-1.97,1.76-3.12,4.71-3.12c1.78,0,3.33,0.4,4.5,1.17l-0.92,1.9c-0.94-0.57-2.07-0.9-3.47-0.9
			c-1.28,0-1.94,0.29-1.94,0.8c0,0.57,0.42,0.73,2.26,0.9c3.45,0.33,4.6,1.09,4.6,3.14s-1.73,3.14-4.94,3.14
			C138.81,70.04,136.97,69.54,135.7,68.68z"/>
		<path class="st1" d="M149.98,65.77c0.31,1.25,1.42,1.94,3.2,1.94c1.19,0,2.3-0.33,3.35-0.98l0.86,2.17
			c-1.21,0.77-2.66,1.15-4.37,1.15c-3.79,0-6.04-1.88-6.04-5.08c0-3.05,2.22-5.08,5.56-5.08c3.24,0,5.31,1.97,5.31,5.08
			c0,0.29,0,0.52-0.04,0.8H149.98z M150.02,63.93h5.04c-0.35-1.11-1.25-1.76-2.53-1.76C151.25,62.16,150.35,62.82,150.02,63.93z"/>
		<path class="st1" d="M169.25,64.44v5.37h-2.87v-1.72c-0.84,1.25-2.26,1.95-3.91,1.95c-2.15,0-3.47-1.17-3.47-3.09
			c0-1.97,1.38-3.09,3.79-3.09c1.3,0,2.66,0.33,3.58,0.84v-0.1c0-1.63-0.9-2.4-2.8-2.4c-1.15,0-2.15,0.29-3.2,0.9l-0.96-2.07
			c1.32-0.8,2.78-1.17,4.64-1.17C167.67,59.88,169.25,61.26,169.25,64.44z M166.37,66.32c-0.8-0.36-1.84-0.57-2.7-0.57
			c-1.15,0-1.74,0.38-1.74,1.09c0,0.67,0.54,1.05,1.53,1.05c1.11,0,2.17-0.48,2.91-1.34V66.32z"/>
		<path class="st1" d="M178.94,59.96l-0.17,2.68c-0.36-0.06-0.8-0.1-1.23-0.1c-1.46,0-2.47,0.48-3.24,1.51v5.75h-2.87v-9.7h2.87
			v2.01c0.88-1.49,2.11-2.24,3.85-2.24C178.43,59.88,178.71,59.9,178.94,59.96z"/>
		<path class="st1" d="M179.75,65c0-3.16,2.26-5.12,5.63-5.12c1.44,0,2.72,0.33,3.76,1.02l-0.8,2.17c-0.79-0.52-1.78-0.8-2.74-0.8
			c-1.78,0-2.91,1.05-2.91,2.72c0,1.67,1.13,2.68,3.05,2.68c1.05,0,1.99-0.31,2.88-0.88l0.88,2.2c-1.13,0.71-2.45,1.05-3.97,1.05
			C181.93,70.04,179.75,68.11,179.75,65z"/>
		<path class="st1" d="M201.02,63.49v6.32h-2.87v-5.73c0-1.23-0.59-1.82-1.78-1.82c-1.02,0-1.88,0.44-2.55,1.3v6.25h-2.88V56.2h2.88
			v5.63c0.96-1.3,2.18-1.95,3.72-1.95C199.74,59.88,201.02,61.23,201.02,63.49z"/>
		<path class="st1" d="M218.71,69.81l-1.13-1c-1.09,0.8-2.59,1.23-4.35,1.23c-3.24,0-5.21-1.44-5.21-3.91c0-2.03,1.3-2.97,2.78-3.53
			c-0.73-0.84-1.03-1.59-1.03-2.53c0-2.2,1.67-3.53,4.37-3.53c2.64,0,4.25,1.28,4.25,3.47c0,1.92-1.26,2.8-3.05,3.37l2.26,2.01
			c0.44-0.73,0.73-1.63,0.84-2.66l2.8,0.25c-0.19,1.61-0.75,2.99-1.72,4.12l3.03,2.7H218.71z M215.78,67.19l-3.37-3.01
			c-0.84,0.31-1.57,0.79-1.57,1.74c0,1.13,1.02,1.82,2.64,1.82C214.34,67.74,215.11,67.55,215.78,67.19z M212.58,60.11
			c0,0.57,0.23,1,1.04,1.74c1.49-0.4,2.15-0.73,2.15-1.71c0-0.96-0.61-1.48-1.59-1.48C213.18,58.68,212.58,59.21,212.58,60.11z"/>
		<path class="st1" d="M229.56,56.78h2.99v13.03h-2.99V56.78z"/>
		<path class="st1" d="M245.28,63.49v6.32h-2.87v-5.73c0-1.23-0.59-1.82-1.78-1.82c-1.02,0-1.88,0.44-2.55,1.3v6.25h-2.88v-9.7h2.88
			v1.72c0.96-1.3,2.18-1.95,3.72-1.95C244,59.88,245.28,61.23,245.28,63.49z"/>
		<path class="st1" d="M257.6,63.49v6.32h-2.87v-5.73c0-1.23-0.59-1.82-1.78-1.82c-1.02,0-1.88,0.44-2.55,1.3v6.25h-2.88v-9.7h2.88
			v1.72c0.96-1.3,2.18-1.95,3.72-1.95C256.32,59.88,257.6,61.23,257.6,63.49z"/>
		<path class="st1" d="M259.23,64.96c0-3.05,2.22-5.08,5.56-5.08c3.33,0,5.56,2.03,5.56,5.08s-2.22,5.08-5.56,5.08
			C261.46,70.04,259.23,68.01,259.23,64.96z M267.42,64.96c0-1.65-1.02-2.7-2.63-2.7c-1.61,0-2.63,1.05-2.63,2.7
			c0,1.65,1.02,2.7,2.63,2.7C266.4,67.66,267.42,66.61,267.42,64.96z"/>
		<path class="st1" d="M281.93,60.11l-4.16,9.7h-2.97l-4.16-9.7h3.1l2.61,6.59l2.61-6.59H281.93z"/>
		<path class="st1" d="M292.89,64.44v5.37h-2.87v-1.72c-0.84,1.25-2.26,1.95-3.91,1.95c-2.15,0-3.47-1.17-3.47-3.09
			c0-1.97,1.38-3.09,3.79-3.09c1.3,0,2.66,0.33,3.58,0.84v-0.1c0-1.63-0.9-2.4-2.8-2.4c-1.15,0-2.15,0.29-3.2,0.9l-0.96-2.07
			c1.32-0.8,2.78-1.17,4.64-1.17C291.32,59.88,292.89,61.26,292.89,64.44z M290.02,66.32c-0.8-0.36-1.84-0.57-2.7-0.57
			c-1.15,0-1.74,0.38-1.74,1.09c0,0.67,0.54,1.05,1.53,1.05c1.11,0,2.17-0.48,2.91-1.34V66.32z"/>
		<path class="st1" d="M302.93,69.45c-0.81,0.4-1.73,0.59-2.82,0.59c-2.49,0-3.7-1-3.7-3.05v-4.71h-2.34v-2.17h2.34v-3.33h2.87v3.33
			h3.39v2.17h-3.39v4.1c0,0.92,0.4,1.28,1.4,1.28c0.59,0,1.17-0.13,1.74-0.42L302.93,69.45z"/>
		<path class="st1" d="M304.45,57.05c0-0.9,0.65-1.53,1.61-1.53c0.96,0,1.61,0.63,1.61,1.53s-0.65,1.53-1.61,1.53
			C305.1,58.58,304.45,57.95,304.45,57.05z M304.62,60.11h2.87v9.7h-2.87V60.11z"/>
		<path class="st1" d="M309.3,64.96c0-3.05,2.22-5.08,5.56-5.08s5.56,2.03,5.56,5.08s-2.22,5.08-5.56,5.08S309.3,68.01,309.3,64.96z
			 M317.48,64.96c0-1.65-1.02-2.7-2.63-2.7c-1.61,0-2.63,1.05-2.63,2.7c0,1.65,1.02,2.7,2.63,2.7
			C316.46,67.66,317.48,66.61,317.48,64.96z"/>
		<path class="st1" d="M332.3,63.49v6.32h-2.87v-5.73c0-1.23-0.59-1.82-1.78-1.82c-1.02,0-1.88,0.44-2.55,1.3v6.25h-2.88v-9.7h2.88
			v1.72c0.96-1.3,2.18-1.95,3.72-1.95C331.01,59.88,332.3,61.23,332.3,63.49z"/>
		<path class="st1" d="M349.49,64.44v5.37h-2.88v-1.72c-0.84,1.25-2.26,1.95-3.91,1.95c-2.15,0-3.47-1.17-3.47-3.09
			c0-1.97,1.38-3.09,3.79-3.09c1.3,0,2.66,0.33,3.58,0.84v-0.1c0-1.63-0.9-2.4-2.8-2.4c-1.15,0-2.15,0.29-3.2,0.9l-0.96-2.07
			c1.32-0.8,2.78-1.17,4.64-1.17C347.92,59.88,349.49,61.26,349.49,64.44z M346.61,66.32c-0.8-0.36-1.84-0.57-2.7-0.57
			c-1.15,0-1.74,0.38-1.74,1.09c0,0.67,0.54,1.05,1.53,1.05c1.11,0,2.17-0.48,2.91-1.34V66.32z"/>
		<path class="st1" d="M359.53,69.45c-0.81,0.4-1.73,0.59-2.82,0.59c-2.49,0-3.7-1-3.7-3.05v-4.71h-2.34v-2.17h2.34v-3.33h2.87v3.33
			h3.39v2.17h-3.39v4.1c0,0.92,0.4,1.28,1.4,1.28c0.59,0,1.17-0.13,1.74-0.42L359.53,69.45z"/>
		<path class="st1" d="M374.46,69.45c-0.81,0.4-1.73,0.59-2.82,0.59c-2.49,0-3.7-1-3.7-3.05v-4.71h-2.34v-2.17h2.34v-3.33h2.87v3.33
			h3.39v2.17h-3.39v4.1c0,0.92,0.4,1.28,1.4,1.28c0.59,0,1.17-0.13,1.74-0.42L374.46,69.45z"/>
		<path class="st1" d="M386.23,63.49v6.32h-2.87v-5.73c0-1.23-0.59-1.82-1.78-1.82c-1.02,0-1.88,0.44-2.55,1.3v6.25h-2.87V56.2h2.87
			v5.63c0.96-1.3,2.18-1.95,3.72-1.95C384.95,59.88,386.23,61.23,386.23,63.49z"/>
		<path class="st1" d="M390.85,65.77c0.31,1.25,1.42,1.94,3.2,1.94c1.19,0,2.3-0.33,3.35-0.98l0.86,2.17
			c-1.21,0.77-2.66,1.15-4.37,1.15c-3.79,0-6.04-1.88-6.04-5.08c0-3.05,2.22-5.08,5.56-5.08c3.24,0,5.31,1.97,5.31,5.08
			c0,0.29,0,0.52-0.04,0.8H390.85z M390.89,63.93h5.04c-0.34-1.11-1.25-1.76-2.53-1.76C392.12,62.16,391.22,62.82,390.89,63.93z"/>
		<path class="st1" d="M406.09,56.78h2.99v13.03h-2.99V56.78z"/>
		<path class="st1" d="M421.48,69.81l-3.24-4.79h-3.3v4.79h-2.99V56.78h7.76c3.03,0,4.66,1.44,4.66,4.12c0,2.07-0.96,3.39-2.8,3.89
			l3.43,5.02H421.48z M414.94,62.45h4.45c1.32,0,1.94-0.5,1.94-1.55s-0.61-1.55-1.94-1.55h-4.45V62.45z"/>
		<path class="st1" d="M426.23,63.35c0-4.22,2.86-6.8,7.34-6.8c1.82,0,3.37,0.42,4.77,1.32l-0.88,2.41
			c-1.28-0.77-2.41-1.09-3.66-1.09c-2.8,0-4.52,1.59-4.52,4.12c0,2.55,1.74,4.08,4.64,4.08c1.4,0,2.64-0.36,3.89-1.13l0.98,2.41
			c-1.28,0.9-3.05,1.36-5.06,1.36C429.01,70.04,426.23,67.51,426.23,63.35z"/>
	</g>
	
		<rect x="0.63" y="-0.18" transform="matrix(-1 -1.224647e-16 1.224647e-16 -1 85.565 83.9402)" class="st1" width="84.3" height="84.3"/>
	<path d="M12.99,61.98V49.79c0-0.26,0.1-0.5,0.28-0.68l6.46-6.46c0.38-0.38,0.38-0.99,0-1.37l-6.46-6.46
		c-0.18-0.18-0.28-0.43-0.28-0.68V21.96c0-0.86,1.04-1.29,1.65-0.68l20.01,20.01c0.38,0.38,0.38,0.99,0,1.37L14.64,62.67
		C14.03,63.27,12.99,62.84,12.99,61.98z"/>
	<path d="M72.58,61.98V49.79c0-0.26-0.1-0.5-0.28-0.68l-6.46-6.46c-0.38-0.38-0.38-0.99,0-1.37l6.46-6.46
		c0.18-0.18,0.28-0.43,0.28-0.68V21.96c0-0.86-1.04-1.29-1.65-0.68L50.91,41.29c-0.38,0.38-0.38,0.99,0,1.37l20.01,20.01
		C71.54,63.27,72.58,62.84,72.58,61.98z"/>
	<path d="M62.8,71.76H50.6c-0.26,0-0.5-0.1-0.68-0.28l-6.46-6.46c-0.38-0.38-0.99-0.38-1.37,0l-6.46,6.46
		c-0.18,0.18-0.43,0.28-0.68,0.28H22.77c-0.86,0-1.29-1.04-0.68-1.65L42.1,50.1c0.38-0.38,0.99-0.38,1.37,0l20.01,20.01
		C64.09,70.72,63.66,71.76,62.8,71.76z"/>
	<path d="M62.8,12.29H50.6c-0.26,0-0.5,0.1-0.68,0.28l-6.46,6.46c-0.38,0.38-0.99,0.38-1.37,0l-6.46-6.46
		c-0.18-0.18-0.43-0.28-0.68-0.28H22.77c-0.86,0-1.29,1.04-0.68,1.65L42.1,33.95c0.38,0.38,0.99,0.38,1.37,0l20.01-20.01
		C64.09,13.33,63.66,12.29,62.8,12.29z"/>
</g>
</svg>
