<?xml version="1.0" encoding="utf-8"?>
<!-- Generator: Adobe Illustrator 23.0.3, SVG Export Plug-In . SVG Version: 6.00 Build 0)  -->
<svg version="1.1" id="Layer_1" xmlns="http://www.w3.org/2000/svg" xmlns:xlink="http://www.w3.org/1999/xlink" x="0px" y="0px"
	 viewBox="0 0 514.25 159.71" style="enable-background:new 0 0 514.25 159.71;" xml:space="preserve">
<style type="text/css">
	.st0{clip-path:url(#SVGID_2_);fill:#F6CA57;}
	.st1{clip-path:url(#SVGID_2_);fill:none;stroke:#000000;stroke-width:1.791;}
	.st2{clip-path:url(#SVGID_2_);}
	.st3{clip-path:url(#SVGID_2_);fill:none;stroke:#F6CA57;stroke-width:1.926;}
	.st4{fill:#F6CA57;}
	.st5{fill:none;stroke:#000000;stroke-width:1.791;}
	.st6{fill:none;stroke:#F6CA57;stroke-width:1.926;}
</style>
<g>
	<defs>
		<rect id="SVGID_1_" x="29.63" y="30.83" width="111" height="98.04"/>
	</defs>
	<clipPath id="SVGID_2_">
		<use xlink:href="#SVGID_1_"  style="overflow:visible;"/>
	</clipPath>
	<path class="st0" d="M78.65,31.73c-26.54,0-48.13,21.59-48.13,48.13s21.59,48.13,48.13,48.13s48.13-21.59,48.13-48.13
		S105.19,31.73,78.65,31.73"/>
	<path class="st1" d="M78.65,31.73c-26.54,0-48.13,21.59-48.13,48.13s21.59,48.13,48.13,48.13s48.13-21.59,48.13-48.13
		S105.19,31.73,78.65,31.73"/>
	<path class="st2" d="M125.13,79.86c0-25.33-20.37-45.99-45.58-46.47v92.94C104.76,125.85,125.13,105.19,125.13,79.86"/>
	<path class="st1" d="M125.13,79.86c0-25.33-20.37-45.99-45.58-46.47v92.94C104.76,125.85,125.13,105.19,125.13,79.86z"/>
	<polyline class="st3" points="102.34,59.43 121.49,34.32 140.63,34.32 	"/>
</g>
<g>
	<path d="M145.3,37.57v-6h0.75v6H145.3z"/>
	<path d="M150.79,37.57v-2.84c0-0.77-0.39-1.01-0.97-1.01c-0.53,0-1.04,0.32-1.29,0.68v3.18h-0.68v-4.35h0.68v0.63
		c0.31-0.36,0.9-0.74,1.55-0.74c0.91,0,1.39,0.46,1.39,1.4v3.05H150.79z"/>
	<path d="M156.06,35.24v-3.67h0.75v3.66c0,1.1,0.59,1.79,1.7,1.79s1.7-0.69,1.7-1.79v-3.66h0.75v3.66c0,1.49-0.82,2.45-2.45,2.45
		S156.06,36.72,156.06,35.24z"/>
	<path d="M162.76,38.69l0.34-0.5c0.36,0.43,0.79,0.59,1.41,0.59c0.72,0,1.4-0.35,1.4-1.3v-0.62c-0.31,0.44-0.85,0.77-1.46,0.77
		c-1.13,0-1.94-0.85-1.94-2.25c0-1.4,0.79-2.26,1.94-2.26c0.58,0,1.11,0.29,1.46,0.76v-0.66h0.68v4.22c0,1.44-1.01,1.89-2.07,1.89
		C163.78,39.34,163.28,39.19,162.76,38.69z M165.92,36.32v-1.9c-0.23-0.38-0.76-0.7-1.3-0.7c-0.87,0-1.4,0.69-1.4,1.66
		c0,0.95,0.52,1.66,1.4,1.66C165.16,37.03,165.68,36.7,165.92,36.32z"/>
	<path d="M171.11,37.57v-0.5c-0.36,0.4-0.86,0.6-1.44,0.6c-0.74,0-1.52-0.5-1.52-1.44c0-0.97,0.78-1.43,1.52-1.43
		c0.59,0,1.09,0.19,1.44,0.59v-0.78c0-0.58-0.47-0.92-1.1-0.92c-0.52,0-0.95,0.19-1.33,0.6l-0.31-0.47
		c0.47-0.49,1.03-0.72,1.74-0.72c0.92,0,1.68,0.41,1.68,1.47v2.99H171.11z M171.11,36.65v-0.82c-0.26-0.36-0.72-0.54-1.2-0.54
		c-0.63,0-1.07,0.4-1.07,0.95c0,0.55,0.44,0.95,1.07,0.95C170.39,37.19,170.85,37.01,171.11,36.65z"/>
	<path d="M176.51,37.57v-2.84c0-0.77-0.39-1.01-0.97-1.01c-0.53,0-1.04,0.32-1.29,0.68v3.18h-0.68v-4.35h0.68v0.63
		c0.31-0.36,0.9-0.74,1.55-0.74c0.91,0,1.39,0.46,1.39,1.4v3.05H176.51z"/>
	<path d="M182.12,37.57v-0.65c-0.32,0.44-0.86,0.76-1.47,0.76c-1.13,0-1.94-0.86-1.94-2.28c0-1.39,0.79-2.29,1.94-2.29
		c0.58,0,1.12,0.29,1.47,0.76v-2.31h0.68v6H182.12z M182.12,36.39v-1.97c-0.24-0.38-0.77-0.7-1.31-0.7c-0.87,0-1.4,0.72-1.4,1.68
		c0,0.96,0.52,1.67,1.4,1.67C181.36,37.08,181.88,36.77,182.12,36.39z"/>
	<path d="M187.32,37.57v-0.5c-0.36,0.4-0.86,0.6-1.44,0.6c-0.74,0-1.52-0.5-1.52-1.44c0-0.97,0.78-1.43,1.52-1.43
		c0.59,0,1.09,0.19,1.44,0.59v-0.78c0-0.58-0.47-0.92-1.1-0.92c-0.52,0-0.95,0.19-1.33,0.6l-0.31-0.47
		c0.47-0.49,1.03-0.72,1.74-0.72c0.92,0,1.68,0.41,1.68,1.47v2.99H187.32z M187.32,36.65v-0.82c-0.26-0.36-0.72-0.54-1.2-0.54
		c-0.63,0-1.07,0.4-1.07,0.95c0,0.55,0.44,0.95,1.07,0.95C186.6,37.19,187.06,37.01,187.32,36.65z"/>
	<path d="M189.95,38.71l-0.33-0.28c0.29-0.19,0.55-0.54,0.58-0.84c-0.02,0.01-0.08,0.02-0.13,0.02c-0.25,0-0.43-0.19-0.43-0.46
		c0-0.26,0.21-0.49,0.48-0.49c0.3,0,0.57,0.25,0.57,0.68C190.69,37.9,190.37,38.42,189.95,38.71z"/>
</g>
<g>
	<path d="M195.6,35.92c0.41,0.42,0.97,0.65,1.6,0.65c0.71,0,1.12-0.4,1.12-0.9c0-0.55-0.4-0.92-1.08-0.92c-0.5,0-0.9,0.15-1.26,0.5
		L195.08,35v-3.43h4.12v1.1h-2.87v1.5c0.32-0.28,0.8-0.5,1.35-0.5c1.02,0,1.93,0.72,1.93,1.94c0,1.27-0.95,2.07-2.4,2.07
		c-1.04,0-1.8-0.34-2.31-0.9L195.6,35.92z"/>
	<path d="M203.17,31.48c1.71,0,2.48,1.55,2.48,3.1c0,1.55-0.77,3.11-2.48,3.11c-1.72,0-2.48-1.56-2.48-3.11
		C200.68,33.03,201.45,31.48,203.17,31.48z M203.17,32.61c-0.86,0-1.19,0.86-1.19,1.96s0.32,1.97,1.19,1.97
		c0.85,0,1.18-0.86,1.18-1.97S204.02,32.61,203.17,32.61z"/>
	<path d="M208.15,31.48c0.93,0,1.53,0.67,1.53,1.51c0,0.84-0.6,1.48-1.53,1.48c-0.92,0-1.52-0.64-1.52-1.48
		C206.63,32.14,207.23,31.48,208.15,31.48z M208.15,32.19c-0.4,0-0.71,0.3-0.71,0.8c0,0.47,0.31,0.77,0.71,0.77
		c0.41,0,0.71-0.31,0.71-0.77C208.86,32.48,208.57,32.19,208.15,32.19z M211.4,31.57h0.68l-3.84,6h-0.68L211.4,31.57z M211.46,34.68
		c0.92,0,1.53,0.67,1.53,1.51c0,0.84-0.61,1.49-1.53,1.49s-1.52-0.65-1.52-1.49C209.93,35.35,210.54,34.68,211.46,34.68z
		 M211.46,35.39c-0.41,0-0.71,0.31-0.71,0.8c0,0.49,0.3,0.78,0.71,0.78s0.72-0.3,0.72-0.78C212.18,35.7,211.87,35.39,211.46,35.39z"
		/>
	<path d="M216.69,35.39c0-1.23,0.86-2.28,2.3-2.28c1.44,0,2.3,1.04,2.3,2.28c0,1.24-0.86,2.29-2.3,2.29
		C217.56,37.68,216.69,36.63,216.69,35.39z M220.1,35.39c0-0.67-0.41-1.26-1.12-1.26c-0.71,0-1.11,0.59-1.11,1.26
		c0,0.68,0.4,1.27,1.11,1.27C219.7,36.66,220.1,36.08,220.1,35.39z"/>
	<path d="M222.84,34.22h-0.72v-1h0.72v-0.23c0-0.95,0.61-1.51,1.47-1.51c0.32,0,0.62,0.07,0.83,0.18l-0.23,0.81
		c-0.1-0.06-0.23-0.09-0.37-0.09c-0.32,0-0.54,0.22-0.54,0.63v0.22h0.88v1h-0.88v3.35h-1.15V34.22z"/>
	<path d="M230.69,33.12c1.3,0,2.18,0.97,2.18,2.39v0.25h-3.23c0.07,0.55,0.51,1.01,1.25,1.01c0.41,0,0.88-0.16,1.16-0.43l0.5,0.74
		c-0.44,0.41-1.12,0.6-1.79,0.6c-1.32,0-2.32-0.89-2.32-2.29C228.44,34.13,229.36,33.12,230.69,33.12z M229.62,34.99h2.14
		c-0.03-0.41-0.31-0.96-1.07-0.96C229.98,34.02,229.67,34.56,229.62,34.99z"/>
	<path d="M233.52,33.22h1.22l1.13,3.03l1.13-3.03h1.23l-1.75,4.35h-1.23L233.52,33.22z"/>
	<path d="M241.18,33.12c1.3,0,2.18,0.97,2.18,2.39v0.25h-3.23c0.07,0.55,0.51,1.01,1.25,1.01c0.41,0,0.88-0.16,1.16-0.43l0.5,0.74
		c-0.44,0.41-1.12,0.6-1.79,0.6c-1.32,0-2.32-0.89-2.32-2.29C238.93,34.13,239.86,33.12,241.18,33.12z M240.11,34.99h2.14
		c-0.03-0.41-0.31-0.96-1.07-0.96C240.47,34.02,240.16,34.56,240.11,34.99z"/>
	<path d="M244.63,33.22h1.14v0.59c0.31-0.39,0.85-0.69,1.39-0.69v1.12c-0.08-0.02-0.19-0.03-0.31-0.03c-0.38,0-0.88,0.21-1.07,0.49
		v2.87h-1.14V33.22z"/>
	<path d="M248.02,34.91h2.16v0.97h-2.16V34.91z"/>
	<path d="M251.47,39.23v-6h1.14v0.55c0.33-0.42,0.81-0.66,1.34-0.66c1.12,0,1.93,0.83,1.93,2.28s-0.81,2.29-1.93,2.29
		c-0.51,0-0.99-0.22-1.34-0.67v2.21H251.47z M253.59,34.13c-0.37,0-0.79,0.22-0.98,0.5v1.54c0.19,0.27,0.61,0.5,0.98,0.5
		c0.66,0,1.1-0.51,1.1-1.27C254.69,34.65,254.25,34.13,253.59,34.13z"/>
	<path d="M259.79,37.12c-0.3,0.35-0.81,0.56-1.38,0.56c-0.69,0-1.51-0.47-1.51-1.44c0-1.02,0.82-1.39,1.51-1.39
		c0.58,0,1.09,0.18,1.38,0.53v-0.6c0-0.44-0.38-0.73-0.95-0.73c-0.47,0-0.9,0.17-1.27,0.51l-0.43-0.77c0.53-0.47,1.22-0.68,1.9-0.68
		c0.99,0,1.9,0.4,1.9,1.65v2.81h-1.14V37.12z M259.79,35.99c-0.19-0.25-0.55-0.38-0.92-0.38c-0.45,0-0.82,0.24-0.82,0.66
		c0,0.41,0.37,0.64,0.82,0.64c0.37,0,0.73-0.13,0.92-0.38V35.99z"/>
	<path d="M262.52,33.22h1.14v0.59c0.31-0.39,0.85-0.69,1.39-0.69v1.12c-0.08-0.02-0.19-0.03-0.31-0.03c-0.38,0-0.88,0.21-1.07,0.49
		v2.87h-1.14V33.22z"/>
	<path d="M266.43,36.49v-2.27h-0.72v-1h0.72v-1.19h1.15v1.19h0.88v1h-0.88v1.96c0,0.27,0.14,0.48,0.4,0.48
		c0.17,0,0.33-0.06,0.4-0.13l0.24,0.86c-0.17,0.15-0.48,0.28-0.95,0.28C266.87,37.68,266.43,37.27,266.43,36.49z"/>
	<path d="M272.63,34.94c0-0.6-0.31-0.81-0.8-0.81c-0.45,0-0.8,0.25-0.99,0.51v2.93h-1.14v-4.35h1.14v0.57
		c0.28-0.33,0.81-0.67,1.52-0.67c0.95,0,1.41,0.54,1.41,1.39v3.07h-1.14V34.94z"/>
	<path d="M277.32,33.12c1.3,0,2.18,0.97,2.18,2.39v0.25h-3.23c0.07,0.55,0.51,1.01,1.25,1.01c0.41,0,0.88-0.16,1.16-0.43l0.5,0.74
		c-0.44,0.41-1.12,0.6-1.79,0.6c-1.32,0-2.32-0.89-2.32-2.29C275.06,34.13,275.99,33.12,277.32,33.12z M276.24,34.99h2.14
		c-0.03-0.41-0.31-0.96-1.07-0.96C276.6,34.02,276.3,34.56,276.24,34.99z"/>
	<path d="M280.76,33.22h1.14v0.59c0.31-0.39,0.85-0.69,1.39-0.69v1.12c-0.08-0.02-0.19-0.03-0.32-0.03c-0.38,0-0.88,0.21-1.07,0.49
		v2.87h-1.14V33.22z"/>
	<path d="M286.42,33.12c1.3,0,2.18,0.97,2.18,2.39v0.25h-3.23c0.07,0.55,0.51,1.01,1.25,1.01c0.41,0,0.88-0.16,1.16-0.43l0.5,0.74
		c-0.44,0.41-1.12,0.6-1.79,0.6c-1.32,0-2.32-0.89-2.32-2.29C284.17,34.13,285.1,33.12,286.42,33.12z M285.35,34.99h2.14
		c-0.03-0.41-0.31-0.96-1.07-0.96C285.71,34.02,285.41,34.56,285.35,34.99z"/>
	<path d="M292.86,37.02c-0.34,0.42-0.82,0.66-1.34,0.66c-1.1,0-1.93-0.83-1.93-2.28c0-1.42,0.82-2.29,1.93-2.29
		c0.51,0,1,0.22,1.34,0.67v-2.21h1.15v6h-1.15V37.02z M292.86,34.63c-0.2-0.29-0.6-0.5-0.99-0.5c-0.65,0-1.1,0.51-1.1,1.27
		c0,0.75,0.45,1.26,1.1,1.26c0.39,0,0.79-0.21,0.99-0.5V34.63z"/>
	<path d="M301.24,34.61l-0.92,2.96h-1.22l-1.32-4.35h1.19l0.81,2.93l0.96-2.93h1.02l0.95,2.93l0.81-2.93h1.19l-1.32,4.35h-1.21
		L301.24,34.61z"/>
	<path d="M305.42,35.39c0-1.23,0.86-2.28,2.3-2.28c1.44,0,2.3,1.04,2.3,2.28c0,1.24-0.86,2.29-2.3,2.29
		C306.29,37.68,305.42,36.63,305.42,35.39z M308.83,35.39c0-0.67-0.41-1.26-1.12-1.26c-0.71,0-1.11,0.59-1.11,1.26
		c0,0.68,0.4,1.27,1.11,1.27C308.43,36.66,308.83,36.08,308.83,35.39z"/>
	<path d="M316.71,34.83c0-0.41-0.18-0.69-0.65-0.69c-0.41,0-0.74,0.27-0.9,0.5v2.93h-1.15v-2.75c0-0.41-0.18-0.69-0.65-0.69
		c-0.4,0-0.73,0.27-0.9,0.51v2.93h-1.14v-4.35h1.14v0.57c0.18-0.26,0.76-0.67,1.42-0.67c0.64,0,1.04,0.3,1.21,0.79
		c0.25-0.4,0.83-0.79,1.5-0.79c0.8,0,1.28,0.42,1.28,1.31v3.14h-1.15V34.83z"/>
	<path d="M321.41,33.12c1.3,0,2.18,0.97,2.18,2.39v0.25h-3.23c0.07,0.55,0.51,1.01,1.25,1.01c0.41,0,0.88-0.16,1.16-0.43l0.5,0.74
		c-0.44,0.41-1.12,0.6-1.79,0.6c-1.32,0-2.32-0.89-2.32-2.29C319.16,34.13,320.08,33.12,321.41,33.12z M320.33,34.99h2.14
		c-0.03-0.41-0.32-0.96-1.07-0.96C320.69,34.02,320.39,34.56,320.33,34.99z"/>
	<path d="M327.8,34.94c0-0.6-0.32-0.81-0.8-0.81c-0.45,0-0.8,0.25-0.99,0.51v2.93h-1.14v-4.35H326v0.57
		c0.28-0.33,0.81-0.67,1.52-0.67c0.95,0,1.41,0.54,1.41,1.39v3.07h-1.14V34.94z"/>
</g>
<g>
	<path d="M336.22,37.57v-0.5c-0.36,0.4-0.85,0.6-1.44,0.6c-0.74,0-1.52-0.5-1.52-1.44c0-0.97,0.78-1.43,1.52-1.43
		c0.59,0,1.09,0.19,1.44,0.59v-0.78c0-0.58-0.47-0.92-1.1-0.92c-0.52,0-0.95,0.19-1.33,0.6l-0.31-0.47
		c0.47-0.49,1.03-0.72,1.74-0.72c0.92,0,1.68,0.41,1.68,1.47v2.99H336.22z M336.22,36.65v-0.82c-0.26-0.36-0.72-0.54-1.2-0.54
		c-0.63,0-1.07,0.4-1.07,0.95c0,0.55,0.44,0.95,1.07,0.95C335.5,37.19,335.96,37.01,336.22,36.65z"/>
	<path d="M338.68,38.69l0.34-0.5c0.36,0.43,0.79,0.59,1.41,0.59c0.72,0,1.4-0.35,1.4-1.3v-0.62c-0.32,0.44-0.85,0.77-1.46,0.77
		c-1.13,0-1.94-0.85-1.94-2.25c0-1.4,0.79-2.26,1.94-2.26c0.59,0,1.11,0.29,1.46,0.76v-0.66h0.67v4.22c0,1.44-1.01,1.89-2.07,1.89
		C339.7,39.34,339.19,39.19,338.68,38.69z M341.83,36.32v-1.9c-0.23-0.38-0.76-0.7-1.3-0.7c-0.87,0-1.4,0.69-1.4,1.66
		c0,0.95,0.52,1.66,1.4,1.66C341.07,37.03,341.59,36.7,341.83,36.32z"/>
	<path d="M344.05,35.39c0-1.26,0.9-2.28,2.14-2.28c1.31,0,2.09,1.03,2.09,2.33v0.17h-3.52c0.05,0.82,0.63,1.5,1.57,1.5
		c0.5,0,1-0.2,1.34-0.55l0.32,0.44c-0.43,0.43-1.02,0.67-1.73,0.67C344.98,37.68,344.05,36.75,344.05,35.39z M346.18,33.67
		c-0.93,0-1.39,0.78-1.42,1.45h2.85C347.61,34.47,347.17,33.67,346.18,33.67z"/>
	<path d="M352.97,37.57v-0.65c-0.32,0.44-0.86,0.76-1.47,0.76c-1.13,0-1.94-0.86-1.94-2.28c0-1.39,0.79-2.29,1.94-2.29
		c0.59,0,1.12,0.29,1.47,0.76v-2.31h0.67v6H352.97z M352.97,36.39v-1.97c-0.24-0.38-0.77-0.7-1.31-0.7c-0.87,0-1.4,0.72-1.4,1.68
		c0,0.96,0.52,1.67,1.4,1.67C352.21,37.08,352.73,36.77,352.97,36.39z"/>
</g>
<g>
	<path d="M146.2,52.57v-5.01l-0.96,1.02l-0.45-0.46l1.5-1.55h0.66v6H146.2z"/>
	<path d="M148.69,51.72l0.46-0.5c0.4,0.5,0.92,0.79,1.66,0.79c0.82,0,1.39-0.56,1.39-1.29c0-0.79-0.57-1.3-1.38-1.3
		c-0.53,0-0.98,0.17-1.39,0.57l-0.55-0.19v-3.24h3.67v0.67h-2.93v2.09c0.29-0.29,0.8-0.54,1.4-0.54c1,0,1.91,0.68,1.91,1.92
		c0,1.22-0.93,1.98-2.13,1.98C149.79,52.68,149.14,52.31,148.69,51.72z"/>
	<path d="M154.12,50.69V50.1h2.16v0.59H154.12z"/>
	<path d="M160.14,52.57v-1.52h-2.85v-0.62l2.57-3.86h1.03v3.83h0.85v0.66h-0.85v1.52H160.14z M160.14,47.26l-2.11,3.13h2.11V47.26z"
		/>
	<path d="M163.21,51.95l0.38-0.56c0.31,0.36,0.67,0.61,1.29,0.61c1.22,0,1.69-1.21,1.69-2.35c0-0.08,0-0.16-0.01-0.24
		c-0.26,0.41-0.93,0.94-1.69,0.94c-1.08,0-1.97-0.64-1.97-1.92c0-1.04,0.79-1.96,2.1-1.96c1.68,0,2.32,1.47,2.32,3.11
		c0,1.62-0.76,3.1-2.44,3.1C164.11,52.67,163.59,52.38,163.21,51.95z M166.54,48.81c-0.06-0.75-0.46-1.67-1.5-1.67
		c-0.92,0-1.38,0.7-1.38,1.27c0,0.88,0.61,1.3,1.39,1.3C165.64,49.7,166.22,49.34,166.54,48.81z"/>
	<path d="M171.53,53.66c0.1,0.05,0.26,0.07,0.37,0.07c0.3,0,0.5-0.1,0.65-0.46l0.29-0.66l-1.82-4.39h0.73l1.45,3.57l1.44-3.57h0.74
		l-2.18,5.23c-0.26,0.63-0.7,0.87-1.28,0.88c-0.14,0-0.37-0.03-0.5-0.06L171.53,53.66z"/>
	<path d="M176.27,50.4c0-1.26,0.9-2.28,2.14-2.28c1.31,0,2.09,1.03,2.09,2.33v0.17h-3.52c0.05,0.82,0.63,1.5,1.57,1.5
		c0.5,0,1-0.2,1.34-0.55l0.32,0.44c-0.43,0.43-1.02,0.67-1.73,0.67C177.2,52.68,176.27,51.76,176.27,50.4z M178.41,48.68
		c-0.93,0-1.39,0.78-1.42,1.45h2.85C179.83,49.48,179.4,48.68,178.41,48.68z"/>
	<path d="M184.76,52.57v-0.5c-0.36,0.4-0.86,0.6-1.44,0.6c-0.74,0-1.52-0.5-1.52-1.44c0-0.97,0.78-1.43,1.52-1.43
		c0.59,0,1.09,0.19,1.44,0.59v-0.78c0-0.58-0.47-0.92-1.1-0.92c-0.52,0-0.95,0.19-1.33,0.6l-0.32-0.47
		c0.47-0.49,1.03-0.72,1.74-0.72c0.92,0,1.68,0.41,1.68,1.47v2.99H184.76z M184.76,51.66v-0.82c-0.26-0.36-0.72-0.54-1.2-0.54
		c-0.63,0-1.07,0.4-1.07,0.95c0,0.55,0.44,0.95,1.07,0.95C184.04,52.2,184.5,52.02,184.76,51.66z"/>
	<path d="M187.23,52.57v-4.35h0.68v0.7c0.35-0.46,0.85-0.79,1.45-0.79v0.69c-0.08-0.02-0.16-0.03-0.27-0.03
		c-0.41,0-0.98,0.34-1.18,0.69v3.08H187.23z"/>
	<path d="M190.27,52l0.35-0.49c0.29,0.33,0.84,0.62,1.43,0.62c0.67,0,1.03-0.31,1.03-0.75c0-1.05-2.69-0.41-2.69-2.02
		c0-0.67,0.59-1.25,1.62-1.25c0.74,0,1.26,0.28,1.61,0.63l-0.31,0.47c-0.26-0.31-0.74-0.55-1.3-0.55c-0.59,0-0.96,0.3-0.96,0.68
		c0,0.95,2.69,0.32,2.69,2.02c0,0.73-0.59,1.31-1.71,1.31C191.31,52.68,190.71,52.47,190.27,52z"/>
	<path d="M200.99,52.57v-2.86c0-0.76-0.4-0.99-0.98-0.99c-0.52,0-1.03,0.32-1.29,0.68v3.18h-0.68v-6h0.68v2.29
		c0.31-0.36,0.9-0.74,1.56-0.74c0.91,0,1.39,0.44,1.39,1.39v3.07H200.99z"/>
	<path d="M206.18,52.57v-0.5c-0.36,0.4-0.86,0.6-1.44,0.6c-0.74,0-1.52-0.5-1.52-1.44c0-0.97,0.78-1.43,1.52-1.43
		c0.59,0,1.09,0.19,1.44,0.59v-0.78c0-0.58-0.47-0.92-1.1-0.92c-0.52,0-0.95,0.19-1.33,0.6l-0.31-0.47
		c0.47-0.49,1.03-0.72,1.74-0.72c0.92,0,1.68,0.41,1.68,1.47v2.99H206.18z M206.18,51.66v-0.82c-0.26-0.36-0.72-0.54-1.2-0.54
		c-0.63,0-1.07,0.4-1.07,0.95c0,0.55,0.44,0.95,1.07,0.95C205.46,52.2,205.92,52.02,206.18,51.66z"/>
	<path d="M209.81,52.57L208,48.23h0.73l1.45,3.57l1.44-3.57h0.74l-1.81,4.35H209.81z"/>
	<path d="M213.25,50.4c0-1.26,0.9-2.28,2.14-2.28c1.31,0,2.09,1.03,2.09,2.33v0.17h-3.52c0.05,0.82,0.63,1.5,1.57,1.5
		c0.5,0,1-0.2,1.34-0.55l0.32,0.44c-0.43,0.43-1.02,0.67-1.73,0.67C214.18,52.68,213.25,51.76,213.25,50.4z M215.39,48.68
		c-0.93,0-1.39,0.78-1.42,1.45h2.85C216.81,49.48,216.38,48.68,215.39,48.68z"/>
	<path d="M221.53,50.4c0-1.26,0.9-2.28,2.14-2.28c1.31,0,2.09,1.03,2.09,2.33v0.17h-3.52c0.05,0.82,0.63,1.5,1.57,1.5
		c0.5,0,1-0.2,1.34-0.55l0.32,0.44c-0.43,0.43-1.02,0.67-1.73,0.67C222.46,52.68,221.53,51.76,221.53,50.4z M223.67,48.68
		c-0.93,0-1.39,0.78-1.42,1.45h2.85C225.09,49.48,224.66,48.68,223.67,48.68z"/>
	<path d="M230.12,52.57l-1.31-1.78l-1.31,1.78h-0.77l1.67-2.23l-1.58-2.12h0.78l1.21,1.66l1.21-1.66h0.78l-1.58,2.12l1.67,2.23
		H230.12z"/>
	<path d="M232.8,51.92v2.31h-0.68v-6h0.68v0.65c0.31-0.44,0.85-0.76,1.47-0.76c1.14,0,1.94,0.86,1.94,2.28
		c0,1.4-0.79,2.29-1.94,2.29C233.67,52.68,233.15,52.4,232.8,51.92z M235.49,50.4c0-0.96-0.52-1.67-1.4-1.67
		c-0.53,0-1.06,0.32-1.3,0.69v1.96c0.23,0.38,0.77,0.7,1.3,0.7C234.97,52.08,235.49,51.36,235.49,50.4z"/>
	<path d="M237.47,50.4c0-1.26,0.9-2.28,2.14-2.28c1.31,0,2.09,1.03,2.09,2.33v0.17h-3.52c0.05,0.82,0.63,1.5,1.57,1.5
		c0.5,0,1-0.2,1.34-0.55l0.32,0.44c-0.43,0.43-1.02,0.67-1.73,0.67C238.4,52.68,237.47,51.76,237.47,50.4z M239.61,48.68
		c-0.93,0-1.39,0.78-1.42,1.45h2.85C241.03,49.48,240.6,48.68,239.61,48.68z"/>
	<path d="M243.24,52.57v-4.35h0.68v0.7c0.35-0.46,0.85-0.79,1.45-0.79v0.69c-0.08-0.02-0.16-0.03-0.27-0.03
		c-0.41,0-0.98,0.34-1.18,0.69v3.08H243.24z"/>
	<path d="M246.54,47.15c0-0.25,0.21-0.46,0.45-0.46c0.25,0,0.46,0.21,0.46,0.46s-0.21,0.45-0.46,0.45
		C246.75,47.6,246.54,47.41,246.54,47.15z M246.66,52.57v-4.35h0.68v4.35H246.66z"/>
	<path d="M248.88,50.4c0-1.26,0.9-2.28,2.14-2.28c1.31,0,2.09,1.03,2.09,2.33v0.17h-3.52c0.05,0.82,0.63,1.5,1.57,1.5
		c0.5,0,1-0.2,1.34-0.55l0.32,0.44c-0.43,0.43-1.02,0.67-1.73,0.67C249.81,52.68,248.88,51.76,248.88,50.4z M251.02,48.68
		c-0.93,0-1.39,0.78-1.42,1.45h2.85C252.44,49.48,252.01,48.68,251.02,48.68z"/>
	<path d="M257.59,52.57v-2.84c0-0.77-0.39-1.01-0.97-1.01c-0.53,0-1.04,0.32-1.29,0.68v3.18h-0.68v-4.35h0.68v0.63
		c0.31-0.36,0.9-0.74,1.55-0.74c0.91,0,1.39,0.46,1.39,1.4v3.05H257.59z"/>
	<path d="M259.81,50.4c0-1.29,0.87-2.28,2.17-2.28c0.79,0,1.26,0.32,1.59,0.76l-0.45,0.41c-0.29-0.4-0.66-0.57-1.11-0.57
		c-0.93,0-1.5,0.71-1.5,1.67s0.58,1.68,1.5,1.68c0.45,0,0.82-0.18,1.11-0.57l0.45,0.41c-0.33,0.43-0.8,0.76-1.59,0.76
		C260.68,52.68,259.81,51.69,259.81,50.4z"/>
	<path d="M264.71,50.4c0-1.26,0.9-2.28,2.14-2.28c1.31,0,2.09,1.03,2.09,2.33v0.17h-3.52c0.05,0.82,0.63,1.5,1.57,1.5
		c0.5,0,1-0.2,1.34-0.55l0.32,0.44c-0.43,0.43-1.02,0.67-1.73,0.67C265.64,52.68,264.71,51.76,264.71,50.4z M266.85,48.68
		c-0.93,0-1.39,0.78-1.42,1.45h2.85C268.27,49.48,267.84,48.68,266.85,48.68z"/>
	<path d="M273.63,52.57v-0.65c-0.32,0.44-0.86,0.76-1.47,0.76c-1.13,0-1.94-0.86-1.94-2.28c0-1.39,0.79-2.29,1.94-2.29
		c0.58,0,1.12,0.29,1.47,0.76v-2.31h0.67v6H273.63z M273.63,51.39v-1.97c-0.24-0.38-0.77-0.7-1.31-0.7c-0.87,0-1.4,0.72-1.4,1.68
		c0,0.96,0.52,1.67,1.4,1.67C272.87,52.08,273.39,51.77,273.63,51.39z"/>
	<path d="M278.75,47.15c0-0.25,0.21-0.46,0.45-0.46c0.25,0,0.46,0.21,0.46,0.46s-0.21,0.45-0.46,0.45
		C278.95,47.6,278.75,47.41,278.75,47.15z M278.86,52.57v-4.35h0.67v4.35H278.86z"/>
	<path d="M284.27,52.57v-2.84c0-0.77-0.39-1.01-0.97-1.01c-0.53,0-1.04,0.32-1.29,0.68v3.18h-0.67v-4.35h0.67v0.63
		c0.31-0.36,0.9-0.74,1.55-0.74c0.91,0,1.39,0.46,1.39,1.4v3.05H284.27z"/>
	<path d="M286.88,51.67v-2.84h-0.72v-0.59h0.72v-1.19h0.68v1.19h0.88v0.59h-0.88v2.7c0,0.32,0.14,0.56,0.44,0.56
		c0.19,0,0.37-0.08,0.46-0.18l0.2,0.5c-0.17,0.16-0.41,0.28-0.81,0.28C287.21,52.68,286.88,52.31,286.88,51.67z"/>
	<path d="M289.72,47.15c0-0.25,0.21-0.46,0.45-0.46c0.25,0,0.46,0.21,0.46,0.46s-0.21,0.45-0.46,0.45
		C289.93,47.6,289.72,47.41,289.72,47.15z M289.84,52.57v-4.35h0.68v4.35H289.84z"/>
	<path d="M297.57,52.57v-2.95c0-0.55-0.24-0.9-0.8-0.9c-0.45,0-0.93,0.32-1.15,0.67v3.19h-0.67v-2.95c0-0.55-0.23-0.9-0.8-0.9
		c-0.44,0-0.91,0.32-1.14,0.68v3.18h-0.68v-4.35h0.68v0.63c0.18-0.28,0.77-0.74,1.4-0.74c0.67,0,1.04,0.36,1.17,0.81
		c0.24-0.4,0.83-0.81,1.46-0.81c0.79,0,1.21,0.44,1.21,1.31v3.14H297.57z"/>
	<path d="M302.75,52.57v-0.5c-0.36,0.4-0.86,0.6-1.44,0.6c-0.74,0-1.52-0.5-1.52-1.44c0-0.97,0.78-1.43,1.52-1.43
		c0.59,0,1.09,0.19,1.44,0.59v-0.78c0-0.58-0.47-0.92-1.1-0.92c-0.52,0-0.95,0.19-1.33,0.6L300,48.84c0.47-0.49,1.03-0.72,1.74-0.72
		c0.92,0,1.68,0.41,1.68,1.47v2.99H302.75z M302.75,51.66v-0.82c-0.26-0.36-0.72-0.54-1.2-0.54c-0.63,0-1.07,0.4-1.07,0.95
		c0,0.55,0.44,0.95,1.07,0.95C302.03,52.2,302.49,52.02,302.75,51.66z"/>
	<path d="M305.35,51.67v-2.84h-0.72v-0.59h0.72v-1.19h0.68v1.19h0.88v0.59h-0.88v2.7c0,0.32,0.14,0.56,0.44,0.56
		c0.19,0,0.37-0.08,0.46-0.18l0.2,0.5c-0.17,0.16-0.41,0.28-0.81,0.28C305.67,52.68,305.35,52.31,305.35,51.67z"/>
	<path d="M308.06,50.4c0-1.26,0.9-2.28,2.14-2.28c1.31,0,2.09,1.03,2.09,2.33v0.17h-3.52c0.05,0.82,0.63,1.5,1.57,1.5
		c0.5,0,1-0.2,1.34-0.55l0.32,0.44c-0.43,0.43-1.02,0.67-1.73,0.67C308.99,52.68,308.06,51.76,308.06,50.4z M310.19,48.68
		c-0.93,0-1.39,0.78-1.42,1.45h2.85C311.61,49.48,311.18,48.68,310.19,48.68z"/>
	<path d="M317.26,51.92v2.31h-0.68v-6h0.68v0.65c0.31-0.44,0.86-0.76,1.47-0.76c1.14,0,1.94,0.86,1.94,2.28
		c0,1.4-0.79,2.29-1.94,2.29C318.14,52.68,317.62,52.4,317.26,51.92z M319.96,50.4c0-0.96-0.52-1.67-1.4-1.67
		c-0.53,0-1.06,0.32-1.3,0.69v1.96c0.23,0.38,0.76,0.7,1.3,0.7C319.43,52.08,319.96,51.36,319.96,50.4z"/>
	<path d="M324.91,52.57v-0.5c-0.36,0.4-0.85,0.6-1.44,0.6c-0.74,0-1.52-0.5-1.52-1.44c0-0.97,0.78-1.43,1.52-1.43
		c0.59,0,1.09,0.19,1.44,0.59v-0.78c0-0.58-0.47-0.92-1.1-0.92c-0.52,0-0.95,0.19-1.33,0.6l-0.31-0.47
		c0.47-0.49,1.03-0.72,1.74-0.72c0.92,0,1.68,0.41,1.68,1.47v2.99H324.91z M324.91,51.66v-0.82c-0.26-0.36-0.72-0.54-1.2-0.54
		c-0.63,0-1.07,0.4-1.07,0.95c0,0.55,0.44,0.95,1.07,0.95C324.19,52.2,324.65,52.02,324.91,51.66z"/>
	<path d="M327.37,52.57v-4.35h0.68v0.7c0.35-0.46,0.86-0.79,1.45-0.79v0.69c-0.08-0.02-0.16-0.03-0.27-0.03
		c-0.41,0-0.98,0.34-1.18,0.69v3.08H327.37z"/>
	<path d="M330.93,51.67v-2.84h-0.72v-0.59h0.72v-1.19h0.67v1.19h0.88v0.59h-0.88v2.7c0,0.32,0.14,0.56,0.44,0.56
		c0.19,0,0.37-0.08,0.46-0.18l0.2,0.5c-0.17,0.16-0.41,0.28-0.81,0.28C331.25,52.68,330.93,52.31,330.93,51.67z"/>
	<path d="M336.82,52.57v-2.84c0-0.77-0.39-1.01-0.97-1.01c-0.53,0-1.04,0.32-1.29,0.68v3.18h-0.68v-4.35h0.68v0.63
		c0.31-0.36,0.9-0.74,1.55-0.74c0.91,0,1.39,0.46,1.39,1.4v3.05H336.82z"/>
	<path d="M339.04,50.4c0-1.26,0.9-2.28,2.14-2.28c1.31,0,2.09,1.03,2.09,2.33v0.17h-3.52c0.05,0.82,0.63,1.5,1.57,1.5
		c0.5,0,1-0.2,1.34-0.55l0.32,0.44c-0.43,0.43-1.02,0.67-1.73,0.67C339.97,52.68,339.04,51.76,339.04,50.4z M341.18,48.68
		c-0.93,0-1.39,0.78-1.42,1.45h2.85C342.6,49.48,342.17,48.68,341.18,48.68z"/>
	<path d="M344.81,52.57v-4.35h0.68v0.7c0.35-0.46,0.86-0.79,1.45-0.79v0.69c-0.08-0.02-0.16-0.03-0.27-0.03
		c-0.41,0-0.98,0.34-1.18,0.69v3.08H344.81z"/>
</g>
<g>
	<path d="M146.43,67.58l-1.81-4.35h0.73l1.45,3.57l1.44-3.57h0.74l-1.81,4.35H146.43z"/>
	<path d="M150.01,62.16c0-0.25,0.21-0.46,0.45-0.46c0.25,0,0.46,0.21,0.46,0.46s-0.21,0.45-0.46,0.45
		C150.22,62.61,150.01,62.41,150.01,62.16z M150.13,67.58v-4.35h0.68v4.35H150.13z"/>
	<path d="M152.35,65.4c0-1.26,0.83-2.28,2.15-2.28s2.15,1.02,2.15,2.28s-0.83,2.29-2.15,2.29S152.35,66.66,152.35,65.4z
		 M155.94,65.4c0-0.88-0.51-1.67-1.44-1.67s-1.45,0.79-1.45,1.67c0,0.89,0.52,1.68,1.45,1.68S155.94,66.29,155.94,65.4z"/>
	<path d="M158.2,67.58v-6h0.68v6H158.2z"/>
	<path d="M160.42,65.4c0-1.26,0.9-2.28,2.14-2.28c1.31,0,2.09,1.03,2.09,2.33v0.17h-3.52c0.05,0.82,0.63,1.5,1.57,1.5
		c0.5,0,1-0.2,1.34-0.55l0.32,0.44c-0.43,0.43-1.02,0.67-1.73,0.67C161.35,67.69,160.42,66.76,160.42,65.4z M162.56,63.68
		c-0.93,0-1.39,0.78-1.42,1.45h2.85C163.98,64.48,163.55,63.68,162.56,63.68z"/>
	<path d="M169.13,67.58v-2.84c0-0.77-0.39-1.01-0.97-1.01c-0.53,0-1.04,0.32-1.29,0.68v3.18h-0.68v-4.35h0.68v0.63
		c0.31-0.36,0.9-0.74,1.55-0.74c0.91,0,1.39,0.46,1.39,1.4v3.05H169.13z"/>
	<path d="M171.34,65.4c0-1.29,0.87-2.28,2.17-2.28c0.79,0,1.26,0.32,1.59,0.76l-0.45,0.41c-0.29-0.4-0.66-0.57-1.11-0.57
		c-0.93,0-1.5,0.71-1.5,1.67s0.58,1.68,1.5,1.68c0.45,0,0.82-0.18,1.11-0.57l0.45,0.41c-0.33,0.43-0.8,0.76-1.59,0.76
		C172.21,67.69,171.34,66.7,171.34,65.4z"/>
	<path d="M176.24,65.4c0-1.26,0.9-2.28,2.14-2.28c1.31,0,2.09,1.03,2.09,2.33v0.17h-3.52c0.05,0.82,0.63,1.5,1.57,1.5
		c0.5,0,1-0.2,1.34-0.55l0.32,0.44c-0.43,0.43-1.02,0.67-1.73,0.67C177.16,67.69,176.24,66.76,176.24,65.4z M178.37,63.68
		c-0.93,0-1.39,0.78-1.42,1.45h2.85C179.79,64.48,179.36,63.68,178.37,63.68z"/>
	<path d="M187.49,67.58v-0.5c-0.36,0.4-0.86,0.6-1.44,0.6c-0.74,0-1.52-0.5-1.52-1.44c0-0.97,0.78-1.43,1.52-1.43
		c0.59,0,1.09,0.19,1.44,0.59v-0.78c0-0.58-0.47-0.92-1.1-0.92c-0.52,0-0.95,0.19-1.33,0.6l-0.31-0.47
		c0.47-0.49,1.03-0.72,1.74-0.72c0.92,0,1.68,0.41,1.68,1.47v2.99H187.49z M187.49,66.66v-0.82c-0.26-0.36-0.72-0.54-1.2-0.54
		c-0.63,0-1.07,0.4-1.07,0.95c0,0.55,0.44,0.95,1.07,0.95C186.77,67.2,187.23,67.02,187.49,66.66z"/>
	<path d="M190.09,66.67v-2.84h-0.72v-0.59h0.72v-1.19h0.68v1.19h0.88v0.59h-0.88v2.7c0,0.32,0.14,0.56,0.44,0.56
		c0.19,0,0.37-0.08,0.46-0.18l0.2,0.5c-0.17,0.16-0.41,0.28-0.81,0.28C190.41,67.69,190.09,67.32,190.09,66.67z"/>
	<path d="M195.81,67.58v-6h0.68v6H195.81z"/>
	<path d="M198.03,65.4c0-1.26,0.9-2.28,2.14-2.28c1.31,0,2.09,1.03,2.09,2.33v0.17h-3.52c0.05,0.82,0.63,1.5,1.57,1.5
		c0.5,0,1-0.2,1.34-0.55l0.32,0.44c-0.43,0.43-1.02,0.67-1.73,0.67C198.96,67.69,198.03,66.76,198.03,65.4z M200.17,63.68
		c-0.93,0-1.39,0.78-1.42,1.45h2.85C201.59,64.48,201.16,63.68,200.17,63.68z"/>
	<path d="M206.52,67.58v-0.5c-0.36,0.4-0.86,0.6-1.44,0.6c-0.74,0-1.52-0.5-1.52-1.44c0-0.97,0.78-1.43,1.52-1.43
		c0.59,0,1.09,0.19,1.44,0.59v-0.78c0-0.58-0.47-0.92-1.1-0.92c-0.52,0-0.95,0.19-1.33,0.6l-0.32-0.47
		c0.47-0.49,1.03-0.72,1.74-0.72c0.92,0,1.68,0.41,1.68,1.47v2.99H206.52z M206.52,66.66v-0.82c-0.26-0.36-0.72-0.54-1.2-0.54
		c-0.63,0-1.07,0.4-1.07,0.95c0,0.55,0.44,0.95,1.07,0.95C205.8,67.2,206.26,67.02,206.52,66.66z"/>
	<path d="M208.62,67l0.35-0.49c0.29,0.33,0.84,0.62,1.43,0.62c0.67,0,1.03-0.31,1.03-0.75c0-1.05-2.69-0.41-2.69-2.02
		c0-0.67,0.59-1.25,1.62-1.25c0.74,0,1.26,0.28,1.61,0.63l-0.31,0.47c-0.26-0.31-0.74-0.55-1.3-0.55c-0.59,0-0.96,0.3-0.96,0.68
		c0,0.95,2.69,0.32,2.69,2.02c0,0.73-0.59,1.31-1.71,1.31C209.66,67.69,209.06,67.47,208.62,67z"/>
	<path d="M213.76,66.67v-2.84h-0.72v-0.59h0.72v-1.19h0.68v1.19h0.88v0.59h-0.88v2.7c0,0.32,0.14,0.56,0.44,0.56
		c0.19,0,0.37-0.08,0.46-0.18l0.2,0.5c-0.17,0.16-0.41,0.28-0.81,0.28C214.08,67.69,213.76,67.32,213.76,66.67z"/>
	<path d="M219.23,65.4c0-1.26,0.83-2.28,2.15-2.28s2.15,1.02,2.15,2.28s-0.83,2.29-2.15,2.29S219.23,66.66,219.23,65.4z
		 M222.82,65.4c0-0.88-0.51-1.67-1.44-1.67s-1.45,0.79-1.45,1.67c0,0.89,0.52,1.68,1.45,1.68S222.82,66.29,222.82,65.4z"/>
	<path d="M228.01,67.58v-2.84c0-0.77-0.39-1.01-0.97-1.01c-0.53,0-1.04,0.32-1.29,0.68v3.18h-0.68v-4.35h0.68v0.63
		c0.31-0.36,0.9-0.74,1.55-0.74c0.91,0,1.39,0.46,1.39,1.4v3.05H228.01z"/>
	<path d="M230.23,65.4c0-1.29,0.87-2.28,2.17-2.28c0.79,0,1.26,0.32,1.59,0.76l-0.45,0.41c-0.29-0.4-0.66-0.57-1.11-0.57
		c-0.93,0-1.5,0.71-1.5,1.67s0.58,1.68,1.5,1.68c0.45,0,0.82-0.18,1.11-0.57l0.45,0.41c-0.33,0.43-0.8,0.76-1.59,0.76
		C231.1,67.69,230.23,66.7,230.23,65.4z"/>
	<path d="M235.13,65.4c0-1.26,0.9-2.28,2.14-2.28c1.31,0,2.09,1.03,2.09,2.33v0.17h-3.52c0.05,0.82,0.63,1.5,1.57,1.5
		c0.5,0,1-0.2,1.34-0.55l0.32,0.44c-0.43,0.43-1.02,0.67-1.73,0.67C236.06,67.69,235.13,66.76,235.13,65.4z M237.27,63.68
		c-0.93,0-1.39,0.78-1.42,1.45h2.85C238.69,64.48,238.26,63.68,237.27,63.68z"/>
	<path d="M243.55,62.16c0-0.25,0.21-0.46,0.45-0.46c0.25,0,0.46,0.21,0.46,0.46s-0.21,0.45-0.46,0.45
		C243.75,62.61,243.55,62.41,243.55,62.16z M243.66,67.58v-4.35h0.68v4.35H243.66z"/>
	<path d="M249.07,67.58v-2.84c0-0.77-0.39-1.01-0.97-1.01c-0.53,0-1.04,0.32-1.29,0.68v3.18h-0.68v-4.35h0.68v0.63
		c0.31-0.36,0.9-0.74,1.55-0.74c0.91,0,1.39,0.46,1.39,1.4v3.05H249.07z"/>
	<path d="M254.45,66.67v-2.84h-0.72v-0.59h0.72v-1.19h0.68v1.19H256v0.59h-0.88v2.7c0,0.32,0.14,0.56,0.44,0.56
		c0.19,0,0.37-0.08,0.46-0.18l0.2,0.5c-0.17,0.16-0.41,0.28-0.81,0.28C254.77,67.69,254.45,67.32,254.45,66.67z"/>
	<path d="M260.35,67.58v-2.86c0-0.76-0.4-0.99-0.98-0.99c-0.52,0-1.03,0.32-1.29,0.68v3.18h-0.68v-6h0.68v2.29
		c0.31-0.36,0.9-0.74,1.56-0.74c0.91,0,1.39,0.44,1.39,1.39v3.07H260.35z"/>
	<path d="M262.57,65.4c0-1.26,0.9-2.28,2.14-2.28c1.31,0,2.09,1.03,2.09,2.33v0.17h-3.52c0.05,0.82,0.63,1.5,1.57,1.5
		c0.5,0,1-0.2,1.34-0.55l0.32,0.44c-0.43,0.43-1.02,0.67-1.73,0.67C263.5,67.69,262.57,66.76,262.57,65.4z M264.71,63.68
		c-0.93,0-1.39,0.78-1.42,1.45h2.85C266.13,64.48,265.7,63.68,264.71,63.68z"/>
	<path d="M268.22,62.16c0-0.25,0.21-0.46,0.45-0.46c0.25,0,0.46,0.21,0.46,0.46s-0.21,0.45-0.46,0.45
		C268.43,62.61,268.22,62.41,268.22,62.16z M268.34,67.58v-4.35h0.68v4.35H268.34z"/>
	<path d="M270.82,67.58v-4.35h0.68v0.7c0.35-0.46,0.85-0.79,1.45-0.79v0.69c-0.08-0.02-0.16-0.03-0.27-0.03
		c-0.41,0-0.98,0.34-1.18,0.69v3.08H270.82z"/>
	<path d="M277.01,67.58v-6h0.68v6H277.01z"/>
	<path d="M279.37,62.16c0-0.25,0.21-0.46,0.45-0.46c0.25,0,0.46,0.21,0.46,0.46s-0.21,0.45-0.46,0.45
		C279.57,62.61,279.37,62.41,279.37,62.16z M279.48,67.58v-4.35h0.67v4.35H279.48z"/>
	<path d="M282.15,67.58v-3.75h-0.72v-0.59h0.72V62.9c0-0.89,0.49-1.41,1.26-1.41c0.34,0,0.65,0.08,0.92,0.33l-0.28,0.44
		c-0.14-0.13-0.32-0.22-0.54-0.22c-0.44,0-0.68,0.31-0.68,0.86v0.33h0.88v0.59h-0.88v3.75H282.15z"/>
	<path d="M284.7,65.4c0-1.26,0.9-2.28,2.14-2.28c1.31,0,2.09,1.03,2.09,2.33v0.17h-3.52c0.05,0.82,0.63,1.5,1.57,1.5
		c0.5,0,1-0.2,1.34-0.55l0.32,0.44c-0.43,0.43-1.02,0.67-1.73,0.67C285.63,67.69,284.7,66.76,284.7,65.4z M286.84,63.68
		c-0.93,0-1.39,0.78-1.42,1.45h2.85C288.26,64.48,287.83,63.68,286.84,63.68z"/>
	<path d="M290.61,66.67v-2.84h-0.72v-0.59h0.72v-1.19h0.67v1.19h0.88v0.59h-0.88v2.7c0,0.32,0.14,0.56,0.44,0.56
		c0.19,0,0.37-0.08,0.46-0.18l0.2,0.5c-0.17,0.16-0.42,0.28-0.81,0.28C290.93,67.69,290.61,67.32,290.61,66.67z"/>
	<path d="M293.45,62.16c0-0.25,0.21-0.46,0.45-0.46c0.25,0,0.46,0.21,0.46,0.46s-0.21,0.45-0.46,0.45
		C293.66,62.61,293.45,62.41,293.45,62.16z M293.57,67.58v-4.35h0.67v4.35H293.57z"/>
	<path d="M301.29,67.58v-2.95c0-0.55-0.24-0.9-0.8-0.9c-0.45,0-0.93,0.32-1.15,0.67v3.19h-0.68v-2.95c0-0.55-0.23-0.9-0.8-0.9
		c-0.44,0-0.91,0.32-1.14,0.68v3.18h-0.67v-4.35h0.67v0.63c0.18-0.28,0.76-0.74,1.4-0.74c0.67,0,1.04,0.36,1.17,0.81
		c0.24-0.4,0.83-0.81,1.46-0.81c0.79,0,1.22,0.44,1.22,1.31v3.14H301.29z"/>
	<path d="M303.5,65.4c0-1.26,0.9-2.28,2.14-2.28c1.31,0,2.09,1.03,2.09,2.33v0.17h-3.52c0.05,0.82,0.63,1.5,1.57,1.5
		c0.5,0,1-0.2,1.34-0.55l0.32,0.44c-0.43,0.43-1.02,0.67-1.73,0.67C304.43,67.69,303.5,66.76,303.5,65.4z M305.64,63.68
		c-0.93,0-1.39,0.78-1.42,1.45h2.85C307.06,64.48,306.63,63.68,305.64,63.68z"/>
	<path d="M309.07,67.17c0-0.27,0.23-0.5,0.5-0.5c0.27,0,0.5,0.23,0.5,0.5c0,0.27-0.22,0.5-0.5,0.5
		C309.3,67.67,309.07,67.44,309.07,67.17z"/>
	<path d="M312.37,64.08l0.04-1.04l-0.86,0.57l-0.2-0.36l0.92-0.47l-0.92-0.47l0.2-0.35l0.86,0.56l-0.04-1.04h0.41l-0.05,1.04
		l0.86-0.56l0.21,0.35l-0.92,0.47l0.92,0.47l-0.21,0.36l-0.86-0.57l0.05,1.04H312.37z"/>
</g>
<g>
	<path d="M185.67,94.58c0-1.86,1.38-3.11,3.09-3.11c1.06,0,1.8,0.47,2.33,1.12l-0.59,0.37c-0.38-0.49-1.02-0.83-1.74-0.83
		c-1.31,0-2.31,1.01-2.31,2.44c0,1.42,1,2.45,2.31,2.45c0.72,0,1.31-0.35,1.61-0.65v-1.22h-2.06v-0.67h2.81v2.17
		c-0.56,0.62-1.38,1.04-2.36,1.04C187.05,97.69,185.67,96.44,185.67,94.58z"/>
	<path d="M192.74,97.57v-6h0.68v6H192.74z"/>
	<path d="M194.97,95.4c0-1.26,0.83-2.28,2.15-2.28s2.15,1.02,2.15,2.28s-0.83,2.29-2.15,2.29S194.97,96.66,194.97,95.4z
		 M198.56,95.4c0-0.88-0.51-1.67-1.44-1.67s-1.45,0.79-1.45,1.67c0,0.89,0.52,1.68,1.45,1.68S198.56,96.29,198.56,95.4z"/>
	<path d="M200.82,97.57v-6h0.68v2.31c0.35-0.48,0.87-0.76,1.47-0.76c1.13,0,1.94,0.9,1.94,2.29c0,1.41-0.8,2.28-1.94,2.28
		c-0.61,0-1.14-0.32-1.47-0.76v0.65H200.82z M202.79,97.08c0.88,0,1.4-0.71,1.4-1.67c0-0.96-0.52-1.68-1.4-1.68
		c-0.53,0-1.06,0.32-1.3,0.7v1.97C201.73,96.77,202.26,97.08,202.79,97.08z"/>
	<path d="M209.15,97.57v-0.5c-0.36,0.4-0.86,0.6-1.44,0.6c-0.74,0-1.52-0.5-1.52-1.44c0-0.97,0.78-1.43,1.52-1.43
		c0.59,0,1.09,0.19,1.44,0.59v-0.78c0-0.58-0.47-0.92-1.1-0.92c-0.52,0-0.95,0.19-1.33,0.6l-0.32-0.47
		c0.47-0.49,1.03-0.72,1.74-0.72c0.92,0,1.68,0.41,1.68,1.47v2.99H209.15z M209.15,96.66v-0.82c-0.26-0.36-0.72-0.54-1.2-0.54
		c-0.63,0-1.07,0.4-1.07,0.95c0,0.55,0.44,0.95,1.07,0.95C208.43,97.2,208.89,97.02,209.15,96.66z"/>
	<path d="M211.62,97.57v-6h0.68v6H211.62z"/>
	<path d="M214.09,97.57v-6h0.68v6H214.09z"/>
	<path d="M216.43,98.66c0.1,0.05,0.26,0.07,0.37,0.07c0.3,0,0.5-0.1,0.65-0.46l0.29-0.66l-1.82-4.39h0.73l1.45,3.57l1.44-3.57h0.74
		l-2.18,5.23c-0.26,0.63-0.7,0.87-1.28,0.88c-0.14,0-0.37-0.03-0.5-0.06L216.43,98.66z"/>
	<path d="M221.09,98.72l-0.33-0.28c0.29-0.19,0.55-0.54,0.58-0.84c-0.02,0.01-0.08,0.02-0.13,0.02c-0.25,0-0.43-0.19-0.43-0.46
		c0-0.26,0.21-0.49,0.48-0.49c0.3,0,0.57,0.25,0.57,0.68C221.83,97.91,221.51,98.42,221.09,98.72z"/>
</g>
<g>
	<path d="M226.4,95.88c0.41,0.43,1.07,0.68,1.66,0.68c0.73,0,1.13-0.32,1.13-0.77c0-0.49-0.37-0.71-1.21-0.71
		c-0.25,0-0.66,0-0.75,0.01v-1.12c0.11,0.01,0.51,0.01,0.75,0.01c0.67,0,1.11-0.22,1.11-0.67c0-0.48-0.49-0.72-1.12-0.72
		c-0.59,0-1.11,0.22-1.53,0.63l-0.63-0.79c0.49-0.55,1.24-0.95,2.3-0.95c1.4,0,2.27,0.63,2.27,1.63c0,0.76-0.65,1.25-1.31,1.37
		c0.61,0.06,1.4,0.54,1.4,1.44c0,1.04-0.93,1.76-2.37,1.76c-1.11,0-1.93-0.42-2.37-0.96L226.4,95.88z"/>
	<path d="M232.43,95.92c0.41,0.42,0.97,0.65,1.6,0.65c0.71,0,1.12-0.41,1.12-0.9c0-0.55-0.4-0.92-1.08-0.92
		c-0.5,0-0.9,0.15-1.26,0.5L231.92,95v-3.43h4.12v1.1h-2.87v1.5c0.32-0.28,0.8-0.5,1.35-0.5c1.02,0,1.93,0.72,1.93,1.94
		c0,1.27-0.95,2.07-2.4,2.07c-1.04,0-1.8-0.34-2.31-0.9L232.43,95.92z"/>
	<path d="M238.97,91.48c0.93,0,1.53,0.67,1.53,1.51c0,0.84-0.6,1.48-1.53,1.48c-0.92,0-1.52-0.64-1.52-1.48
		C237.45,92.15,238.05,91.48,238.97,91.48z M238.97,92.19c-0.4,0-0.71,0.3-0.71,0.8c0,0.47,0.31,0.77,0.71,0.77
		c0.41,0,0.71-0.31,0.71-0.77C239.68,92.49,239.38,92.19,238.97,92.19z M242.22,91.57h0.68l-3.84,6h-0.68L242.22,91.57z
		 M242.27,94.68c0.92,0,1.53,0.67,1.53,1.51c0,0.84-0.61,1.49-1.53,1.49c-0.92,0-1.52-0.65-1.52-1.49
		C240.75,95.35,241.35,94.68,242.27,94.68z M242.27,95.4c-0.41,0-0.71,0.31-0.71,0.8c0,0.49,0.3,0.78,0.71,0.78s0.72-0.3,0.72-0.78
		C242.99,95.7,242.69,95.4,242.27,95.4z"/>
	<path d="M247.51,95.4c0-1.23,0.86-2.28,2.3-2.28c1.44,0,2.3,1.04,2.3,2.28c0,1.24-0.86,2.29-2.3,2.29
		C248.37,97.68,247.51,96.64,247.51,95.4z M250.92,95.4c0-0.67-0.41-1.26-1.12-1.26c-0.71,0-1.11,0.59-1.11,1.26
		c0,0.68,0.4,1.27,1.11,1.27C250.51,96.67,250.92,96.08,250.92,95.4z"/>
	<path d="M253.66,94.23h-0.72v-1h0.72v-0.23c0-0.95,0.61-1.51,1.47-1.51c0.32,0,0.62,0.07,0.83,0.18l-0.23,0.81
		c-0.1-0.06-0.23-0.09-0.37-0.09c-0.32,0-0.54,0.22-0.54,0.63v0.22h0.88v1h-0.88v3.35h-1.15V94.23z"/>
	<path d="M262.44,94.61l-0.92,2.96h-1.22l-1.32-4.35h1.19l0.81,2.93l0.95-2.93h1.02l0.95,2.93l0.81-2.93h1.19l-1.32,4.35h-1.22
		L262.44,94.61z"/>
	<path d="M266.62,95.4c0-1.23,0.86-2.28,2.3-2.28c1.44,0,2.3,1.04,2.3,2.28c0,1.24-0.86,2.29-2.3,2.29
		C267.49,97.68,266.62,96.64,266.62,95.4z M270.04,95.4c0-0.67-0.41-1.26-1.12-1.26c-0.71,0-1.11,0.59-1.11,1.26
		c0,0.68,0.4,1.27,1.11,1.27C269.63,96.67,270.04,96.08,270.04,95.4z"/>
	<path d="M277.91,94.83c0-0.41-0.18-0.69-0.65-0.69c-0.41,0-0.74,0.27-0.9,0.5v2.93h-1.15v-2.75c0-0.41-0.18-0.69-0.65-0.69
		c-0.4,0-0.73,0.27-0.9,0.51v2.93h-1.14v-4.35h1.14v0.57c0.18-0.26,0.76-0.67,1.42-0.67c0.64,0,1.04,0.3,1.21,0.79
		c0.25-0.4,0.83-0.79,1.49-0.79c0.8,0,1.28,0.42,1.28,1.31v3.14h-1.15V94.83z"/>
	<path d="M282.61,93.12c1.3,0,2.18,0.97,2.18,2.39v0.25h-3.23c0.07,0.55,0.51,1.01,1.25,1.01c0.4,0,0.88-0.16,1.16-0.43l0.5,0.74
		c-0.44,0.41-1.12,0.6-1.79,0.6c-1.32,0-2.32-0.89-2.32-2.29C280.36,94.13,281.29,93.12,282.61,93.12z M281.54,94.99h2.14
		c-0.03-0.41-0.32-0.96-1.07-0.96C281.9,94.03,281.59,94.56,281.54,94.99z"/>
	<path d="M288.99,94.95c0-0.6-0.32-0.81-0.8-0.81c-0.45,0-0.8,0.25-0.99,0.51v2.93h-1.14v-4.35h1.14v0.57
		c0.28-0.33,0.81-0.67,1.52-0.67c0.96,0,1.41,0.54,1.41,1.39v3.07h-1.14V94.95z"/>
	<path d="M297.35,94.61l-0.92,2.96h-1.22l-1.32-4.35h1.19l0.81,2.93l0.95-2.93h1.02l0.95,2.93l0.81-2.93h1.19l-1.32,4.35h-1.22
		L297.35,94.61z"/>
	<path d="M301.53,95.4c0-1.23,0.86-2.28,2.3-2.28c1.44,0,2.3,1.04,2.3,2.28c0,1.24-0.86,2.29-2.3,2.29
		C302.4,97.68,301.53,96.64,301.53,95.4z M304.95,95.4c0-0.67-0.41-1.26-1.12-1.26s-1.11,0.59-1.11,1.26c0,0.68,0.4,1.27,1.11,1.27
		S304.95,96.08,304.95,95.4z"/>
	<path d="M307.43,93.23h1.14v0.59c0.31-0.39,0.85-0.69,1.39-0.69v1.12c-0.08-0.02-0.19-0.03-0.31-0.03c-0.38,0-0.88,0.21-1.07,0.49
		v2.87h-1.14V93.23z"/>
	<path d="M311.12,91.57h1.14v6h-1.14V91.57z"/>
	<path d="M316.83,97.03c-0.34,0.42-0.82,0.66-1.34,0.66c-1.1,0-1.93-0.83-1.93-2.28c0-1.42,0.82-2.29,1.93-2.29
		c0.51,0,1,0.22,1.34,0.67v-2.21h1.15v6h-1.15V97.03z M316.83,94.63c-0.2-0.29-0.6-0.5-0.99-0.5c-0.65,0-1.1,0.51-1.1,1.27
		c0,0.75,0.45,1.26,1.1,1.26c0.39,0,0.79-0.21,0.99-0.5V94.63z"/>
	<path d="M322.47,94.61l-0.92,2.96h-1.22L319,93.23h1.19l0.81,2.93l0.95-2.93h1.02l0.96,2.93l0.81-2.93h1.19l-1.32,4.35h-1.21
		L322.47,94.61z"/>
	<path d="M326.82,91.9c0-0.38,0.32-0.68,0.68-0.68c0.38,0,0.68,0.31,0.68,0.68s-0.31,0.68-0.68,0.68
		C327.13,92.59,326.82,92.28,326.82,91.9z M326.93,93.23h1.14v4.35h-1.14V93.23z"/>
	<path d="M332.65,97.03c-0.34,0.42-0.82,0.66-1.34,0.66c-1.1,0-1.93-0.83-1.93-2.28c0-1.42,0.82-2.29,1.93-2.29
		c0.51,0,1,0.22,1.34,0.67v-2.21h1.15v6h-1.15V97.03z M332.65,94.63c-0.2-0.29-0.6-0.5-0.99-0.5c-0.65,0-1.1,0.51-1.1,1.27
		c0,0.75,0.45,1.26,1.1,1.26c0.39,0,0.79-0.21,0.99-0.5V94.63z"/>
	<path d="M337.35,93.12c1.3,0,2.18,0.97,2.18,2.39v0.25h-3.23c0.07,0.55,0.51,1.01,1.25,1.01c0.4,0,0.88-0.16,1.16-0.43l0.5,0.74
		c-0.44,0.41-1.12,0.6-1.79,0.6c-1.32,0-2.32-0.89-2.32-2.29C335.1,94.13,336.03,93.12,337.35,93.12z M336.28,94.99h2.14
		c-0.03-0.41-0.32-0.96-1.07-0.96C336.64,94.03,336.34,94.56,336.28,94.99z"/>
</g>
<g>
	<path d="M346.71,97.57v-2.86c0-0.76-0.4-0.99-0.98-0.99c-0.52,0-1.03,0.32-1.29,0.68v3.18h-0.68v-6h0.68v2.29
		c0.31-0.36,0.9-0.74,1.56-0.74c0.91,0,1.39,0.44,1.39,1.39v3.07H346.71z"/>
	<path d="M351.9,97.57v-0.5c-0.36,0.4-0.85,0.6-1.44,0.6c-0.74,0-1.52-0.5-1.52-1.44c0-0.97,0.78-1.43,1.52-1.43
		c0.59,0,1.09,0.19,1.44,0.59v-0.78c0-0.58-0.47-0.92-1.1-0.92c-0.52,0-0.95,0.19-1.33,0.6l-0.31-0.47
		c0.47-0.49,1.03-0.72,1.74-0.72c0.92,0,1.68,0.41,1.68,1.47v2.99H351.9z M351.9,96.66v-0.82c-0.26-0.36-0.72-0.54-1.2-0.54
		c-0.63,0-1.07,0.4-1.07,0.95c0,0.55,0.44,0.95,1.07,0.95C351.18,97.2,351.64,97.02,351.9,96.66z"/>
	<path d="M355.53,97.57l-1.81-4.35h0.73l1.45,3.57l1.44-3.57h0.74l-1.81,4.35H355.53z"/>
	<path d="M358.97,95.4c0-1.26,0.9-2.28,2.14-2.28c1.31,0,2.09,1.03,2.09,2.33v0.17h-3.52c0.05,0.82,0.63,1.5,1.57,1.5
		c0.5,0,1-0.2,1.34-0.55l0.32,0.44c-0.43,0.43-1.02,0.67-1.73,0.67C359.9,97.68,358.97,96.76,358.97,95.4z M361.11,93.68
		c-0.93,0-1.39,0.78-1.42,1.45h2.85C362.53,94.48,362.1,93.68,361.11,93.68z"/>
</g>
<g>
	<path d="M181.67,110.4c0-1.26,0.9-2.28,2.14-2.28c1.31,0,2.09,1.03,2.09,2.33v0.17h-3.52c0.05,0.82,0.63,1.5,1.57,1.5
		c0.5,0,1-0.2,1.34-0.55l0.32,0.44c-0.43,0.43-1.02,0.67-1.73,0.67C182.6,112.69,181.67,111.76,181.67,110.4z M183.81,108.68
		c-0.93,0-1.39,0.78-1.42,1.45h2.85C185.23,109.48,184.8,108.68,183.81,108.68z"/>
	<path d="M190.26,112.58l-1.31-1.78l-1.31,1.78h-0.77l1.67-2.23l-1.58-2.12h0.78l1.21,1.66l1.21-1.66h0.78l-1.58,2.12l1.67,2.23
		H190.26z"/>
	<path d="M192.93,111.92v2.31h-0.68v-6h0.68v0.65c0.31-0.44,0.85-0.76,1.47-0.76c1.14,0,1.94,0.86,1.94,2.28
		c0,1.4-0.79,2.29-1.94,2.29C193.81,112.69,193.28,112.41,192.93,111.92z M195.62,110.4c0-0.96-0.52-1.67-1.4-1.67
		c-0.53,0-1.06,0.32-1.3,0.69v1.96c0.23,0.38,0.77,0.7,1.3,0.7C195.1,112.08,195.62,111.36,195.62,110.4z"/>
	<path d="M197.6,110.4c0-1.26,0.9-2.28,2.14-2.28c1.31,0,2.09,1.03,2.09,2.33v0.17h-3.52c0.05,0.82,0.63,1.5,1.57,1.5
		c0.5,0,1-0.2,1.34-0.55l0.32,0.44c-0.43,0.43-1.02,0.67-1.73,0.67C198.53,112.69,197.6,111.76,197.6,110.4z M199.74,108.68
		c-0.93,0-1.39,0.78-1.42,1.45h2.85C201.16,109.48,200.73,108.68,199.74,108.68z"/>
	<path d="M203.37,112.58v-4.35h0.68v0.7c0.35-0.46,0.85-0.79,1.45-0.79v0.69c-0.08-0.02-0.16-0.03-0.27-0.03
		c-0.41,0-0.98,0.34-1.18,0.69v3.08H203.37z"/>
	<path d="M206.68,107.16c0-0.25,0.21-0.46,0.45-0.46c0.25,0,0.46,0.21,0.46,0.46s-0.21,0.45-0.46,0.45
		C206.88,107.61,206.68,107.41,206.68,107.16z M206.79,112.58v-4.35h0.68v4.35H206.79z"/>
	<path d="M209.02,110.4c0-1.26,0.9-2.28,2.14-2.28c1.31,0,2.09,1.03,2.09,2.33v0.17h-3.52c0.05,0.82,0.63,1.5,1.57,1.5
		c0.5,0,1-0.2,1.34-0.55l0.32,0.44c-0.43,0.43-1.02,0.67-1.73,0.67C209.94,112.69,209.02,111.76,209.02,110.4z M211.15,108.68
		c-0.93,0-1.39,0.78-1.42,1.45h2.85C212.57,109.48,212.14,108.68,211.15,108.68z"/>
	<path d="M217.72,112.58v-2.84c0-0.77-0.39-1.01-0.97-1.01c-0.53,0-1.04,0.32-1.29,0.68v3.18h-0.68v-4.35h0.68v0.63
		c0.31-0.36,0.9-0.74,1.55-0.74c0.91,0,1.39,0.46,1.39,1.4v3.05H217.72z"/>
	<path d="M219.94,110.4c0-1.29,0.87-2.28,2.17-2.28c0.79,0,1.26,0.32,1.59,0.76l-0.45,0.41c-0.29-0.4-0.66-0.57-1.11-0.57
		c-0.93,0-1.5,0.71-1.5,1.67s0.58,1.68,1.5,1.68c0.45,0,0.82-0.18,1.11-0.57l0.45,0.41c-0.33,0.43-0.8,0.76-1.59,0.76
		C220.81,112.69,219.94,111.7,219.94,110.4z"/>
	<path d="M224.84,110.4c0-1.26,0.9-2.28,2.14-2.28c1.31,0,2.09,1.03,2.09,2.33v0.17h-3.52c0.05,0.82,0.63,1.5,1.57,1.5
		c0.5,0,1-0.2,1.34-0.55l0.32,0.44c-0.43,0.43-1.02,0.67-1.73,0.67C225.76,112.69,224.84,111.76,224.84,110.4z M226.97,108.68
		c-0.93,0-1.39,0.78-1.42,1.45h2.85C228.39,109.48,227.96,108.68,226.97,108.68z"/>
	<path d="M233.76,112.58v-0.65c-0.32,0.44-0.86,0.76-1.47,0.76c-1.13,0-1.94-0.86-1.94-2.28c0-1.39,0.79-2.29,1.94-2.29
		c0.58,0,1.12,0.29,1.47,0.76v-2.31h0.68v6H233.76z M233.76,111.4v-1.97c-0.24-0.38-0.77-0.7-1.31-0.7c-0.87,0-1.4,0.72-1.4,1.68
		c0,0.96,0.52,1.67,1.4,1.67C232.99,112.08,233.51,111.78,233.76,111.4z"/>
	<path d="M238.74,110.4c0-1.26,0.9-2.28,2.14-2.28c1.31,0,2.09,1.03,2.09,2.33v0.17h-3.52c0.05,0.82,0.63,1.5,1.57,1.5
		c0.5,0,1-0.2,1.34-0.55l0.32,0.44c-0.43,0.43-1.02,0.67-1.73,0.67C239.67,112.69,238.74,111.76,238.74,110.4z M240.88,108.68
		c-0.93,0-1.39,0.78-1.42,1.45h2.85C242.3,109.48,241.87,108.68,240.88,108.68z"/>
	<path d="M244.39,107.16c0-0.25,0.21-0.46,0.45-0.46c0.25,0,0.46,0.21,0.46,0.46s-0.21,0.45-0.46,0.45
		C244.6,107.61,244.39,107.41,244.39,107.16z M244.51,112.58v-4.35h0.68v4.35H244.51z"/>
	<path d="M247.12,111.67v-2.84h-0.72v-0.59h0.72v-1.19h0.68v1.19h0.88v0.59h-0.88v2.7c0,0.32,0.14,0.56,0.44,0.56
		c0.19,0,0.37-0.08,0.46-0.18l0.2,0.5c-0.17,0.16-0.41,0.28-0.81,0.28C247.44,112.69,247.12,112.32,247.12,111.67z"/>
	<path d="M253.03,112.58v-2.86c0-0.76-0.4-0.99-0.98-0.99c-0.52,0-1.03,0.32-1.29,0.68v3.18h-0.68v-6h0.68v2.29
		c0.31-0.36,0.9-0.74,1.56-0.74c0.91,0,1.39,0.44,1.39,1.39v3.07H253.03z"/>
	<path d="M255.25,110.4c0-1.26,0.9-2.28,2.14-2.28c1.31,0,2.09,1.03,2.09,2.33v0.17h-3.52c0.05,0.82,0.63,1.5,1.57,1.5
		c0.5,0,1-0.2,1.34-0.55l0.32,0.44c-0.43,0.43-1.02,0.67-1.73,0.67C256.17,112.69,255.25,111.76,255.25,110.4z M257.38,108.68
		c-0.93,0-1.39,0.78-1.42,1.45h2.85C258.8,109.48,258.37,108.68,257.38,108.68z"/>
	<path d="M261.02,112.58v-4.35h0.68v0.7c0.35-0.46,0.85-0.79,1.45-0.79v0.69c-0.08-0.02-0.16-0.03-0.27-0.03
		c-0.41,0-0.98,0.34-1.18,0.69v3.08H261.02z"/>
	<path d="M267.88,111.92v2.31h-0.68v-6h0.68v0.65c0.31-0.44,0.85-0.76,1.47-0.76c1.14,0,1.94,0.86,1.94,2.28
		c0,1.4-0.79,2.29-1.94,2.29C268.76,112.69,268.23,112.41,267.88,111.92z M270.57,110.4c0-0.96-0.52-1.67-1.4-1.67
		c-0.53,0-1.06,0.32-1.3,0.69v1.96c0.23,0.38,0.77,0.7,1.3,0.7C270.05,112.08,270.57,111.36,270.57,110.4z"/>
	<path d="M275.75,112.58v-2.86c0-0.76-0.4-0.99-0.98-0.99c-0.52,0-1.03,0.32-1.29,0.68v3.18h-0.67v-6h0.67v2.29
		c0.31-0.36,0.9-0.74,1.56-0.74c0.91,0,1.39,0.44,1.39,1.39v3.07H275.75z"/>
	<path d="M278.09,113.67c0.1,0.05,0.26,0.07,0.37,0.07c0.3,0,0.5-0.1,0.65-0.46l0.29-0.66l-1.82-4.39h0.73l1.45,3.57l1.44-3.57h0.74
		l-2.18,5.23c-0.26,0.63-0.7,0.87-1.28,0.88c-0.14,0-0.37-0.03-0.5-0.06L278.09,113.67z"/>
	<path d="M282.71,112l0.35-0.49c0.29,0.33,0.84,0.62,1.43,0.62c0.67,0,1.03-0.31,1.03-0.75c0-1.05-2.69-0.41-2.69-2.02
		c0-0.67,0.59-1.25,1.62-1.25c0.74,0,1.26,0.28,1.61,0.63l-0.31,0.47c-0.26-0.31-0.74-0.55-1.3-0.55c-0.59,0-0.96,0.3-0.96,0.68
		c0,0.95,2.69,0.32,2.69,2.02c0,0.73-0.59,1.31-1.71,1.31C283.75,112.69,283.15,112.47,282.71,112z"/>
	<path d="M287.6,107.16c0-0.25,0.21-0.46,0.45-0.46c0.25,0,0.46,0.21,0.46,0.46s-0.21,0.45-0.46,0.45
		C287.81,107.61,287.6,107.41,287.6,107.16z M287.72,112.58v-4.35h0.68v4.35H287.72z"/>
	<path d="M289.94,110.4c0-1.29,0.87-2.28,2.17-2.28c0.79,0,1.26,0.32,1.59,0.76l-0.45,0.41c-0.29-0.4-0.66-0.57-1.11-0.57
		c-0.93,0-1.5,0.71-1.5,1.67s0.58,1.68,1.5,1.68c0.45,0,0.82-0.18,1.11-0.57l0.45,0.41c-0.33,0.43-0.8,0.76-1.59,0.76
		C290.81,112.69,289.94,111.7,289.94,110.4z"/>
	<path d="M297.82,112.58v-0.5c-0.36,0.4-0.86,0.6-1.44,0.6c-0.74,0-1.52-0.5-1.52-1.44c0-0.97,0.78-1.43,1.52-1.43
		c0.59,0,1.09,0.19,1.44,0.59v-0.78c0-0.58-0.47-0.92-1.1-0.92c-0.52,0-0.95,0.19-1.33,0.6l-0.32-0.47
		c0.47-0.49,1.03-0.72,1.74-0.72c0.92,0,1.68,0.41,1.68,1.47v2.99H297.82z M297.82,111.66v-0.82c-0.26-0.36-0.72-0.54-1.2-0.54
		c-0.63,0-1.07,0.4-1.07,0.95c0,0.55,0.44,0.95,1.07,0.95C297.1,112.2,297.56,112.02,297.82,111.66z"/>
	<path d="M300.28,112.58v-6h0.67v6H300.28z"/>
</g>
<g>
	<path d="M308.29,112.58v-0.5c-0.36,0.4-0.85,0.6-1.44,0.6c-0.74,0-1.52-0.5-1.52-1.44c0-0.97,0.78-1.43,1.52-1.43
		c0.59,0,1.09,0.19,1.44,0.59v-0.78c0-0.58-0.47-0.92-1.1-0.92c-0.52,0-0.95,0.19-1.33,0.6l-0.31-0.47
		c0.47-0.49,1.03-0.72,1.74-0.72c0.92,0,1.68,0.41,1.68,1.47v2.99H308.29z M308.29,111.66v-0.82c-0.26-0.36-0.72-0.54-1.2-0.54
		c-0.63,0-1.07,0.4-1.07,0.95c0,0.55,0.44,0.95,1.07,0.95C307.57,112.2,308.03,112.02,308.29,111.66z"/>
	<path d="M313.69,112.58v-2.84c0-0.77-0.39-1.01-0.97-1.01c-0.53,0-1.04,0.32-1.29,0.68v3.18h-0.68v-4.35h0.68v0.63
		c0.31-0.36,0.9-0.74,1.55-0.74c0.91,0,1.39,0.46,1.39,1.4v3.05H313.69z"/>
	<path d="M319.31,112.58v-0.65c-0.32,0.44-0.86,0.76-1.47,0.76c-1.13,0-1.94-0.86-1.94-2.28c0-1.39,0.79-2.29,1.94-2.29
		c0.59,0,1.12,0.29,1.47,0.76v-2.31h0.67v6H319.31z M319.31,111.4v-1.97c-0.24-0.38-0.77-0.7-1.31-0.7c-0.87,0-1.4,0.72-1.4,1.68
		c0,0.96,0.52,1.67,1.4,1.67C318.55,112.08,319.07,111.78,319.31,111.4z"/>
	<path d="M321.1,112.76l2.13-6.36h0.53l-2.13,6.36H321.1z"/>
	<path d="M324.64,110.4c0-1.26,0.83-2.28,2.15-2.28c1.32,0,2.15,1.02,2.15,2.28s-0.83,2.29-2.15,2.29
		C325.47,112.69,324.64,111.66,324.64,110.4z M328.23,110.4c0-0.88-0.51-1.67-1.44-1.67c-0.93,0-1.45,0.79-1.45,1.67
		c0,0.89,0.52,1.68,1.45,1.68C327.72,112.08,328.23,111.29,328.23,110.4z"/>
	<path d="M330.49,112.58v-4.35h0.68v0.7c0.35-0.46,0.86-0.79,1.45-0.79v0.69c-0.08-0.02-0.16-0.03-0.27-0.03
		c-0.41,0-0.98,0.34-1.18,0.69v3.08H330.49z"/>
	<path d="M336.3,112l0.35-0.49c0.29,0.33,0.84,0.62,1.43,0.62c0.67,0,1.03-0.31,1.03-0.75c0-1.05-2.69-0.41-2.69-2.02
		c0-0.67,0.58-1.25,1.62-1.25c0.74,0,1.26,0.28,1.61,0.63l-0.32,0.47c-0.26-0.31-0.74-0.55-1.3-0.55c-0.59,0-0.96,0.3-0.96,0.68
		c0,0.95,2.69,0.32,2.69,2.02c0,0.73-0.58,1.31-1.71,1.31C337.35,112.69,336.74,112.47,336.3,112z"/>
	<path d="M341.05,110.4c0-1.26,0.9-2.28,2.14-2.28c1.31,0,2.09,1.03,2.09,2.33v0.17h-3.52c0.05,0.82,0.63,1.5,1.57,1.5
		c0.5,0,1-0.2,1.34-0.55l0.32,0.44c-0.43,0.43-1.02,0.67-1.73,0.67C341.98,112.69,341.05,111.76,341.05,110.4z M343.19,108.68
		c-0.93,0-1.39,0.78-1.42,1.45h2.85C344.61,109.48,344.18,108.68,343.19,108.68z"/>
	<path d="M349.64,112.58l-1.31-1.78l-1.31,1.78h-0.77l1.67-2.23l-1.58-2.12h0.78l1.21,1.66l1.21-1.66h0.78l-1.58,2.12l1.67,2.23
		H349.64z"/>
	<path d="M354.58,112.58v-0.61c-0.33,0.38-0.9,0.72-1.55,0.72c-0.91,0-1.39-0.44-1.39-1.39v-3.07h0.68v2.86
		c0,0.77,0.39,0.99,0.97,0.99c0.53,0,1.04-0.31,1.29-0.66v-3.2h0.67v4.35H354.58z"/>
	<path d="M359.77,112.58v-0.5c-0.36,0.4-0.85,0.6-1.44,0.6c-0.74,0-1.52-0.5-1.52-1.44c0-0.97,0.78-1.43,1.52-1.43
		c0.59,0,1.09,0.19,1.44,0.59v-0.78c0-0.58-0.47-0.92-1.1-0.92c-0.52,0-0.95,0.19-1.33,0.6l-0.31-0.47
		c0.47-0.49,1.03-0.72,1.74-0.72c0.92,0,1.68,0.41,1.68,1.47v2.99H359.77z M359.77,111.66v-0.82c-0.26-0.36-0.72-0.54-1.2-0.54
		c-0.63,0-1.07,0.4-1.07,0.95c0,0.55,0.44,0.95,1.07,0.95C359.05,112.2,359.51,112.02,359.77,111.66z"/>
	<path d="M362.24,112.58v-6h0.68v6H362.24z"/>
</g>
<g>
	<path d="M215.81,127.58l-1.81-4.35h0.73l1.45,3.57l1.44-3.57h0.74l-1.81,4.35H215.81z"/>
	<path d="M219.39,122.16c0-0.25,0.21-0.46,0.45-0.46c0.25,0,0.46,0.21,0.46,0.46s-0.21,0.45-0.46,0.45
		C219.6,122.61,219.39,122.41,219.39,122.16z M219.51,127.58v-4.35h0.68v4.35H219.51z"/>
	<path d="M221.73,125.4c0-1.26,0.83-2.28,2.15-2.28s2.15,1.02,2.15,2.28s-0.83,2.29-2.15,2.29S221.73,126.66,221.73,125.4z
		 M225.32,125.4c0-0.88-0.51-1.67-1.44-1.67s-1.45,0.79-1.45,1.67c0,0.89,0.52,1.68,1.45,1.68S225.32,126.29,225.32,125.4z"/>
	<path d="M227.58,127.58v-6h0.68v6H227.58z"/>
	<path d="M229.81,125.4c0-1.26,0.9-2.28,2.14-2.28c1.31,0,2.09,1.03,2.09,2.33v0.17h-3.52c0.05,0.82,0.63,1.5,1.57,1.5
		c0.5,0,1-0.2,1.34-0.55l0.32,0.44c-0.43,0.43-1.02,0.67-1.73,0.67C230.73,127.69,229.81,126.76,229.81,125.4z M231.94,123.68
		c-0.93,0-1.39,0.78-1.42,1.45h2.85C233.36,124.48,232.93,123.68,231.94,123.68z"/>
	<path d="M238.51,127.58v-2.84c0-0.77-0.39-1.01-0.97-1.01c-0.53,0-1.04,0.32-1.29,0.68v3.18h-0.68v-4.35h0.68v0.63
		c0.31-0.36,0.9-0.74,1.55-0.74c0.91,0,1.39,0.46,1.39,1.4v3.05H238.51z"/>
	<path d="M240.72,125.4c0-1.29,0.87-2.28,2.17-2.28c0.79,0,1.26,0.32,1.59,0.76l-0.45,0.41c-0.29-0.4-0.66-0.57-1.11-0.57
		c-0.93,0-1.5,0.71-1.5,1.67s0.58,1.68,1.5,1.68c0.45,0,0.82-0.18,1.11-0.57l0.45,0.41c-0.33,0.43-0.8,0.76-1.59,0.76
		C241.6,127.69,240.72,126.7,240.72,125.4z"/>
	<path d="M245.62,125.4c0-1.26,0.9-2.28,2.14-2.28c1.31,0,2.09,1.03,2.09,2.33v0.17h-3.52c0.05,0.82,0.63,1.5,1.57,1.5
		c0.5,0,1-0.2,1.34-0.55l0.32,0.44c-0.43,0.43-1.02,0.67-1.73,0.67C246.55,127.69,245.62,126.76,245.62,125.4z M247.75,123.68
		c-0.93,0-1.39,0.78-1.42,1.45h2.85C249.17,124.48,248.74,123.68,247.75,123.68z"/>
	<path d="M254.34,127.58v-3.75h-0.72v-0.59h0.72v-0.33c0-0.89,0.49-1.41,1.26-1.41c0.34,0,0.65,0.08,0.92,0.33l-0.28,0.44
		c-0.14-0.13-0.31-0.22-0.54-0.22c-0.44,0-0.68,0.31-0.68,0.86v0.33h0.88v0.59h-0.88v3.75H254.34z"/>
	<path d="M257.15,127.58v-4.35h0.68v0.7c0.35-0.46,0.85-0.79,1.45-0.79v0.69c-0.08-0.02-0.16-0.03-0.27-0.03
		c-0.41,0-0.98,0.34-1.18,0.69v3.08H257.15z"/>
	<path d="M260.31,125.4c0-1.26,0.83-2.28,2.15-2.28s2.15,1.02,2.15,2.28s-0.83,2.29-2.15,2.29S260.31,126.66,260.31,125.4z
		 M263.91,125.4c0-0.88-0.51-1.67-1.44-1.67s-1.45,0.79-1.45,1.67c0,0.89,0.52,1.68,1.45,1.68S263.91,126.29,263.91,125.4z"/>
	<path d="M271.41,127.58v-2.95c0-0.55-0.24-0.9-0.8-0.9c-0.45,0-0.93,0.32-1.15,0.67v3.19h-0.68v-2.95c0-0.55-0.23-0.9-0.8-0.9
		c-0.44,0-0.91,0.32-1.14,0.68v3.18h-0.68v-4.35h0.68v0.63c0.18-0.28,0.77-0.74,1.4-0.74c0.67,0,1.04,0.36,1.17,0.81
		c0.24-0.4,0.83-0.81,1.46-0.81c0.79,0,1.22,0.44,1.22,1.31v3.14H271.41z"/>
	<path d="M279.37,127.58v-0.5c-0.36,0.4-0.86,0.6-1.44,0.6c-0.74,0-1.52-0.5-1.52-1.44c0-0.97,0.78-1.43,1.52-1.43
		c0.59,0,1.09,0.19,1.44,0.59v-0.78c0-0.58-0.47-0.92-1.1-0.92c-0.52,0-0.95,0.19-1.33,0.6l-0.32-0.47
		c0.47-0.49,1.03-0.72,1.74-0.72c0.92,0,1.68,0.41,1.68,1.47v2.99H279.37z M279.37,126.66v-0.82c-0.26-0.36-0.72-0.54-1.2-0.54
		c-0.63,0-1.07,0.4-1.07,0.95c0,0.55,0.44,0.95,1.07,0.95C278.65,127.2,279.11,127.02,279.37,126.66z"/>
	<path d="M284.77,127.58v-2.84c0-0.77-0.39-1.01-0.97-1.01c-0.53,0-1.04,0.32-1.29,0.68v3.18h-0.67v-4.35h0.67v0.63
		c0.31-0.36,0.9-0.74,1.55-0.74c0.91,0,1.39,0.46,1.39,1.4v3.05H284.77z"/>
	<path d="M289.89,122.16c0-0.25,0.21-0.46,0.45-0.46c0.25,0,0.46,0.21,0.46,0.46s-0.21,0.45-0.46,0.45
		C290.1,122.61,289.89,122.41,289.89,122.16z M290.01,127.58v-4.35h0.67v4.35H290.01z"/>
	<path d="M295.41,127.58v-2.84c0-0.77-0.39-1.01-0.97-1.01c-0.53,0-1.04,0.32-1.29,0.68v3.18h-0.67v-4.35h0.67v0.63
		c0.31-0.36,0.9-0.74,1.55-0.74c0.91,0,1.39,0.46,1.39,1.4v3.05H295.41z"/>
	<path d="M298.02,126.67v-2.84h-0.72v-0.59h0.72v-1.19h0.68v1.19h0.88v0.59h-0.88v2.7c0,0.32,0.14,0.56,0.44,0.56
		c0.19,0,0.37-0.08,0.46-0.18l0.2,0.5c-0.17,0.16-0.42,0.28-0.81,0.28C298.35,127.69,298.02,127.32,298.02,126.67z"/>
	<path d="M300.87,122.16c0-0.25,0.21-0.46,0.45-0.46c0.25,0,0.46,0.21,0.46,0.46s-0.21,0.45-0.46,0.45
		C301.07,122.61,300.87,122.41,300.87,122.16z M300.98,127.58v-4.35h0.68v4.35H300.98z"/>
	<path d="M308.71,127.58v-2.95c0-0.55-0.24-0.9-0.8-0.9c-0.45,0-0.93,0.32-1.15,0.67v3.19h-0.67v-2.95c0-0.55-0.23-0.9-0.8-0.9
		c-0.44,0-0.91,0.32-1.14,0.68v3.18h-0.67v-4.35h0.67v0.63c0.18-0.28,0.77-0.74,1.4-0.74c0.67,0,1.04,0.36,1.17,0.81
		c0.24-0.4,0.83-0.81,1.46-0.81c0.79,0,1.22,0.44,1.22,1.31v3.14H308.71z"/>
	<path d="M313.89,127.58v-0.5c-0.36,0.4-0.85,0.6-1.44,0.6c-0.74,0-1.52-0.5-1.52-1.44c0-0.97,0.78-1.43,1.52-1.43
		c0.59,0,1.09,0.19,1.44,0.59v-0.78c0-0.58-0.47-0.92-1.1-0.92c-0.52,0-0.95,0.19-1.33,0.6l-0.31-0.47
		c0.47-0.49,1.03-0.72,1.74-0.72c0.92,0,1.68,0.41,1.68,1.47v2.99H313.89z M313.89,126.66v-0.82c-0.26-0.36-0.72-0.54-1.2-0.54
		c-0.63,0-1.07,0.4-1.07,0.95c0,0.55,0.44,0.95,1.07,0.95C313.17,127.2,313.63,127.02,313.89,126.66z"/>
	<path d="M316.49,126.67v-2.84h-0.72v-0.59h0.72v-1.19h0.67v1.19h0.88v0.59h-0.88v2.7c0,0.32,0.14,0.56,0.44,0.56
		c0.19,0,0.37-0.08,0.46-0.18l0.2,0.5c-0.17,0.16-0.41,0.28-0.81,0.28C316.82,127.69,316.49,127.32,316.49,126.67z"/>
	<path d="M319.2,125.4c0-1.26,0.9-2.28,2.14-2.28c1.31,0,2.09,1.03,2.09,2.33v0.17h-3.52c0.05,0.82,0.63,1.5,1.57,1.5
		c0.5,0,1-0.2,1.34-0.55l0.32,0.44c-0.43,0.43-1.02,0.67-1.73,0.67C320.13,127.69,319.2,126.76,319.2,125.4z M321.33,123.68
		c-0.93,0-1.39,0.78-1.42,1.45h2.85C322.76,124.48,322.32,123.68,321.33,123.68z"/>
	<path d="M328.42,126.92v2.31h-0.68v-6h0.68v0.65c0.31-0.44,0.86-0.76,1.47-0.76c1.14,0,1.94,0.86,1.94,2.28
		c0,1.4-0.79,2.29-1.94,2.29C329.29,127.69,328.77,127.41,328.42,126.92z M331.11,125.4c0-0.96-0.52-1.67-1.4-1.67
		c-0.53,0-1.06,0.32-1.3,0.69v1.96c0.23,0.38,0.76,0.7,1.3,0.7C330.59,127.09,331.11,126.36,331.11,125.4z"/>
	<path d="M336.06,127.58v-0.5c-0.36,0.4-0.85,0.6-1.44,0.6c-0.74,0-1.52-0.5-1.52-1.44c0-0.97,0.78-1.43,1.52-1.43
		c0.59,0,1.09,0.19,1.44,0.59v-0.78c0-0.58-0.47-0.92-1.1-0.92c-0.52,0-0.95,0.19-1.33,0.6l-0.31-0.47
		c0.47-0.49,1.03-0.72,1.74-0.72c0.92,0,1.68,0.41,1.68,1.47v2.99H336.06z M336.06,126.66v-0.82c-0.26-0.36-0.72-0.54-1.2-0.54
		c-0.63,0-1.07,0.4-1.07,0.95c0,0.55,0.44,0.95,1.07,0.95C335.34,127.2,335.8,127.02,336.06,126.66z"/>
	<path d="M338.52,127.58v-4.35h0.68v0.7c0.35-0.46,0.86-0.79,1.45-0.79v0.69c-0.08-0.02-0.16-0.03-0.27-0.03
		c-0.41,0-0.98,0.34-1.18,0.69v3.08H338.52z"/>
	<path d="M342.08,126.67v-2.84h-0.72v-0.59h0.72v-1.19h0.67v1.19h0.88v0.59h-0.88v2.7c0,0.32,0.14,0.56,0.44,0.56
		c0.19,0,0.37-0.08,0.46-0.18l0.2,0.5c-0.17,0.16-0.41,0.28-0.81,0.28C342.4,127.69,342.08,127.32,342.08,126.67z"/>
	<path d="M347.97,127.58v-2.84c0-0.77-0.39-1.01-0.97-1.01c-0.53,0-1.04,0.32-1.29,0.68v3.18h-0.68v-4.35h0.68v0.63
		c0.31-0.36,0.9-0.74,1.55-0.74c0.91,0,1.39,0.46,1.39,1.4v3.05H347.97z"/>
	<path d="M350.19,125.4c0-1.26,0.9-2.28,2.14-2.28c1.31,0,2.09,1.03,2.09,2.33v0.17h-3.52c0.05,0.82,0.63,1.5,1.57,1.5
		c0.5,0,1-0.2,1.34-0.55l0.32,0.44c-0.43,0.43-1.02,0.67-1.73,0.67C351.11,127.69,350.19,126.76,350.19,125.4z M352.32,123.68
		c-0.93,0-1.39,0.78-1.42,1.45h2.85C353.74,124.48,353.31,123.68,352.32,123.68z"/>
	<path d="M355.96,127.58v-4.35h0.68v0.7c0.35-0.46,0.86-0.79,1.45-0.79v0.69c-0.08-0.02-0.16-0.03-0.27-0.03
		c-0.41,0-0.98,0.34-1.18,0.69v3.08H355.96z"/>
	<path d="M358.49,127.17c0-0.27,0.23-0.5,0.5-0.5c0.27,0,0.5,0.23,0.5,0.5c0,0.27-0.22,0.5-0.5,0.5
		C358.72,127.67,358.49,127.45,358.49,127.17z"/>
	<path d="M361.79,124.08l0.04-1.04l-0.86,0.57l-0.2-0.36l0.92-0.47l-0.92-0.47l0.2-0.35l0.86,0.56l-0.04-1.04h0.41l-0.05,1.04
		l0.86-0.56l0.21,0.35l-0.92,0.47l0.92,0.47l-0.21,0.36l-0.86-0.57l0.05,1.04H361.79z"/>
</g>
<g>
	<path class="st4" d="M78.65,32.1c-26.54,0-48.13,21.59-48.13,48.13s21.59,48.13,48.13,48.13s48.13-21.59,48.13-48.13
		S105.18,32.1,78.65,32.1"/>
	<path class="st5" d="M78.65,32.1c-26.54,0-48.13,21.59-48.13,48.13s21.59,48.13,48.13,48.13s48.13-21.59,48.13-48.13
		S105.18,32.1,78.65,32.1"/>
	<path d="M125.13,80.23c0-25.33-20.37-45.99-45.58-46.47v92.94C104.76,126.22,125.13,105.56,125.13,80.23"/>
	<path class="st5" d="M125.13,80.23c0-25.33-20.37-45.99-45.58-46.47v92.94C104.76,126.22,125.13,105.56,125.13,80.23z"/>
	<path class="st4" d="M435.6,128.36c26.54,0,48.13-21.59,48.13-48.13c0-26.54-21.59-48.13-48.13-48.13
		c-26.54,0-48.13,21.59-48.13,48.13C387.48,106.77,409.07,128.36,435.6,128.36"/>
	<path class="st5" d="M435.6,128.36c26.54,0,48.13-21.59,48.13-48.13c0-26.54-21.59-48.13-48.13-48.13
		c-26.54,0-48.13,21.59-48.13,48.13C387.48,106.77,409.07,128.36,435.6,128.36"/>
	<path d="M394.52,58.49c-3.54,6.67-5.4,14.17-5.4,21.75c0,25.33,20.37,45.99,45.58,46.47V80.76
		C421.31,73.33,407.92,65.91,394.52,58.49"/>
	<path class="st5" d="M394.52,58.49c-3.54,6.67-5.4,14.17-5.4,21.75c0,25.33,20.37,45.99,45.58,46.47V80.76
		C421.31,73.33,407.92,65.91,394.52,58.49z"/>
</g>
<polyline class="st6" points="102.34,59.8 121.49,34.7 140.63,34.7 "/>
<line class="st6" x1="368.54" y1="95.42" x2="404.45" y2="95.42"/>
</svg>
