<?xml version="1.0" encoding="utf-8"?>
<!-- Generator: Adobe Illustrator 20.1.0, SVG Export Plug-In . SVG Version: 6.00 Build 0)  -->
<svg version="1.1" id="Layer_1" xmlns="http://www.w3.org/2000/svg" xmlns:xlink="http://www.w3.org/1999/xlink" x="0px" y="0px"
	 viewBox="0 0 588 187" style="enable-background:new 0 0 588 187;" xml:space="preserve">
<style type="text/css">
	.st0{font-family:'ProximaNova-Regular';}
	.st1{font-size:15.5619px;}
	.st2{font-family:'ProximaNova-Bold';}
	.st3{clip-path:url(#SVGID_4_);}
	.st4{clip-path:url(#SVGID_4_);fill:#F7CA58;}
	.st5{clip-path:url(#SVGID_4_);fill:none;stroke:#000000;stroke-width:1.791;}
	.st6{fill:none;stroke:#F7CA58;stroke-width:1.926;}
</style>
<g>
	<g>
		<defs>
			<rect id="SVGID_1_" x="-207.6" y="7.2" width="786.7" height="170.8"/>
		</defs>
		<clipPath id="SVGID_2_">
			<use xlink:href="#SVGID_1_"  style="overflow:visible;"/>
		</clipPath>
	</g>
	<text transform="matrix(1 0 0 1 61.4658 123.2191)"><tspan x="0" y="0" class="st0 st1">G</tspan><tspan x="11.9" y="0" class="st0 st1">lo</tspan><tspan x="25.8" y="0" class="st0 st1">ba</tspan><tspan x="44.5" y="0" class="st0 st1">ll</tspan><tspan x="53" y="0" class="st0 st1">y</tspan><tspan x="60.6" y="0" class="st0 st1">,</tspan><tspan x="64.9" y="0" class="st0 st1"> </tspan></text>
	<text transform="matrix(1 0 0 1 131.2305 123.2191)"><tspan x="0" y="0" class="st2 st1">35%</tspan><tspan x="32.7" y="0" class="st2 st1"> </tspan><tspan x="37.5" y="0" class="st2 st1">o</tspan><tspan x="47.2" y="0" class="st2 st1">f </tspan><tspan x="57.8" y="0" class="st2 st1">wom</tspan><tspan x="94.3" y="0" class="st2 st1">en w</tspan><tspan x="130.9" y="0" class="st2 st1">orl</tspan><tspan x="151.7" y="0" class="st2 st1">d</tspan><tspan x="161.6" y="0" class="st2 st1">wi</tspan><tspan x="179" y="0" class="st2 st1">d</tspan><tspan x="188.9" y="0" class="st2 st1">e</tspan></text>
	<text transform="matrix(1 0 0 1 329.6582 123.2191)"><tspan x="0" y="0" class="st0 st1"> h</tspan><tspan x="14.2" y="0" class="st0 st1">a</tspan><tspan x="23.1" y="0" class="st0 st1">v</tspan><tspan x="31.5" y="0" class="st0 st1">e </tspan></text>
	<text transform="matrix(1 0 0 1 55.5518 149.1605)"><tspan x="0" y="0" class="st0 st1">e</tspan><tspan x="9" y="0" class="st0 st1">x</tspan><tspan x="17.4" y="0" class="st0 st1">perie</tspan><tspan x="56.3" y="0" class="st0 st1">n</tspan><tspan x="65.7" y="0" class="st0 st1">ce</tspan><tspan x="83.7" y="0" class="st0 st1">d</tspan><tspan x="93.4" y="0" class="st0 st1"> either physic</tspan><tspan x="195.3" y="0" class="st0 st1">a</tspan><tspan x="204.2" y="0" class="st0 st1">l</tspan><tspan x="208.5" y="0" class="st0 st1"> </tspan></text>
	<text transform="matrix(1 0 0 1 268.9062 149.1605)"><tspan x="0" y="0" class="st0 st1">a</tspan><tspan x="9" y="0" class="st0 st1">n</tspan><tspan x="18.3" y="0" class="st0 st1">d</tspan><tspan x="28" y="0" class="st0 st1">/or </tspan><tspan x="53.8" y="0" class="st0 st1">s</tspan><tspan x="61.8" y="0" class="st0 st1">e</tspan><tspan x="70.8" y="0" class="st0 st1">xu</tspan><tspan x="88.5" y="0" class="st0 st1">a</tspan><tspan x="97.5" y="0" class="st0 st1">l </tspan></text>
	<g>
		<defs>
			<rect id="SVGID_3_" x="-207.6" y="7.2" width="786.7" height="170.8"/>
		</defs>
		<clipPath id="SVGID_4_">
			<use xlink:href="#SVGID_3_"  style="overflow:visible;"/>
		</clipPath>
		<g class="st3">
			<text transform="matrix(1 0 0 1 111.1738 175.0931)"><tspan x="0" y="0" class="st0 st1">viole</tspan><tspan x="36.2" y="0" class="st0 st1">nc</tspan><tspan x="54" y="0" class="st0 st1">e</tspan><tspan x="63.5" y="0" class="st0 st1"> </tspan><tspan x="68.3" y="0" class="st0 st1">fro</tspan><tspan x="89.1" y="0" class="st0 st1">m</tspan><tspan x="102.4" y="0" class="st0 st1"> </tspan><tspan x="107.2" y="0" class="st0 st1">an</tspan><tspan x="125.5" y="0" class="st0 st1"> inti</tspan><tspan x="153.6" y="0" class="st0 st1">ma</tspan><tspan x="175.9" y="0" class="st0 st1">te p</tspan><tspan x="205.3" y="0" class="st0 st1">a</tspan><tspan x="214.2" y="0" class="st0 st1">rtne</tspan><tspan x="244.4" y="0" class="st0 st1">r</tspan><tspan x="249" y="0" class="st0 st1">.</tspan><tspan x="253.4" y="0" class="st0 st1">*</tspan></text>
		</g>
		<path class="st4" d="M494.4,176.5c45.9,0,83.2-37.3,83.2-83.2c0-45.9-37.3-83.2-83.2-83.2c-45.9,0-83.2,37.3-83.2,83.2
			C411.2,139.1,448.5,176.5,494.4,176.5"/>
		<path class="st5" d="M494.4,176.5c45.9,0,83.2-37.3,83.2-83.2c0-45.9-37.3-83.2-83.2-83.2c-45.9,0-83.2,37.3-83.2,83.2
			C411.2,139.1,448.5,176.5,494.4,176.5"/>
		<path class="st3" d="M421.5,53.7c-6.3,12.1-9.6,25.6-9.6,39.3c0,45.8,36.3,83.2,81.3,84V93.9C469.2,80.5,445.4,67.1,421.5,53.7"/>
		<path class="st5" d="M423.4,55.6c-6.1,11.7-9.3,24.9-9.3,38.3c0,44.6,35.2,80.9,78.8,81.8V94.8C469.7,81.8,446.6,68.7,423.4,55.6z
			"/>
	</g>
	<line class="st6" x1="378.5" y1="119.5" x2="440.5" y2="119.5"/>
</g>
</svg>
