<?xml version="1.0" standalone="no"?>
<!DOCTYPE svg PUBLIC "-//W3C//DTD SVG 20010904//EN"
 "http://www.w3.org/TR/2001/REC-SVG-20010904/DTD/svg10.dtd">
<svg version="1.0" xmlns="http://www.w3.org/2000/svg"
 width="700.000000pt" height="700.000000pt" viewBox="0 0 700.000000 700.000000"
 preserveAspectRatio="xMidYMid meet">
<metadata>
Created by potrace 1.11, written by Peter Selinger 2001-2013
</metadata>
<g transform="translate(0.000000,700.000000) scale(0.100000,-0.100000)"
fill="#000000" stroke="none">
<path d="M1815 5960 c-39 -12 -55 -35 -55 -79 0 -34 43 -78 842 -878 463 -463
855 -848 870 -854 18 -7 36 -8 48 -3 11 5 403 391 870 859 764 763 850 852
850 880 0 21 -9 40 -26 56 l-26 24 -496 3 c-273 2 -517 0 -542 -3 -43 -7 -58
-20 -336 -296 -160 -159 -298 -289 -308 -289 -9 0 -27 5 -39 11 -12 6 -149
138 -305 293 l-282 281 -518 2 c-288 1 -530 -2 -547 -7z"/>
<path d="M1052 5217 l-22 -23 0 -539 0 -540 284 -285 c178 -178 287 -295 291
-311 4 -17 1 -38 -9 -55 -8 -16 -139 -153 -290 -304 l-276 -275 0 -541 0 -541
23 -21 c15 -14 36 -22 57 -22 32 0 90 55 877 842 463 463 847 855 854 870 9
21 9 35 0 56 -7 15 -391 407 -854 870 -801 801 -844 842 -878 842 -24 0 -42
-7 -57 -23z"/>
<path d="M5013 4398 c-463 -463 -847 -855 -854 -870 -9 -21 -9 -35 0 -56 7
-15 391 -407 854 -870 801 -801 844 -842 878 -842 24 0 42 7 57 23 l22 23 0
539 0 540 -290 290 c-267 268 -290 294 -290 325 0 31 23 57 290 325 l290 290
0 541 0 541 -23 21 c-15 14 -36 22 -58 22 -32 0 -88 -54 -876 -842z"/>
<path d="M3465 2840 c-11 -5 -399 -388 -862 -852 -802 -802 -843 -845 -843
-879 0 -24 7 -42 23 -57 l23 -22 540 0 539 0 275 276 c151 151 288 282 304
290 17 10 38 13 55 9 16 -4 133 -113 311 -291 l285 -284 541 0 541 0 21 23
c14 15 22 36 22 57 0 32 -55 90 -837 873 -461 461 -850 845 -865 853 -30 16
-44 17 -73 4z"/>
</g>
</svg>
