<?xml version="1.0" standalone="no"?>
<!DOCTYPE svg PUBLIC "-//W3C//DTD SVG 20010904//EN"
 "http://www.w3.org/TR/2001/REC-SVG-20010904/DTD/svg10.dtd">
<svg version="1.0" xmlns="http://www.w3.org/2000/svg"
 width="550.000000pt" height="550.000000pt" viewBox="0 0 550.000000 550.000000"
 preserveAspectRatio="xMidYMid meet">
<metadata>
Created by potrace 1.11, written by Peter Selinger 2001-2013
</metadata>
<g transform="translate(0.000000,550.000000) scale(0.100000,-0.100000)"
fill="#000000" stroke="none">
<path d="M3025 5413 c-1273 -26 -2583 -123 -2836 -211 -43 -15 -56 -25 -73
-57 -19 -35 -21 -58 -21 -190 0 -82 6 -211 13 -284 25 -280 14 -1072 -23
-1531 -56 -695 -74 -1010 -82 -1455 -12 -721 43 -1110 177 -1244 68 -67 192
-80 850 -88 606 -7 3210 14 3445 28 206 12 394 32 578 60 129 20 139 23 151
48 102 200 226 2007 226 3301 0 719 -27 1194 -82 1447 -10 47 -15 54 -59 77
-89 49 -266 77 -599 96 -150 8 -1302 11 -1665 3z m1993 -370 l73 -6 -5 -61
c-4 -34 -13 -295 -21 -581 -9 -286 -22 -637 -30 -780 -8 -143 -17 -328 -21
-411 l-7 -151 -146 -6 c-80 -3 -146 -5 -147 -4 -1 1 -9 160 -18 352 -34 721
-37 743 -93 847 -40 73 -100 108 -157 94 -50 -13 -261 -199 -581 -515 -181
-179 -432 -425 -556 -546 -238 -230 -303 -311 -303 -370 0 -56 65 -138 268
-335 104 -102 406 -399 671 -660 516 -512 583 -569 673 -578 58 -5 86 7 112
51 37 60 23 100 -88 242 -183 237 -682 751 -1136 1170 l-108 100 153 150 c85
82 294 289 466 459 172 171 315 307 319 303 14 -13 39 -455 50 -877 l7 -245
-44 39 c-24 22 -59 60 -78 84 -32 40 -35 50 -41 135 -7 101 -15 122 -61 161
-24 21 -41 26 -82 26 -74 -1 -126 -28 -181 -95 -62 -76 -77 -106 -83 -170 -11
-104 50 -183 286 -374 299 -242 395 -291 481 -246 63 33 90 131 97 363 l6 162
149 0 149 0 -6 -102 c-15 -251 -23 -875 -18 -1354 l6 -522 -39 -6 c-249 -38
-593 -53 -1436 -62 l-658 -7 0 146 0 147 193 0 c220 0 646 16 788 30 213 21
329 90 329 196 0 37 -9 52 -107 170 -58 71 -264 289 -457 484 -193 196 -432
439 -531 541 -206 211 -288 274 -347 266 -80 -11 -181 -101 -528 -471 -118
-126 -341 -352 -495 -502 -526 -514 -602 -624 -493 -726 36 -34 81 -37 136 -9
53 27 197 140 327 256 161 144 701 682 893 890 92 99 170 180 173 180 3 0 84
-83 179 -185 96 -102 303 -313 460 -469 l285 -285 -50 -7 c-104 -15 -1000 -55
-1055 -48 -24 4 -23 6 30 63 74 78 115 98 211 101 146 3 206 78 167 209 -15
50 -101 137 -172 173 -70 36 -147 36 -206 1 -59 -34 -173 -153 -296 -308 -204
-257 -250 -351 -209 -430 33 -65 134 -93 374 -106 l131 -7 0 -143 0 -144 -697
0 c-384 0 -790 5 -903 10 -113 5 -280 12 -372 16 l-166 7 -6 101 c-6 107 -37
1640 -36 1814 l0 102 153 0 154 0 6 -262 c11 -430 34 -836 51 -913 43 -186
154 -264 260 -183 127 99 279 239 606 562 201 199 440 433 530 521 166 161
250 266 250 312 0 64 -86 170 -306 378 -93 87 -383 371 -644 630 -302 300
-498 486 -538 513 -110 72 -170 78 -222 22 -56 -60 -44 -111 59 -247 34 -46
119 -147 189 -225 150 -170 741 -763 933 -936 l136 -123 -146 -141 c-80 -78
-292 -287 -470 -465 -178 -178 -325 -323 -326 -321 -6 5 -35 631 -42 886 l-6
246 30 -22 c44 -31 103 -99 119 -138 8 -18 14 -64 14 -101 0 -137 79 -206 199
-173 89 24 196 157 208 258 12 102 -58 191 -307 391 -281 226 -373 274 -449
234 -70 -37 -98 -116 -108 -309 l-6 -121 -111 -7 c-61 -3 -134 -6 -162 -6
l-51 0 4 48 c2 26 15 200 28 387 76 1015 134 1416 212 1446 35 13 294 36 613
54 241 13 416 21 1163 51 l157 6 2 -136 c1 -75 2 -146 2 -158 l1 -23 -320 -7
c-783 -16 -911 -37 -992 -157 -40 -59 -32 -89 48 -188 78 -99 328 -373 339
-373 4 0 194 -193 423 -429 413 -425 521 -525 585 -537 58 -11 129 42 322 240
96 99 396 402 666 675 502 508 584 602 600 686 12 64 -31 126 -96 140 -54 12
-163 -60 -390 -259 -179 -156 -873 -856 -980 -988 l-95 -117 -199 207 c-109
114 -318 326 -465 471 l-266 265 55 7 c127 17 1057 55 1068 44 3 -3 -23 -35
-58 -70 -73 -74 -129 -101 -188 -92 -53 9 -108 -9 -150 -48 -35 -31 -37 -37
-36 -92 0 -74 26 -125 93 -181 98 -83 198 -104 284 -61 54 28 157 133 281 287
190 238 254 350 239 423 -8 44 -57 87 -116 104 -59 16 -228 35 -322 35 l-63 0
-7 133 c-4 72 -5 146 -3 162 l3 30 150 7 c461 23 1809 31 2033 11z"/>
</g>
</svg>
