<svg xmlns="http://www.w3.org/2000/svg" viewBox="0 0 122.9 64.89"><defs><style>.cls-1{fill:#fff;}</style></defs><title>Asset 27</title><g id="Layer_2" data-name="Layer 2"><g id="design"><path class="cls-1" d="M41.71,64.89c-7.19,0-12.15-.26-13.26-.71-.82-.33-1.29-1.61-1.26-3.43l0-3.23L15,56.77l-.38-9.54-5.54-.1c-4.06-.06-5.41-.43-6-1.62C1.22,41.9-.54,21.65.16,12.17c.4-5.53,1-9.83,1.22-10.23.2-.21,2.57-.62,10-.62,1.16,0,2.39,0,3.67,0l3.81,0c8.86,0,24.52-.31,37.23-.74C67.36.26,79.24,0,85.64,0c2,0,3.32,0,4.06.07l5.72.36.72,10.91,6.81.11c7.6.13,8,.48,8.12,7.57l.1,4.82,5,.08c3.07.06,5.11.65,5.54,1.2s1,4.55,1,9.61c.35,18.57.22,24.92-.57,26.1-.65,1-5,1.34-20.06,1.61-10.67.2-26.07.88-34.33,1.51-7.59.58-17.57.94-26,.94ZM79,26.85c-19.94,0-37.52.37-41.82.89l-8.19,1,.39,4.83c.21,2.57.56,9.84.77,16.2l.41,11.77,10.75.18h1.42c6.54,0,19.27-.56,29.61-1.31s22.54-1.34,27.45-1.34h.78l2.13,0c4.11,0,8.74-.16,11.28-.38l5.77-.52-.07-7.08c0-3.84-.14-10.76-.24-15.43l-.18-8.73-37.12-.07Zm24-11.71c-2.75,0-11.11.5-19,1.13-8.26.66-26.37,1.27-40.38,1.36L18,17.8l-.41,4.25c-.21,2.26-.2,10.31,0,18L18,54l9.41.15L26.94,51c-.24-1.6-.55-8.18-.66-14.36l-.22-11.25,9.54-.87c5.06-.46,10.88-.82,13.26-.82h.54a13.36,13.36,0,0,0,7.39-2.28,9.77,9.77,0,0,1,5.26-1.7,10.67,10.67,0,0,1,6,2.11c1.5,1,6,1.36,20.19,1.52,4.23.05,7.48.09,10,.09,8.08,0,8.5-.37,9-2a18.89,18.89,0,0,0,.62-4c0-.83,0-1.54-.78-1.91a10.44,10.44,0,0,0-3.7-.41ZM3.64,12.66a78.5,78.5,0,0,0-.38,11.6L5.5,43.84l8.64.15-.27-27.67,2.18-1.09c.86-.43,3.46-.94,10.94-.94l3.27,0,12.11.2,3.39-3.64c2.7-2.9,3.72-3.45,6.43-3.45h.37c2.85.05,4.15.68,6.61,3.23l.22.22c2.11,2.19,2.9,3,7.43,3,2.5,0,6.21-.25,11.83-.63l13.78-.91.15-9.19-6.24-.05c-3.74,0-16.64.36-29.37.82-11.18.4-25.72.69-34.56.69-1.37,0-2.59,0-3.65,0L4.43,4.41ZM52,10.74a4.9,4.9,0,0,0-3.31,1c-.92.89-1.23,1.47-1,1.95.26.67,1.48.94,4.49,1h.49c1.69,0,4.57-.17,4.86-1.28.13-.53-.34-1.09-1.4-1.67A8.65,8.65,0,0,0,52,10.74Z"/><path class="cls-1" d="M72.52,57.21a9.54,9.54,0,0,1-6.37-2.15c-2.26-2-2.43-2.65-2.33-8.74.09-5.49.47-7.08,2.21-9.46a9.55,9.55,0,0,1,4.39-3.39,4.58,4.58,0,0,1,1-.13c1.21,0,2.14.69,4.18,3.1a71.43,71.43,0,0,1,4.71,6.32c1.85,3,2.13,7.62.62,10.34-1.38,2.5-4.69,4.11-8.43,4.11Zm-3.47-19C66.48,41,65.76,49.68,67.89,52.11A5.91,5.91,0,0,0,72.34,54a7.51,7.51,0,0,0,4.17-1.29A4.76,4.76,0,0,0,78.62,49c.25-3.11-1.76-7-5.39-10.42l-2.38-2.25Z"/></g></g></svg>