<svg xmlns="http://www.w3.org/2000/svg" viewBox="0 0 130.4 121.88"><defs><style>.cls-1{fill:#212018;}</style></defs><title>Asset 15</title><g id="Layer_2" data-name="Layer 2"><g id="design"><path class="cls-1" d="M31.66,121.88c-19.75,0-24.07-.38-26.28-1.22-5.57-2.15-6.8-21.86-3.77-60.27C3,42.45,3.5,23.6,2.68,17.48c-.94-7-.75-10.31.68-11.62l.19-.14C7.16,3.71,41.58.79,79,.16,85.44.05,90.89,0,95.63,0,115.7,0,125.08.93,128,3.19l.09.08.08.12c1.5,3.57,3,26.23,1.78,58-1.11,29.39-3.21,53.6-5,57.56l-.08.17-.2.12c-2.66.93-14.25,2-28.45,2.17C64.39,121.73,45.08,121.88,31.66,121.88Zm-12.41-8c6.88.3,18.68.45,36.08.45h7.2l0-.63c-.09-1.82-.14-4.15-.22-7.24v-.57l-.57,0c-.87,0-1.71-.07-2.47-.12-5.95-.36-8.55-.78-9.28-2.42s.8-4.17,5.6-10.17c3.73-4.66,6-7.06,8.24-7.28a2.36,2.36,0,0,1,.37,0,6.59,6.59,0,0,1,4,2c1.86,1.55,2.69,3.48,2.1,4.91-.45,1.11-1.64,1.74-3.27,1.74a4.87,4.87,0,0,1-.54,0l-.5,0c-1.72,0-3.14.79-4.91,2.7-.59.65-1.06,1.19-1.42,1.64l-.8,1,1.87,0c5.93,0,22.35-.69,27.18-1.22l1-.11-.61-.85a25.78,25.78,0,0,0-3.06-3.41C82.68,91.7,77.06,86,72.67,81.47l-7.43-7.72L60.6,78.84c-4.34,4.76-27,28.07-30.63,28.1h-.13a2.52,2.52,0,0,1-1.95-1.62c-.52-2,2-5.17,11.24-14.11,6.33-6.13,14.31-14.27,17.77-18.14,3.82-4.26,7.24-7.13,8.53-7.13s5.09,3.51,7.92,6.61c3.16,3.47,10.12,10.64,15.53,16,3.93,3.89,10,10.17,10.44,11.47a2.65,2.65,0,0,1-.36,2.42c-1.49,2.09-5.7,2.64-9,2.73s-9.58.38-14,.64c-1.83.1-4.35.16-7.1.16H67.74v.62c0,1.52,0,3.35-.08,6l0,1.59.71.12c17.55-.08,38-.33,42.65-.8l9.76-1,.07-23.79c0-5.93.25-15,.62-24.85l0-.63h-1.15c-1.43,0-3.11,0-4.86-.09L113,63.05l0,.61c0,1.11-.09,2.17-.15,3.13-.36,5.95-.78,8.55-2.42,9.28a2.16,2.16,0,0,1-.88.18c-1.91,0-4.92-2.29-9.29-5.79-4.66-3.72-7.06-6-7.28-8.23-.16-1.6.83-3,1.93-4.35a5.54,5.54,0,0,1,3.91-2.29,2.78,2.78,0,0,1,1,.19c1.23.51,1.87,1.93,1.72,3.82s.56,3.46,2.68,5.41c.58.53,1.13,1,1.63,1.42l1,.8,0-1.27c.05-5.83-.7-23-1.22-27.79l-.11-1-.85.6a26.58,26.58,0,0,0-3.41,3.06c-2.46,2.58-8.14,8.2-12.65,12.54l-7.72,7.43L86,65.42c4.76,4.34,28.07,27,28.1,30.62v.07l0,.06a2.49,2.49,0,0,1-1.61,2,2.22,2.22,0,0,1-.51.06c-2.25,0-6.35-3.8-13.6-11.3C92.18,80.56,84,72.59,80.17,69.12,76.66,66,72.93,62,73,60.53s3.51-5,6.61-7.87c3.48-3.17,10.65-10.13,16-15.52,3.74-3.79,10.17-10,11.47-10.44a2.86,2.86,0,0,1,.89-.15,2.56,2.56,0,0,1,1.53.51c2.08,1.48,2.64,5.7,2.73,9s.39,9.64.63,13.95c.12,1.9.18,4.53.17,7.4V58l.64,0c1.82-.1,4.22-.16,7.41-.24h.56l0-.57c.31-7.11.66-13.72,1-19.11l.9-29.95-10.77-.4c-2.09-.06-4.87-.1-8.26-.1-8.85,0-21.72.23-36.24.66l-.6,0v.59c0,1.47,0,3.22-.09,5.57,0,.67-.07,2.26-.1,3l.61,0,2.32.11c6,.37,8.56.78,9.28,2.42s-.8,4.17-5.6,10.18c-3.73,4.65-6,7.05-8.23,7.28H65.6a6.63,6.63,0,0,1-4-1.94c-1.86-1.56-2.69-3.49-2.1-4.92.45-1.1,1.65-1.74,3.29-1.74l.53,0,.53,0c1.67,0,3.13-.81,4.87-2.71.59-.64,1.06-1.19,1.42-1.63l.8-1-2,0c-6.5,0-22.44.71-27.06,1.22l-1,.11.61.84a25,25,0,0,0,3.06,3.41c2.58,2.48,8.21,8.15,12.54,12.65l7.43,7.73,4.64-5.09c4.53-5,26.93-28.11,30.64-28.11h.06l.06,0a2.48,2.48,0,0,1,2,1.62c.52,2-2,5.17-11.23,14.1-6.34,6.14-14.32,14.28-17.78,18.15-3.82,4.26-7.25,7.12-8.53,7.12s-5.09-3.5-7.92-6.6c-3.12-3.42-10.08-10.6-15.53-16-4.72-4.68-10-10.27-10.44-11.48a2.64,2.64,0,0,1,.36-2.41c1.49-2.09,5.7-2.64,9-2.74s9.66-.38,14-.63c1.86-.11,4.45-.17,7.29-.17H62.6l0-.65c-.12-1.9-.19-4.6-.26-7.67V8.46h-.62c-19.87.65-44.1,1.72-47,2.62-1.55.48-3.29,1-6.25,46.22l0,.68.67,0c2-.09,4.5-.15,7.7-.23h.57l.07-1.32c.36-5.95.78-8.56,2.42-9.29a2.13,2.13,0,0,1,.88-.18c1.91,0,4.92,2.29,9.29,5.79,4.66,3.72,7.06,6,7.28,8.23.16,1.6-.83,3-1.92,4.35a5.55,5.55,0,0,1-3.93,2.29,2.57,2.57,0,0,1-1-.19c-1.23-.5-1.87-1.93-1.72-3.82S28.11,60.1,26,58.17c-.64-.58-1.19-1.06-1.63-1.42l-1-.79v1.26c-.06,5.82.69,23,1.21,27.79l.12,1,.84-.6A25.67,25.67,0,0,0,29,82.38c2.49-2.6,8.16-8.22,12.65-12.54l7.72-7.43-5.09-4.65c-4.76-4.34-28.06-27-28.1-30.63v-.06l0-.06a2.48,2.48,0,0,1,1.62-2,2.1,2.1,0,0,1,.51-.06c2.24,0,6.34,3.8,13.59,11.3C38,42.61,46.15,50.58,50,54.06c3.52,3.15,7.24,7.17,7.13,8.59s-3.41,4.95-6.61,7.87c-3.44,3.14-10.62,10.1-16,15.52C32.66,88,24.64,95.92,23.09,96.49a3.17,3.17,0,0,1-.89.14,2.61,2.61,0,0,1-1.52-.5c-2.09-1.49-2.64-5.71-2.74-9s-.39-9.71-.63-14c-.14-2.39-.2-5.81-.16-9.39v-.63l-.64,0-1.51,0c-1.42,0-3.11,0-4.86-.09L8.1,63.07l1,50.28Z"/></g></g></svg>